<svg width="16" height="19" viewBox="0 0 16 19" fill="none" xmlns="http://www.w3.org/2000/svg">
<g opacity="0.5">
<path d="M1.5332 17.5737H14.3332" stroke="white" stroke-width="1.5" stroke-linecap="round"/>
<path d="M9.44365 2.90407L10.0368 2.31087C11.0197 1.32802 12.6132 1.32802 13.5961 2.31087C14.5789 3.29372 14.5789 4.88724 13.5961 5.87009L13.0029 6.46329M9.44365 2.90407C9.44365 2.90407 9.5178 4.16463 10.6301 5.27688C11.7423 6.38914 13.0029 6.46329 13.0029 6.46329M9.44365 2.90407L3.99005 8.35767C3.62067 8.72705 3.43597 8.91174 3.27714 9.11538C3.08977 9.35561 2.92913 9.61553 2.79806 9.89055C2.68695 10.1237 2.60436 10.3715 2.43916 10.8671L1.73916 12.9671M13.0029 6.46329L7.54927 11.9169C7.17988 12.2863 6.99519 12.471 6.79155 12.6298C6.55133 12.8172 6.29141 12.9778 6.01639 13.1089C5.78325 13.22 5.53546 13.3026 5.03988 13.4678L2.93987 14.1678M2.93987 14.1678L2.42654 14.3389C2.18266 14.4202 1.91378 14.3567 1.73201 14.1749C1.55023 13.9931 1.48676 13.7243 1.56805 13.4804L1.73916 12.9671M2.93987 14.1678L1.73916 12.9671" stroke="white" stroke-width="1.5"/>
</g>
</svg>
