<svg width="23" height="19" viewBox="0 0 23 19" fill="none" xmlns="http://www.w3.org/2000/svg">
<g opacity="0.5">
<path d="M2.94189 12.8694C2.09196 11.7652 1.66699 11.2131 1.66699 9.57373C1.66699 7.93435 2.09196 7.38226 2.94188 6.27806C4.63896 4.07329 7.48511 1.57373 11.667 1.57373C15.8489 1.57373 18.695 4.07329 20.3921 6.27806C21.242 7.38226 21.667 7.93435 21.667 9.57373C21.667 11.2131 21.242 11.7652 20.3921 12.8694C18.695 15.0742 15.8489 17.5737 11.667 17.5737C7.48511 17.5737 4.63896 15.0742 2.94189 12.8694Z" stroke="white" stroke-width="1.5"/>
<path opacity="0.5" d="M14.667 9.57373C14.667 11.2306 13.3238 12.5737 11.667 12.5737C10.0101 12.5737 8.66699 11.2306 8.66699 9.57373C8.66699 7.91688 10.0101 6.57373 11.667 6.57373C13.3238 6.57373 14.667 7.91688 14.667 9.57373Z" stroke="white" stroke-width="1.5"/>
</g>
</svg>
