<svg width="73" height="50" viewBox="0 0 73 50" fill="none" xmlns="http://www.w3.org/2000/svg">
<path d="M71.6004 35.5L67.8004 31.7L63.0004 36.5999L58.2004 31.7L54.4004 35.5L59.2004 40.2999L54.4004 45.0999L58.2004 48.9L63.0004 44.0999L67.8004 48.9L71.6004 45.0999L66.7004 40.2999L71.6004 35.5Z" stroke="white" stroke-miterlimit="10" stroke-linecap="round" stroke-linejoin="round"/>
<path d="M44.8002 35.5L41.1002 31.7L36.3002 36.5999L31.4002 31.7L27.7002 35.5L32.5002 40.2999L27.7002 45.0999L31.4002 48.9L36.3002 44.0999L41.1002 48.9L44.8002 45.0999L40.0002 40.2999L44.8002 35.5Z" stroke="white" stroke-miterlimit="10" stroke-linecap="round" stroke-linejoin="round"/>
<path d="M18.1004 35.5L14.3004 31.7L9.50039 36.5999L4.70039 31.7L0.900391 35.5L5.80039 40.2999L0.900391 45.0999L4.70039 48.9L9.50039 44.0999L14.3004 48.9L18.1004 45.0999L13.3004 40.2999L18.1004 35.5Z" stroke="white" stroke-miterlimit="10" stroke-linecap="round" stroke-linejoin="round"/>
<path d="M71.6004 4.2L67.8004 0.5L63.0004 5.3L58.2004 0.5L54.4004 4.2L59.2004 9.1L54.4004 13.9L58.2004 17.7L63.0004 12.8L67.8004 17.7L71.6004 13.9L66.7004 9.1L71.6004 4.2Z" stroke="white" stroke-miterlimit="10" stroke-linecap="round" stroke-linejoin="round"/>
<path d="M44.8002 4.2L41.1002 0.5L36.3002 5.3L31.4002 0.5L27.7002 4.2L32.5002 9.1L27.7002 13.9L31.4002 17.7L36.3002 12.8L41.1002 17.7L44.8002 13.9L40.0002 9.1L44.8002 4.2Z" stroke="white" stroke-miterlimit="10" stroke-linecap="round" stroke-linejoin="round"/>
<path d="M18.1004 4.2L14.3004 0.5L9.50039 5.3L4.70039 0.5L0.900391 4.2L5.80039 9.1L0.900391 13.9L4.70039 17.7L9.50039 12.8L14.3004 17.7L18.1004 13.9L13.3004 9.1L18.1004 4.2Z" stroke="white" stroke-miterlimit="10" stroke-linecap="round" stroke-linejoin="round"/>
</svg>
