<svg width="24" height="19" viewBox="0 0 24 19" fill="none" xmlns="http://www.w3.org/2000/svg">
<path d="M20.0993 2.29324C18.5404 1.57886 16.8946 1.07205 15.2041 0.785767C14.9728 1.19969 14.7635 1.62557 14.5771 2.06161C12.7764 1.79 10.9452 1.79 9.1445 2.06161C8.95799 1.62561 8.74868 1.19974 8.51745 0.785767C6.82587 1.07447 5.17907 1.58248 3.6186 2.29697C0.52066 6.88477 -0.319143 11.3586 0.100758 15.769C1.91499 17.1107 3.94563 18.131 6.10441 18.7858C6.59051 18.1314 7.02064 17.4371 7.39025 16.7104C6.68823 16.448 6.01067 16.1242 5.36539 15.7428C5.53521 15.6195 5.70131 15.4925 5.8618 15.3692C7.73941 16.253 9.78872 16.7113 11.8636 16.7113C13.9385 16.7113 15.9878 16.253 17.8654 15.3692C18.0277 15.5018 18.1938 15.6289 18.3618 15.7428C17.7153 16.1248 17.0365 16.4492 16.3332 16.7123C16.7024 17.4387 17.1325 18.1323 17.619 18.7858C19.7797 18.1337 21.8119 17.1138 23.6264 15.7708C24.1191 10.6563 22.7848 6.2235 20.0993 2.29324ZM7.92212 13.0566C6.752 13.0566 5.78529 11.9937 5.78529 10.6861C5.78529 9.37854 6.7184 8.30631 7.91839 8.30631C9.11837 8.30631 10.0776 9.37854 10.0571 10.6861C10.0366 11.9937 9.11464 13.0566 7.92212 13.0566ZM15.8051 13.0566C14.6331 13.0566 13.6701 11.9937 13.6701 10.6861C13.6701 9.37854 14.6032 8.30631 15.8051 8.30631C17.0069 8.30631 17.9587 9.37854 17.9382 10.6861C17.9176 11.9937 16.9976 13.0566 15.8051 13.0566Z" fill="#2A2A2B"/>
</svg>
