<svg width="101" height="53" viewBox="0 0 101 53" fill="none" xmlns="http://www.w3.org/2000/svg">
<path d="M50.5 52.2C78.1142 52.2 100.5 46.4692 100.5 39.4C100.5 32.3307 78.1142 26.6 50.5 26.6C22.8858 26.6 0.5 32.3307 0.5 39.4C0.5 46.4692 22.8858 52.2 50.5 52.2Z" stroke="white" stroke-miterlimit="10" stroke-linecap="round" stroke-linejoin="round"/>
<path d="M50.5 39.4C78.1142 39.4 100.5 33.6693 100.5 26.6001C100.5 19.5308 78.1142 13.8 50.5 13.8C22.8858 13.8 0.5 19.5308 0.5 26.6001C0.5 33.6693 22.8858 39.4 50.5 39.4Z" stroke="white" stroke-miterlimit="10" stroke-linecap="round" stroke-linejoin="round"/>
<path d="M50.5 26.6C78.1142 26.6 100.5 20.8692 100.5 13.8C100.5 6.73075 78.1142 1 50.5 1C22.8858 1 0.5 6.73075 0.5 13.8C0.5 20.8692 22.8858 26.6 50.5 26.6Z" fill="white" stroke="white" stroke-miterlimit="10" stroke-linecap="round" stroke-linejoin="round"/>
</svg>
