<svg width="31" height="23" viewBox="0 0 31 23" fill="none" xmlns="http://www.w3.org/2000/svg">
<path d="M28.7002 3.5C27.9002 3.5 27.2002 2.8 27.2002 2C27.2002 1.2 27.9002 0.5 28.7002 0.5C29.5002 0.5 30.2002 1.2 30.2002 2C30.2002 2.8 29.6002 3.5 28.7002 3.5Z" fill="white"/>
<path d="M28.7002 9.80005C27.9002 9.80005 27.2002 9.10005 27.2002 8.30005C27.2002 7.50005 27.9002 6.80005 28.7002 6.80005C29.5002 6.80005 30.2002 7.50005 30.2002 8.30005C30.2002 9.10005 29.6002 9.80005 28.7002 9.80005Z" fill="white"/>
<path d="M28.7002 16.1C27.9002 16.1 27.2002 15.4 27.2002 14.6C27.2002 13.8 27.9002 13.1 28.7002 13.1C29.5002 13.1 30.2002 13.8 30.2002 14.6C30.2002 15.4 29.6002 16.1 28.7002 16.1Z" fill="white"/>
<path d="M28.7002 22.4C27.9002 22.4 27.2002 21.7 27.2002 20.9C27.2002 20.1 27.9002 19.4 28.7002 19.4C29.5002 19.4 30.2002 20.1 30.2002 20.9C30.2002 21.7 29.6002 22.4 28.7002 22.4Z" fill="white"/>
<path d="M21.8999 3.5C22.7283 3.5 23.3999 2.82843 23.3999 2C23.3999 1.17157 22.7283 0.5 21.8999 0.5C21.0715 0.5 20.3999 1.17157 20.3999 2C20.3999 2.82843 21.0715 3.5 21.8999 3.5Z" fill="white"/>
<path d="M21.8999 9.80005C22.7283 9.80005 23.3999 9.12848 23.3999 8.30005C23.3999 7.47162 22.7283 6.80005 21.8999 6.80005C21.0715 6.80005 20.3999 7.47162 20.3999 8.30005C20.3999 9.12848 21.0715 9.80005 21.8999 9.80005Z" fill="white"/>
<path d="M21.8999 16.1C22.7283 16.1 23.3999 15.4284 23.3999 14.6C23.3999 13.7715 22.7283 13.1 21.8999 13.1C21.0715 13.1 20.3999 13.7715 20.3999 14.6C20.3999 15.4284 21.0715 16.1 21.8999 16.1Z" fill="white"/>
<path d="M21.8999 22.4C22.7283 22.4 23.3999 21.7285 23.3999 20.9C23.3999 20.0716 22.7283 19.4 21.8999 19.4C21.0715 19.4 20.3999 20.0716 20.3999 20.9C20.3999 21.7285 21.0715 22.4 21.8999 22.4Z" fill="white"/>
<path d="M15.2002 3.5C14.4002 3.5 13.7002 2.8 13.7002 2C13.7002 1.2 14.4002 0.5 15.2002 0.5C16.0002 0.5 16.7002 1.2 16.7002 2C16.7002 2.8 16.0002 3.5 15.2002 3.5Z" fill="white"/>
<path d="M15.2002 9.80005C14.4002 9.80005 13.7002 9.10005 13.7002 8.30005C13.7002 7.50005 14.4002 6.80005 15.2002 6.80005C16.0002 6.80005 16.7002 7.50005 16.7002 8.30005C16.7002 9.10005 16.0002 9.80005 15.2002 9.80005Z" fill="white"/>
<path d="M15.2002 16.1C14.4002 16.1 13.7002 15.4 13.7002 14.6C13.7002 13.8 14.4002 13.1 15.2002 13.1C16.0002 13.1 16.7002 13.8 16.7002 14.6C16.7002 15.4 16.0002 16.1 15.2002 16.1Z" fill="white"/>
<path d="M15.2002 22.4C14.4002 22.4 13.7002 21.7 13.7002 20.9C13.7002 20.1 14.4002 19.4 15.2002 19.4C16.0002 19.4 16.7002 20.1 16.7002 20.9C16.7002 21.7 16.0002 22.4 15.2002 22.4Z" fill="white"/>
<path d="M8.3999 3.5C9.22833 3.5 9.8999 2.82843 9.8999 2C9.8999 1.17157 9.22833 0.5 8.3999 0.5C7.57148 0.5 6.8999 1.17157 6.8999 2C6.8999 2.82843 7.57148 3.5 8.3999 3.5Z" fill="white"/>
<path d="M8.3999 9.80005C9.22833 9.80005 9.8999 9.12848 9.8999 8.30005C9.8999 7.47162 9.22833 6.80005 8.3999 6.80005C7.57148 6.80005 6.8999 7.47162 6.8999 8.30005C6.8999 9.12848 7.57148 9.80005 8.3999 9.80005Z" fill="white"/>
<path d="M8.3999 16.1C9.22833 16.1 9.8999 15.4284 9.8999 14.6C9.8999 13.7715 9.22833 13.1 8.3999 13.1C7.57148 13.1 6.8999 13.7715 6.8999 14.6C6.8999 15.4284 7.57148 16.1 8.3999 16.1Z" fill="white"/>
<path d="M8.3999 22.4C9.22833 22.4 9.8999 21.7285 9.8999 20.9C9.8999 20.0716 9.22833 19.4 8.3999 19.4C7.57148 19.4 6.8999 20.0716 6.8999 20.9C6.8999 21.7285 7.57148 22.4 8.3999 22.4Z" fill="white"/>
<path d="M1.6001 3.5C0.800098 3.5 0.100098 2.8 0.100098 2C0.100098 1.2 0.800098 0.5 1.6001 0.5C2.4001 0.5 3.1001 1.2 3.1001 2C3.1001 2.8 2.4001 3.5 1.6001 3.5Z" fill="white"/>
<path d="M1.6001 9.80005C0.800098 9.80005 0.100098 9.10005 0.100098 8.30005C0.100098 7.50005 0.800098 6.80005 1.6001 6.80005C2.4001 6.80005 3.1001 7.50005 3.1001 8.30005C3.1001 9.10005 2.4001 9.80005 1.6001 9.80005Z" fill="white"/>
<path d="M1.6001 16.1C0.800098 16.1 0.100098 15.4 0.100098 14.6C0.100098 13.8 0.800098 13.1 1.6001 13.1C2.4001 13.1 3.1001 13.8 3.1001 14.6C3.1001 15.4 2.4001 16.1 1.6001 16.1Z" fill="white"/>
<path d="M1.6001 22.4C0.800098 22.4 0.100098 21.7 0.100098 20.9C0.100098 20.1 0.800098 19.4 1.6001 19.4C2.4001 19.4 3.1001 20.1 3.1001 20.9C3.1001 21.7 2.4001 22.4 1.6001 22.4Z" fill="white"/>
</svg>
