<svg width="16" height="16" viewBox="0 0 16 16" fill="none" xmlns="http://www.w3.org/2000/svg">
<path d="M8.21508 15.9565C7.56992 15.9565 7.03228 15.7482 6.60218 15.3315C6.17207 14.9149 5.95701 14.4109 5.95701 13.8194C5.95701 13.4834 6.02422 13.181 6.15863 12.9122C6.29304 12.6434 6.52825 12.3476 6.86428 12.0251C7.21374 11.7025 7.48927 11.4001 7.69089 11.1178C7.90594 10.8222 8.01346 10.5667 8.01346 10.3517V9.62587C7.71777 9.55867 7.45567 9.42427 7.22718 9.22267C7.01212 9.0076 6.871 8.75219 6.80379 8.45653H6.07798C5.84949 8.45653 5.58067 8.56406 5.27153 8.77913C4.96239 8.99413 4.6667 9.25627 4.38443 9.56541C4.10218 9.87454 3.81992 10.103 3.53766 10.2509C3.26884 10.3987 2.95971 10.4727 2.61024 10.4727C2.00541 10.4727 1.49465 10.2576 1.07798 9.82747C0.674758 9.39741 0.473145 8.85973 0.473145 8.21459C0.473145 7.56943 0.674758 7.0318 1.07798 6.60169C1.49465 6.17158 2.00541 5.95652 2.61024 5.95652C3.17476 5.95652 3.65863 6.15814 4.06186 6.56136C4.46508 6.96459 4.82798 7.30733 5.15057 7.58959C5.47314 7.87185 5.78229 8.01298 6.07798 8.01298H6.80379C6.871 7.70384 7.01212 7.44846 7.22718 7.24685C7.45567 7.0318 7.71777 6.89739 8.01346 6.84362V6.11782C8.01346 5.76836 7.74465 5.32481 7.20702 4.78718L6.78363 4.36378C6.23256 3.81271 5.95701 3.22803 5.95701 2.60976C5.95701 2.00492 6.17207 1.50088 6.60218 1.09766C7.04572 0.680989 7.58336 0.472656 8.21508 0.472656C8.86022 0.472656 9.39789 0.680989 9.82796 1.09766C10.2581 1.51433 10.4732 2.01836 10.4732 2.60976C10.4732 3.29523 10.1371 3.9404 9.46509 4.54524C8.79302 5.16352 8.45702 5.68771 8.45702 6.11782V6.84362C8.76615 6.89739 9.02156 7.0318 9.22316 7.24685C9.43823 7.44846 9.57263 7.70384 9.62636 8.01298H10.3522C10.8092 8.01298 11.3334 7.67023 11.9248 6.98476C12.5296 6.29927 13.1613 5.95652 13.8199 5.95652C14.4247 5.95652 14.9288 6.1783 15.332 6.62185C15.7487 7.05196 15.957 7.58287 15.957 8.21459C15.957 8.85973 15.7487 9.39741 15.332 9.82747C14.9153 10.2576 14.4113 10.4727 13.8199 10.4727C13.2554 10.4727 12.7783 10.2777 12.3884 9.88801C11.9987 9.49821 11.6358 9.16221 11.2998 8.87993C10.9637 8.59766 10.6479 8.45653 10.3522 8.45653H9.62636C9.51882 9.10166 9.12909 9.49147 8.45702 9.62587V10.3517C8.45702 10.7549 8.79302 11.2724 9.46509 11.9041C10.1371 12.5358 10.4732 13.1742 10.4732 13.8194C10.4732 14.4242 10.2514 14.9283 9.80783 15.3315C9.37769 15.7482 8.84682 15.9565 8.21508 15.9565Z" fill="white"/>
</svg>
