<svg width="23" height="25" viewBox="0 0 23 25" fill="none" xmlns="http://www.w3.org/2000/svg">
<path d="M17.8765 11.6127H16.8881C16.5357 11.6127 16.2435 11.3205 16.2435 10.9682V10.3236C16.2435 7.4702 15.2294 6.45605 12.3761 6.45605H11.7315C11.3791 6.45605 11.0869 6.16384 11.0869 5.81146V4.82309C11.0869 2.09005 12.3073 0.869629 15.0403 0.869629H17.8765C20.6095 0.869629 21.8299 2.09005 21.8299 4.82309V7.65928C21.8299 10.3923 20.6095 11.6127 17.8765 11.6127ZM17.2848 10.3236H17.8765C19.8961 10.3236 20.5407 9.67898 20.5407 7.65928V4.82309C20.5407 2.80339 19.8961 2.1588 17.8765 2.1588H15.0403C13.0206 2.1588 12.3761 2.80339 12.3761 4.82309V5.41479C15.8799 6.05938 16.8881 7.06758 17.2848 10.3236Z" fill="#A4A4A4" stroke="#A4A4A4" stroke-width="0.5"/>
<path d="M7.20621 20.7037H11.6687C15.3874 20.7037 16.8749 19.2162 16.8749 15.4974V11.0349C16.8749 7.31612 15.3874 5.82861 11.6687 5.82861H7.20621C3.48749 5.82861 2 7.31612 2 11.0349V15.4974C2 19.2162 3.48749 20.7037 7.20621 20.7037Z" stroke="white" stroke-width="2" stroke-linecap="round" stroke-linejoin="round"/>
</svg>
