<svg width="14" height="14" viewBox="0 0 14 14" fill="none" xmlns="http://www.w3.org/2000/svg">
<path d="M0.62939 5.65166C-0.388369 6.12592 -0.108117 7.4968 1.0129 7.5042L6.38931 7.52646C6.47785 7.52646 6.49994 7.54872 6.49994 7.63762L6.51467 12.9952C6.5221 14.1661 7.9086 14.3735 8.40269 13.2991L13.8529 1.52413C14.3544 0.427409 13.4989 -0.350671 12.4147 0.160638L0.62939 5.65166ZM1.91265 6.34821C1.88315 6.34821 1.87578 6.31855 1.91265 6.30376L12.5106 1.42779C12.5622 1.40557 12.5844 1.42038 12.5622 1.47967L7.67996 12.1208C7.67259 12.1505 7.64308 12.1431 7.64308 12.1134L7.67996 6.87438C7.67996 6.54828 7.45132 6.31855 7.11947 6.31855L1.91265 6.34821Z" fill="#B8B8B8"/>
</svg>
