<svg width="18" height="19" viewBox="0 0 18 19" fill="none" xmlns="http://www.w3.org/2000/svg">
<path d="M14.3297 18.7858H17.9444V11.368C17.9444 7.70447 15.7648 6.45494 13.7479 6.45494C11.8828 6.45494 10.6159 7.71546 10.2661 8.45384V6.79205H6.78982V18.7858H10.4045V12.2832C10.4045 10.5494 11.4559 9.70616 12.5285 9.70616C13.543 9.70616 14.3297 10.3022 14.3297 12.235V18.7858Z" fill="#2A2A2B"/>
<path d="M0.727051 2.95382C0.727051 4.20597 1.66007 5.12101 2.81097 5.12101C3.96205 5.12101 4.89506 4.20597 4.89506 2.95382C4.89506 1.70185 3.96205 0.785767 2.81097 0.785767C1.66007 0.785767 0.727051 1.70185 0.727051 2.95382Z" fill="#2A2A2B"/>
<path d="M1.00372 18.7765H4.61823V6.7828H1.00372V18.7765Z" fill="#2A2A2B"/>
</svg>
