<svg width="23" height="19" viewBox="0 0 23 19" fill="none" xmlns="http://www.w3.org/2000/svg">
<path d="M1.26836 9.15855C3.46057 7.93382 5.90767 6.91165 8.19413 5.88425C12.1277 4.20144 16.0769 2.54781 20.066 1.00829C20.8421 0.745971 22.2367 0.489437 22.3734 1.656C22.2985 3.30726 21.9905 4.94885 21.7792 6.59045C21.243 10.2005 20.6232 13.7981 20.0188 17.3962C19.8106 18.5947 18.3303 19.2152 17.3831 18.4482C15.1068 16.8887 12.813 15.3444 10.5658 13.7488C9.82962 12.9901 10.5122 11.9007 11.1697 11.3589C13.0445 9.48499 15.0328 7.89285 16.8096 5.92205C17.2889 4.74811 15.8728 5.73747 15.4057 6.04061C12.839 7.83452 10.3352 9.73795 7.62912 11.3146C6.24687 12.0863 4.63583 11.4268 3.25421 10.9961C2.0154 10.4759 0.200224 9.95177 1.26836 9.15855Z" fill="#2A2A2B"/>
</svg>
