<svg width="19" height="22" viewBox="0 0 19 22" fill="none" xmlns="http://www.w3.org/2000/svg">
<path fill-rule="evenodd" clip-rule="evenodd" d="M7.78489 8.95332V8.11595C7.49327 8.0748 7.19923 8.05343 6.9047 8.05204C3.30315 8.05204 0.373047 10.9728 0.373047 14.5622C0.373047 16.7641 1.4772 18.7132 3.16155 19.8918C2.03374 18.6897 1.40673 17.1052 1.40764 15.4596C1.40764 11.9212 4.25435 9.03593 7.78489 8.95332Z" fill="#2A2A2B"/>
<path fill-rule="evenodd" clip-rule="evenodd" d="M7.93829 18.4324C9.54519 18.4324 10.8561 17.1584 10.9158 15.5707L10.9212 1.39736H13.5193C13.4638 1.10143 13.4357 0.801048 13.4354 0.5H9.88711L9.88119 14.6739C9.822 16.2611 8.51062 17.5346 6.90422 17.5346C6.42192 17.5348 5.94689 17.4177 5.52032 17.1934C5.79574 17.5763 6.15871 17.8885 6.57917 18.1039C6.99963 18.3194 7.46551 18.432 7.93829 18.4324ZM18.373 6.20814V5.42042C17.4182 5.42131 16.4839 5.1445 15.6847 4.62387C16.3854 5.42798 17.3284 5.98384 18.373 6.20814Z" fill="#2A2A2B"/>
<path fill-rule="evenodd" clip-rule="evenodd" d="M13.4352 14.5617V7.37453C14.8735 8.40539 16.6008 8.95897 18.3724 8.95682L18.373 6.20814C17.3284 5.98384 16.3854 5.42798 15.6847 4.62387C15.1236 4.26018 14.6418 3.78634 14.2697 3.2319C13.8976 2.67746 13.6424 2.05302 13.5193 1.39736H10.9212L10.9158 15.5707C10.8561 17.1584 9.54519 18.4324 7.93829 18.4324C7.46551 18.432 6.99963 18.3194 6.57917 18.1039C6.15871 17.8885 5.79574 17.5763 5.52032 17.1934C5.03847 16.9416 4.63465 16.5634 4.35282 16.0996C4.07099 15.6358 3.92172 15.104 3.92119 14.5617C3.92208 13.7736 4.23663 13.018 4.79586 12.4607C5.35503 11.9033 6.11324 11.5898 6.90408 11.5889C7.21096 11.5889 7.50549 11.6391 7.78422 11.7266L7.78489 8.95332C4.25435 9.03593 1.40764 11.9212 1.40764 15.4596C1.40764 17.1707 2.07467 18.7285 3.16155 19.8918C4.25726 20.6606 5.56412 21.0726 6.90408 21.0714C10.5057 21.0714 13.4352 18.1512 13.4352 14.5617Z" fill="#2A2A2B"/>
</svg>
