<svg width="15" height="19" viewBox="0 0 15 19" fill="none" xmlns="http://www.w3.org/2000/svg">
<path d="M1.09961 17.5H13.8996" stroke="#A4A4A4" stroke-width="1.5" stroke-linecap="round"/>
<path d="M9.01005 2.83034L9.60325 2.23714C10.5861 1.25429 12.1796 1.25429 13.1625 2.23714C14.1453 3.21999 14.1453 4.8135 13.1625 5.79636L12.5693 6.38956M9.01005 2.83034C9.01005 2.83034 9.0842 4.0909 10.1965 5.20315C11.3087 6.31541 12.5693 6.38956 12.5693 6.38956M9.01005 2.83034L3.55646 8.28393C3.18707 8.65332 3.00238 8.83801 2.84354 9.04165C2.65618 9.28188 2.49554 9.5418 2.36447 9.81682C2.25336 10.05 2.17076 10.2977 2.00557 10.7933L1.30557 12.8933M12.5693 6.38956L7.11567 11.8432C6.74629 12.2125 6.5616 12.3972 6.35796 12.5561C6.11773 12.7434 5.85781 12.9041 5.58279 13.0351C5.34965 13.1462 5.10186 13.2288 4.60628 13.394L2.50628 14.094M2.50628 14.094L1.99295 14.2652C1.74907 14.3464 1.48019 14.283 1.29841 14.1012C1.11664 13.9194 1.05316 13.6505 1.13446 13.4067L1.30557 12.8933M2.50628 14.094L1.30557 12.8933" stroke="white" stroke-width="1.5"/>
</svg>
