<svg width="17" height="15" viewBox="0 0 17 15" fill="none" xmlns="http://www.w3.org/2000/svg">
<path d="M14.125 14.0626C15.1606 14.0626 16.0001 13.2231 16.0001 12.1875C16.0001 11.152 15.1606 10.3125 14.125 10.3125C13.0895 10.3125 12.25 11.152 12.25 12.1875C12.25 13.2231 13.0895 14.0626 14.125 14.0626Z" stroke="white" stroke-linecap="round" stroke-linejoin="round"/>
<path d="M1.31255 0.9375H11.6253C12.2883 0.9375 12.9242 1.2009 13.3931 1.66975C13.8619 2.1386 14.1253 2.7745 14.1253 3.43756C14.1253 4.10062 13.8619 4.73652 13.3931 5.20537C12.9242 5.67422 12.2883 5.93762 11.6253 5.93762H4.12508C3.29625 5.93762 2.50138 6.26687 1.91531 6.85293C1.32925 7.439 1 8.23387 1 9.06269C1 9.89152 1.32925 10.6864 1.91531 11.2725C2.50138 11.8585 3.29625 12.1878 4.12508 12.1878H12.2503" stroke="white" stroke-linecap="round" stroke-linejoin="round"/>
</svg>
