<svg width="21" height="19" viewBox="0 0 21 19" fill="none" xmlns="http://www.w3.org/2000/svg">
<g clip-path="url(#clip0_238_2001)">
<path d="M2.49023 15.1592L3.28125 16.5068L10.2441 13.0107L17.207 16.5068L17.998 15.1592L11.0352 11.6631V3.42089H9.46289V11.6631L2.49023 15.1592ZM0.0195312 16.5557C0.0195312 16.9561 0.185547 17.249 0.537109 17.4443L2.49023 18.5869C2.74414 18.7432 2.91992 18.7725 3.26172 18.5771L5.16602 17.4736C5.51758 17.2783 5.58594 17.1123 5.57617 16.79L5.58594 14.5244C5.58594 14.1338 5.41016 13.8506 5.07812 13.6553L3.11523 12.5127C2.86133 12.376 2.64648 12.3271 2.31445 12.5127L0.380859 13.6357C0.0488281 13.8213 0 14.0166 0 14.29L0.0195312 16.5557ZM14.8535 16.7998C14.8438 17.1221 14.9121 17.2881 15.2637 17.4834L17.168 18.5869C17.5098 18.7822 17.6855 18.7529 17.9395 18.5967L19.8926 17.4541C20.2441 17.2588 20.4102 16.9658 20.4102 16.5654L20.4297 14.2998C20.4297 14.0264 20.3809 13.8311 20.0488 13.6455L18.1152 12.5225C17.7832 12.3369 17.5684 12.3857 17.3145 12.5225L15.3516 13.665C15.0195 13.8603 14.8438 14.1435 14.8438 14.5342L14.8535 16.7998ZM7.75391 5.09082L9.72656 6.22363C10.0586 6.40918 10.3809 6.40918 10.7129 6.22363L12.6855 5.09082C12.959 4.93457 13.0762 4.78808 13.0762 4.38769V2.18066C13.0762 1.79003 12.959 1.65332 12.7051 1.50683L10.7324 0.383789C10.3809 0.188477 10.0488 0.188477 9.70703 0.383789L7.73438 1.50683C7.49023 1.64355 7.35352 1.79003 7.35352 2.18066V4.38769C7.35352 4.78808 7.5 4.94433 7.75391 5.09082Z" fill="white"/>
</g>
<defs>
<clipPath id="clip0_238_2001">
<rect width="20.791" height="18.5254" fill="white" transform="translate(0 0.237305)"/>
</clipPath>
</defs>
</svg>
