<svg width="27" height="22" viewBox="0 0 27 22" fill="none" xmlns="http://www.w3.org/2000/svg">
<circle cx="9.75" cy="8.2236" r="2.25" stroke="#C4C4C4" stroke-width="2.25"/>
<path d="M13.5 14.2236C13.5 15.4662 13.5 16.4736 9.75 16.4736C6 16.4736 6 15.4662 6 14.2236C6 12.981 7.67893 11.9736 9.75 11.9736C11.8211 11.9736 13.5 12.981 13.5 14.2236Z" stroke="#C4C4C4" stroke-width="2.25"/>
<path opacity="0.5" d="M1.5 11.0736C1.5 6.54812 1.5 4.28538 2.90589 2.87949C4.31178 1.4736 6.57452 1.4736 11.1 1.4736H15.9C20.4255 1.4736 22.6882 1.4736 24.0941 2.87949C25.5 4.28538 25.5 6.54812 25.5 11.0736C25.5 15.5991 25.5 17.8618 24.0941 19.2677C22.6882 20.6736 20.4255 20.6736 15.9 20.6736H11.1C6.57452 20.6736 4.31178 20.6736 2.90589 19.2677C1.5 17.8618 1.5 15.5991 1.5 11.0736Z" stroke="#C4C4C4" stroke-width="2.25"/>
<path d="M21.9004 11.0734H17.1004" stroke="#C4C4C4" stroke-width="1.5" stroke-linecap="round"/>
<path d="M21.9004 7.47379H15.9004" stroke="#C4C4C4" stroke-width="1.5" stroke-linecap="round"/>
<path opacity="0.9" d="M21.9004 14.6735H18.3004" stroke="#C4C4C4" stroke-width="1.5" stroke-linecap="round"/>
</svg>
