<svg width="18" height="18" viewBox="0 0 18 18" fill="none" xmlns="http://www.w3.org/2000/svg">
<path d="M15.6505 9.59239L16.0646 8.04673C16.5481 6.24246 16.7898 5.34033 16.6078 4.55962C16.4641 3.94319 16.1408 3.38321 15.6788 2.95052C15.0937 2.40252 14.1915 2.16079 12.3873 1.67734C10.583 1.19389 9.68088 0.952162 8.90017 1.1342C8.28373 1.27793 7.72376 1.60123 7.29107 2.06321C6.82188 2.56416 6.5772 3.29752 6.2131 4.6305C6.15195 4.85439 6.08743 5.0952 6.0179 5.35466L6.01789 5.35471L5.60373 6.90037C5.12028 8.70463 4.87855 9.60677 5.06059 10.3875C5.20432 11.0039 5.52762 11.5639 5.9896 11.9966C6.5747 12.5446 7.47683 12.7863 9.28109 13.2698L9.2811 13.2698L9.28112 13.2698C10.9074 13.7055 11.8007 13.9449 12.5328 13.8546C12.613 13.8447 12.6912 13.8309 12.7682 13.8129C13.3846 13.6692 13.9446 13.3459 14.3773 12.8839C14.9253 12.2988 15.167 11.3967 15.6505 9.5924L15.6505 9.59239Z" stroke="white" stroke-width="1.5"/>
<path opacity="0.5" d="M12.5333 13.8543C12.3665 14.3652 12.0732 14.8273 11.6788 15.1967C11.0937 15.7447 10.1915 15.9864 8.38728 16.4699C6.58301 16.9533 5.68088 17.195 4.90017 17.013C4.28373 16.8693 3.72376 16.546 3.29107 16.084C2.74307 15.4989 2.50134 14.5968 2.01789 12.7925L1.60373 11.2468C1.12028 9.44257 0.878554 8.54044 1.06059 7.75973C1.20432 7.1433 1.52762 6.58332 1.98961 6.15063C2.5747 5.60263 3.47683 5.3609 5.2811 4.87745C5.62245 4.78599 5.9315 4.70318 6.21356 4.63025" stroke="white" stroke-width="1.5"/>
</svg>
