<svg width="25" height="23" viewBox="0 0 25 23" fill="none" xmlns="http://www.w3.org/2000/svg">
<path d="M8.93217 19.1729L15.3169 20.0564L23.1387 15.2757C23.1387 15.2757 22.1708 12.9531 21.6741 11.7653C21.1774 10.5775 20.3744 8.94594 20.3744 8.94594C20.3744 8.94594 20.8122 7.75421 21.0105 6.32099C21.2402 4.65413 21.038 4.23006 21.038 4.23006L16.8738 2.33153C16.8738 2.33153 16.2573 2.78309 15.7036 3.80598C15.15 4.82887 14.9576 5.24313 14.9576 5.24313C14.9576 5.24313 13.5479 5.13318 12.9118 5.13318C12.2757 5.13318 11.2253 5.27061 11.2253 5.27061C11.2253 5.27061 10.2299 3.44669 9.70572 2.81058C9.18151 2.17446 8.36084 1.55798 8.36084 1.55798C8.36084 1.55798 4.65803 3.40154 4.49115 4.72678C4.32427 6.05201 4.48133 6.98459 4.59324 7.56377C4.70319 8.14491 5.03499 8.97343 5.03499 8.97343C5.03499 8.97343 4.70319 9.47015 4.26144 10.6049C3.81969 11.7397 3.32101 13.12 2.96172 13.7011C2.60244 14.2822 1.63452 15.6075 1.63452 15.6075L8.93217 19.1729Z" fill="#FF6011"/>
<path d="M6.15006 0.0835304C5.75347 0.193476 5.28424 1.0966 4.86016 2.58872C4.63634 3.37601 4.47339 4.81905 4.47339 4.81905C4.47339 4.81905 5.78096 3.80598 6.94324 3.3819C8.10552 2.95783 9.57801 2.66333 9.57801 2.66333C9.57801 2.66333 8.90067 1.88978 8.10356 1.18888C7.41444 0.582213 6.49168 -0.0107087 6.15006 0.0835304Z" fill="#575A5B"/>
<path d="M19.6379 0.230776C19.3513 0.154207 18.3637 0.65878 17.6668 1.31845C16.9698 1.97813 16.3022 2.88518 16.3022 2.88518C16.3022 2.88518 17.7021 2.94015 18.9743 3.58608C20.2465 4.23005 21.1124 4.80138 21.1124 4.80138C21.1124 4.80138 21.0849 3.4781 20.7982 2.33153C20.5037 1.15157 20.117 0.360355 19.6379 0.230776Z" fill="#575A5B"/>
<path d="M6.55627 1.81516C6.4267 1.88977 5.75131 3.21108 5.8004 5.18814C5.8377 6.66259 6.1322 7.84058 6.20484 7.84058C6.24214 7.84058 6.95875 6.99047 7.71659 6.45841C8.47443 5.92635 9.44824 5.63578 9.47573 5.57099C9.5307 5.44141 8.91422 4.15544 8.0857 3.06972C7.25718 1.98401 6.68389 1.74252 6.55627 1.81516Z" fill="#FF9411"/>
<path d="M16.8382 5.72215C16.797 5.53367 17.3173 3.93553 17.8513 3.08738C18.3853 2.23923 19.1412 1.39304 19.3434 1.42838C19.5456 1.46568 20.3388 3.3269 20.0797 5.02125C19.8225 6.71559 19.4907 7.69332 19.3984 7.71099C19.3474 7.72081 18.8016 7.07291 18.1262 6.55067C17.5647 6.11481 16.8539 5.79676 16.8382 5.72215Z" fill="#FF9411"/>
<path d="M0.862752 15.7272C0.833302 15.582 1.61863 15.4504 2.15265 15.1932C2.68667 14.936 3.79202 14.4373 5.48833 14.6396C7.18267 14.8418 8.03475 15.3523 9.24808 16.169C10.4634 16.9897 10.9994 18.9137 10.9994 18.9137L13.7814 19.5027C13.7814 19.5027 14.7493 17.3372 15.458 16.6657C16.0529 16.1003 17.657 14.828 19.7145 14.6396C21.723 14.455 22.5338 14.8968 23.2151 15.1559C23.6863 15.3346 24.0986 15.4328 24.1555 15.58C24.2105 15.7272 23.3447 16.3162 23.3447 16.3162C23.3447 16.3162 24.1555 16.4458 24.1732 16.5558C24.2007 16.7207 23.5646 17.0898 23.1228 17.3666C22.6811 17.6434 19.5889 19.2259 18.4423 19.8168C17.8337 20.131 15.4011 21.0321 15.034 21.0145C14.6649 20.9968 10.3534 20.7926 10.0589 20.7749C9.76443 20.7573 6.8705 19.7422 5.37838 19.1709C3.7233 18.5387 0.756733 17.0348 0.827412 16.758C0.864715 16.6107 1.87779 16.5008 1.87779 16.5008C1.87779 16.5008 0.898092 15.9118 0.862752 15.7272Z" fill="#DFDFDF"/>
<path d="M12.5247 22.0668C15.8565 22.2298 15.988 19.432 15.6386 18.2344C15.2891 17.0368 15.1418 17.0368 15.1418 17.0368C15.1418 17.0368 14.4331 17.8575 14.0738 18.8804C13.9619 19.2004 10.9973 18.9177 10.9973 18.9177C10.9973 18.9177 10.85 18.3287 10.5732 17.7927C10.3906 17.4393 10.1118 17.0643 10.1118 17.0643C10.1118 17.0643 9.6151 17.7377 9.52282 18.6389C9.43055 19.542 9.13605 21.8999 12.5247 22.0668Z" fill="#FEE9C9"/>
<path d="M10.2594 20.2507C10.1121 20.4195 10.5087 20.8456 10.7011 21.038C10.8955 21.2324 11.3097 21.4994 11.5571 21.521C11.8614 21.5484 12.5938 20.9123 12.5938 20.9123C12.5938 20.9123 13.3437 21.6073 13.76 21.5936C14.1742 21.5799 14.6808 20.9948 14.8614 20.8004C14.9713 20.6807 15.1893 20.4568 15.0126 20.2468C14.8614 20.0661 14.6317 20.2389 14.4452 20.4117C14.0604 20.7729 13.7776 21.038 13.7266 21.0478C13.6441 21.0615 12.6487 20.1486 12.6487 20.1486C12.6487 20.1486 11.6946 20.8672 11.5159 20.8672C11.4079 20.8672 11.0761 20.5668 10.8111 20.3135C10.6403 20.1565 10.4537 20.0288 10.2594 20.2507Z" fill="#4A4A4C"/>
<path d="M12.6369 18.1637C11.9183 18.1696 10.7442 18.2049 10.8129 18.9922C10.8817 19.7795 11.2684 20.4981 12.6918 20.4843C14.1152 20.4706 14.4745 19.7245 14.502 18.9785C14.5177 18.5367 14.3508 18.1499 12.6369 18.1637Z" fill="#2D2A25"/>
<path d="M8.94595 17.5983C8.88116 17.7927 8.53169 17.8476 8.18615 17.667C7.8406 17.4864 7.20449 17.1133 6.66654 16.866C6.21498 16.6579 5.71237 16.5342 5.7536 16.2436C5.79483 15.953 6.37597 16.1611 6.85895 16.3123C7.34192 16.4635 8.33732 16.8797 8.54543 17.0034C8.75355 17.1271 9.04412 17.3077 8.94595 17.5983Z" fill="white"/>
<path d="M7.03954 17.8182C6.49767 17.6474 5.54349 17.3057 5.49245 17.6533C5.45122 17.9301 6.27974 18.1244 6.81965 18.4268C7.28888 18.6899 8.12526 19.1414 8.28428 18.6349C8.42172 18.1912 7.56375 17.9851 7.03954 17.8182Z" fill="white"/>
<path d="M16.4221 17.6395C16.5752 17.985 17.0896 17.6375 17.6099 17.3764C18.2185 17.0721 19.0195 16.7266 19.2551 16.6578C19.4907 16.5891 19.6694 16.4929 19.6281 16.3398C19.5869 16.1886 19.2158 16.1709 18.9371 16.2298C18.5365 16.3123 17.8867 16.4517 17.3193 16.7403C16.9639 16.9229 16.2159 17.1683 16.4221 17.6395Z" fill="white"/>
<path d="M17.0446 18.7174C17.1663 19.1238 18.1362 18.6212 18.6054 18.4268C19.0747 18.2324 20.0014 17.9301 19.9189 17.6807C19.8247 17.4 18.6467 17.6768 18.3149 17.7632C17.8456 17.8869 16.8797 18.1637 17.0446 18.7174Z" fill="white"/>
<path d="M16.7539 13.0375C16.5596 13.6186 16.0255 14.2587 15.413 14.1291C14.8004 13.9995 14.557 13.3693 14.6807 12.4701C14.7965 11.6317 15.4778 11.3039 16.0903 11.4334C16.7029 11.563 17.0229 12.2325 16.7539 13.0375Z" fill="#2D2A25"/>
<path d="M10.4575 12.5545C10.5753 13.1553 10.5105 13.8621 9.89988 14.0604C9.28929 14.2567 8.56089 13.9838 8.32333 13.1082C8.06025 12.1383 8.45095 11.6966 9.06154 11.5002C9.6741 11.3019 10.2925 11.7221 10.4575 12.5545Z" fill="#2D2A25"/>
<path d="M9.36201 11.8202C9.53085 11.9891 9.43072 12.2895 9.2658 12.4426C9.16567 12.5349 8.85154 12.7469 8.64343 12.4701C8.49029 12.2659 8.6022 12.0421 8.78086 11.8615C8.95953 11.6828 9.20887 11.6691 9.36201 11.8202Z" fill="#DFDFDF"/>
<path d="M15.6486 11.8615C15.841 12.0009 15.7743 12.3445 15.6349 12.5212C15.5504 12.6291 15.2559 12.9472 15.0262 12.69C14.9025 12.5506 14.9163 12.2325 15.0635 12.0264C15.2127 11.8222 15.4739 11.7378 15.6486 11.8615Z" fill="#DFDFDF"/>
</svg>
