<svg width="63" height="34" viewBox="0 0 63 34" fill="none" xmlns="http://www.w3.org/2000/svg">
<path d="M35.9303 0.946289C36.0913 0.946289 36.1718 0.988081 36.1718 1.07166C37.4351 0.988081 38.364 0.946289 38.9585 0.946289H47.7644C50.9598 0.946289 53.1024 1.22689 54.1923 1.78809C54.9478 2.00302 55.4123 2.2478 55.5857 2.52243C55.499 2.66571 55.4556 2.82691 55.4556 3.00602C56.7685 3.61498 57.9017 4.95231 58.8554 7.01801C59.4499 8.73744 59.7471 10.033 59.7471 10.9046C59.7471 11.2031 59.6233 12.1763 59.3756 13.8241C59.871 13.8241 60.1187 13.9077 60.1187 14.0748C59.165 16.5943 57.654 18.457 55.5857 19.663L53.6907 20.3794V20.5048C53.8889 20.6839 54.3533 21.3346 55.0841 22.457C54.8116 22.6122 54.601 22.6899 54.4524 22.6899L54.5825 22.9406V23.066C53.0591 23.1376 52.0497 23.1735 51.5543 23.1735V23.2988C51.579 23.466 51.6657 23.5496 51.8144 23.5496H54.954L56.0873 24.875C56.9171 24.875 57.462 25.2809 57.7221 26.0929V26.2183C57.301 26.2183 57.0905 26.3019 57.0905 26.469C59.7038 30.087 61.0104 31.9497 61.0104 32.0572C60.676 32.1169 60.5088 32.1945 60.5088 32.29C61.0909 33.1378 61.382 33.6273 61.382 33.7587L61.1405 33.8661H54.824C54.118 33.8661 52.9848 33.8303 51.4242 33.7587C50.7554 32.8393 50.421 32.3497 50.421 32.29C50.5573 32.2064 50.7678 32.1646 51.0527 32.1646V32.0572C48.6128 28.487 47.3928 26.5407 47.3928 26.2183H47.8944V25.9675C47.6343 25.1675 47.1327 24.7675 46.3896 24.7675C45.7332 23.9556 45.2254 23.5496 44.8662 23.5496H42.5997V24.1585C42.5997 24.2302 42.5626 24.266 42.4883 24.266L42.5997 24.5168V30.1049H43.9931C44.1665 30.1288 44.2532 30.2124 44.2532 30.3556C44.2532 30.5109 44.1665 30.5885 43.9931 30.5885H42.5997C42.5997 30.9944 42.5626 31.1974 42.4883 31.1974L42.5997 31.4482V32.899C42.5997 33.0781 42.5626 33.2393 42.4883 33.3825C42.5626 33.5378 42.5997 33.6631 42.5997 33.7587L42.3582 33.8661H37.1936C36.3514 33.8661 35.0881 33.8303 33.4037 33.7587V30.8392C33.4284 30.6721 33.5151 30.5885 33.6638 30.5885H35.0385V30.2303H33.6638C33.4904 30.2303 33.4037 30.1467 33.4037 29.9795V23.6749L32.772 23.5496H30.264C30.0906 23.5496 30.0039 23.466 30.0039 23.2988L30.264 23.1735C32.3571 23.1376 33.4037 23.06 33.4037 22.9406C33.4037 22.6899 33.4904 22.5645 33.6638 22.5645C33.8248 22.6481 33.9486 22.6899 34.0353 22.6899L34.1654 22.457V14.1823C34.1901 14.0271 34.2706 13.9494 34.4069 13.9494H35.0385L35.1686 13.2151C35.0076 13.1315 34.8837 13.0897 34.797 13.0897C34.0539 13.1733 33.6328 13.2151 33.5337 13.2151C33.5337 12.5703 33.1993 12.2479 32.5305 12.2479V11.639L33.4037 11.1554V3.00602L34.1654 2.52243V1.3045C34.1901 1.14928 34.2706 1.07166 34.4069 1.07166H35.2986C35.5835 1.07166 35.794 1.02987 35.9303 0.946289ZM42.5997 7.39414C42.5997 7.46578 42.5626 7.5016 42.4883 7.5016C42.5626 8.31355 42.5997 8.92251 42.5997 9.32849V10.0628C42.5997 10.1464 42.5626 10.1882 42.4883 10.1882L42.5997 10.421V10.5464C42.5997 11.2748 42.2653 11.639 41.5965 11.639V12.3733C42.2653 12.4211 42.5997 12.5405 42.5997 12.7315H42.4883C42.5626 12.8867 42.5997 13.0062 42.5997 13.0897H45.6279V13.3405H44.4947L43.9931 13.9494H43.3614V15.1674H47.2628C48.9596 15.1674 50.099 14.7614 50.6811 13.9494C51.5109 13.9494 51.9258 13.6629 51.9258 13.0897H50.7926L50.5511 12.9823C50.7121 12.4211 50.7926 11.9315 50.7926 11.5136V10.5464C50.7926 9.69864 50.0371 8.76729 48.5261 7.75235C48.3403 7.58518 47.5043 7.46578 46.0181 7.39414L45.758 7.5016L45.4979 7.39414C45.4236 7.39414 45.3864 7.42996 45.3864 7.5016C45.0892 7.42996 44.9158 7.39414 44.8662 7.39414C44.1355 7.46578 43.7206 7.5016 43.6215 7.5016C43.1509 7.42996 42.8103 7.39414 42.5997 7.39414ZM35.4287 13.2151V13.3405H35.6702V13.2151H35.4287ZM36.0603 13.2151V13.3405H36.3018V13.2151H36.0603ZM59.8772 13.0897H60.2487V13.3405H59.8772V13.0897ZM60.7503 13.0897H61.1405V13.3405H60.7503V13.0897ZM61.382 13.0897H62.5152V13.3405H61.382V13.0897ZM42.9899 22.6899L42.7298 22.5645C42.7298 22.7317 42.6493 22.8152 42.4883 22.8152C42.5626 22.9705 42.5997 23.0899 42.5997 23.1735C43.4419 23.1018 44.0736 23.066 44.4947 23.066H44.6247L44.8662 23.1735L45.3864 22.3316C45.052 21.6033 44.8415 21.2391 44.7548 21.2391H43.6215C43.4481 21.2391 43.3181 21.7227 43.2314 22.6899H42.9899ZM39.2 23.1735V23.2988C39.2247 23.466 39.3114 23.5496 39.4601 23.5496H41.7266C41.8876 23.5496 41.9681 23.466 41.9681 23.2988V23.1735H39.2ZM49.2878 32.29H49.5293C49.5293 32.4213 49.616 32.5825 49.7894 32.7736V33.0243C49.6779 33.0124 49.5107 32.8094 49.2878 32.4154V32.29ZM50.1609 33.5079H50.291V33.7587H50.1609V33.5079Z" fill="white"/>
<path d="M17.314 0.964355H24.7266C24.8752 0.988236 25.5502 2.68378 26.7516 6.05099L27.1232 6.28383H28.3865C28.6094 6.451 29.6126 9.04208 31.3961 14.0571L32.2878 16.475L32.0277 16.6004H29.1296V16.7258C29.1296 17.1556 29.3835 17.3944 29.8913 17.4422L30.653 17.3347H30.7644C31.1236 17.5138 32.3002 20.5825 34.2942 26.5408L34.0341 26.6662C33.7493 26.5826 33.5821 26.5408 33.5325 26.5408C33.4582 26.5408 33.4211 26.5826 33.4211 26.6662L32.5293 26.5408H31.8977C31.7367 26.5647 31.6562 26.6483 31.6562 26.7916C32.102 28.0811 32.3931 28.7259 32.5293 28.7259H35.0559C35.2169 28.7498 35.2974 28.8334 35.2974 28.9767V29.0841C35.2974 29.2513 35.2169 29.3349 35.0559 29.3349H32.2878C32.0897 29.3349 31.9225 29.2931 31.7862 29.2095C31.6376 29.2931 31.4642 29.3349 31.266 29.3349H28.628L27.7548 29.2095L27.6248 29.4603C27.6495 29.6155 27.7362 29.6931 27.8849 29.6931H35.4275C35.6752 29.6931 36.2201 31.0304 37.0623 33.7051V33.8305H27.6248C27.4885 33.8305 26.9869 32.4513 26.12 29.6931H19.4505C19.2647 29.6931 19.0975 29.6573 18.9489 29.5856C18.8003 29.6573 18.6331 29.6931 18.4473 29.6931C18.2739 29.6931 18.1872 29.6155 18.1872 29.4603C18.2739 29.4603 18.3172 29.4185 18.3172 29.3349C19.8654 29.2513 20.9987 29.2095 21.717 29.2095H25.7484C25.9094 29.2095 25.9899 29.1319 25.9899 28.9767L25.6184 28.7259H23.0918C22.9927 28.7259 22.745 28.3617 22.3486 27.6334H21.3454V27.7587C21.3454 27.8304 21.3826 28.1528 21.4569 28.7259H20.3237C20.237 28.7259 19.9459 28.3617 19.4505 27.6334H12.1494C11.6664 27.6334 11.3753 27.9558 11.2762 28.6005L11.5177 28.7259H13.6542C13.8276 28.7498 13.9143 28.8334 13.9143 28.9767V29.0841L12.2794 33.8305H2.71182V33.7051L4.47672 28.8513L0.705403 28.7259C0.532009 28.7259 0.445312 28.6483 0.445312 28.4931C0.866411 27.1916 1.16366 26.5408 1.33705 26.5408H4.73681C5.34368 26.5408 5.75859 25.8542 5.98152 24.4811C6.13015 24.4691 6.55125 23.4602 7.24482 21.4542L8.63816 17.5676V17.4422H7.37487C7.20147 16.6899 7.17051 16.4272 7.28198 16.6541C7.17051 16.5347 8.29138 16.475 10.6446 16.475C10.7684 16.4511 11.4372 14.7974 12.651 11.5138L14.4159 6.53458V6.4092H13.7842V6.28383C14.4159 4.21813 15.0909 2.48079 15.8092 1.07182L17.314 0.964355ZM21.3454 11.5138C20.4413 14.9048 19.8097 16.6004 19.4505 16.6004H16.5523C16.3913 16.6004 16.2675 16.8452 16.1808 17.3347H16.9425C17.4379 17.3825 17.6856 17.5019 17.6856 17.6929C16.8434 20.1885 16.4223 21.484 16.4223 21.5796L17.0539 21.687L17.9457 21.5796C18.1067 21.6512 18.2305 21.687 18.3172 21.687L19.0789 21.5796C19.1532 21.5796 19.1904 21.6154 19.1904 21.687L19.8221 21.5796H21.9585C22.0452 21.5796 22.0886 21.6154 22.0886 21.687C22.9308 21.6154 23.3519 21.496 23.3519 21.3288V21.2034C23.0422 20.6661 22.6645 19.6154 22.2186 18.0512C22.2186 17.6332 21.8409 17.3944 21.0854 17.3347C21.0854 17.1317 20.9987 16.9287 20.8253 16.7258C20.8624 16.5586 20.9491 16.475 21.0854 16.475H23.2218C22.8007 14.9944 22.2558 13.3406 21.587 11.5138H21.3454Z" fill="white"/>
</svg>
