<svg width="106" height="26" viewBox="0 0 106 26" fill="none" xmlns="http://www.w3.org/2000/svg">
<path d="M14.2021 4.02539C15.1687 2.95849 15.7095 1.49378 15.6241 0C14.287 0 12.7368 0.781938 11.7554 1.93433C10.9871 2.88725 10.1625 4.38102 10.4611 5.87423C11.8409 6.04521 13.3347 5.17778 14.2021 4.02539Z" fill="#B2B2B2"/>
<path d="M20.2377 8.75934C19.9684 8.91997 17.4268 10.4362 17.4268 13.6696C17.433 13.8702 17.4535 14.0605 17.4769 14.248H17.4758C17.897 17.6146 20.8566 18.8183 20.9102 18.8183C20.9001 18.831 20.8779 18.8968 20.8409 19.0066C20.6694 19.5147 20.1796 20.9657 19.1041 22.4738C18.0662 24.0536 16.9138 25.6465 15.1642 25.6465C14.3619 25.6465 13.8075 25.4018 13.2334 25.1482C12.6165 24.8758 11.9768 24.5933 10.982 24.5933C9.88203 24.5933 9.20284 24.8929 8.56892 25.1725C8.01422 25.4172 7.49418 25.6465 6.75718 25.6465C5.00751 25.6465 3.7702 23.9681 2.67537 22.4031C1.28304 20.3975 0.102727 17.2749 0.0132447 14.248C0.0124244 14.2171 0.0100232 14.186 0.00762802 14.1548C0.00503065 14.121 0.00243232 14.0872 0.00183932 14.0537C-0.0272269 12.418 0.286232 10.8102 1.08242 9.44471C2.20574 7.5383 4.21188 6.244 6.40211 6.20126C7.3602 6.16905 8.25811 6.5491 9.04286 6.88126C9.63288 7.13099 10.1589 7.35365 10.5985 7.35365C10.9983 7.35365 11.5399 7.16236 12.1817 6.93566C13.1152 6.60593 14.2609 6.20126 15.4913 6.20126C16.3872 6.20183 18.7775 6.47197 20.257 8.74769C20.2533 8.75003 20.2468 8.75391 20.2377 8.75934Z" fill="#B2B2B2"/>
<path d="M29 19.4726L33.9378 6.21268H36.416L41.3168 19.4726H38.9496L37.803 16.3287H32.4583L31.3579 19.4726H29ZM33.0501 14.4608H37.2019L35.3896 9.1994C35.3402 9.06378 35.2971 8.94357 35.2601 8.83877C35.2293 8.72781 35.1923 8.59219 35.1491 8.43191H35.1029C35.0536 8.57986 35.0135 8.70932 34.9827 8.82028C34.9519 8.93124 34.9118 9.05762 34.8625 9.1994L33.0501 14.4608Z" fill="#707070"/>
<path d="M43.8238 18.4832H43.7868V23.8279H41.6323V10.0039H43.7868V11.3539H43.8238C44.1998 10.8299 44.656 10.4385 45.1923 10.1796C45.7348 9.91449 46.342 9.78195 47.0139 9.78195C48.2715 9.78195 49.2517 10.1981 49.9544 11.0303C50.6572 11.8625 51.0085 13.0214 51.0085 14.5071C51.0085 16.0605 50.614 17.315 49.825 18.2705C49.0421 19.2199 47.9941 19.6945 46.681 19.6945C46.0707 19.6945 45.5252 19.5928 45.0443 19.3894C44.5697 19.186 44.1628 18.8839 43.8238 18.4832ZM43.759 14.3314V15.4965C43.759 16.1931 43.9902 16.7756 44.4526 17.2441C44.9211 17.7126 45.5098 17.9469 46.2187 17.9469C47.0201 17.9469 47.6489 17.6417 48.105 17.0315C48.5674 16.4212 48.7986 15.5982 48.7986 14.5626C48.7986 13.5577 48.5859 12.8026 48.1605 12.2971C47.7413 11.7854 47.1619 11.5296 46.4221 11.5296C45.6392 11.5296 44.9981 11.7916 44.4988 12.3156C44.0056 12.8396 43.759 13.5115 43.759 14.3314Z" fill="#707070"/>
<path d="M54.0611 18.4832H54.0241V23.8279H51.8696V10.0039H54.0241V11.3539H54.0611C54.4371 10.8299 54.8933 10.4385 55.4296 10.1796C55.9721 9.91449 56.5793 9.78195 57.2513 9.78195C58.5088 9.78195 59.489 10.1981 60.1918 11.0303C60.8945 11.8625 61.2459 13.0214 61.2459 14.5071C61.2459 16.0605 60.8514 17.315 60.0623 18.2705C59.2794 19.2199 58.2314 19.6945 56.9184 19.6945C56.3081 19.6945 55.7625 19.5928 55.2817 19.3894C54.807 19.186 54.4002 18.8839 54.0611 18.4832ZM53.9964 14.3314V15.4965C53.9964 16.1931 54.2276 16.7756 54.6899 17.2441C55.1584 17.7126 55.7471 17.9469 56.456 17.9469C57.2574 17.9469 57.8862 17.6417 58.3424 17.0315C58.8047 16.4212 59.0359 15.5982 59.0359 14.5626C59.0359 13.5577 58.8232 12.8026 58.3979 12.2971C57.9787 11.7854 57.3992 11.5296 56.6595 11.5296C55.8766 11.5296 55.2355 11.7916 54.7361 12.3156C54.243 12.8396 53.9964 13.5115 53.9964 14.3314Z" fill="#707070"/>
<path d="M65.0116 16.9667L66.9257 16.0051C67.2031 16.603 67.5791 17.05 68.0538 17.3459C68.5346 17.6417 69.0956 17.7897 69.7367 17.7897C70.5011 17.7897 71.0898 17.6233 71.5028 17.2904C71.922 16.9575 72.1316 16.4921 72.1316 15.8941C72.1316 15.3146 71.9251 14.8523 71.5121 14.5071C71.0991 14.1619 70.4641 13.8875 69.6072 13.6841C68.2141 13.3574 67.2061 12.895 66.5835 12.2971C65.9609 11.693 65.6496 10.8823 65.6496 9.86517C65.6496 8.65076 66.0719 7.7045 66.9164 7.0264C67.7671 6.34213 68.8151 6 70.0603 6C70.9973 6 71.8234 6.20651 72.5385 6.61954C73.2536 7.0264 73.8269 7.63361 74.2584 8.44116L72.3998 9.34735C72.1162 8.82336 71.7802 8.44733 71.3919 8.21924C71.0035 7.99115 70.5319 7.8771 69.9771 7.8771C69.2867 7.8771 68.7504 8.0343 68.3682 8.34869C67.986 8.65692 67.7949 9.06994 67.7949 9.58777C67.7949 10.1056 67.9706 10.5124 68.3219 10.8083C68.6733 11.1042 69.3052 11.357 70.2175 11.5666C71.623 11.881 72.6494 12.3649 73.2967 13.0183C73.9502 13.6718 74.2769 14.5502 74.2769 15.6537C74.2769 16.8311 73.8854 17.7989 73.1025 18.5572C72.3196 19.3154 71.2039 19.6945 69.7552 19.6945C68.6394 19.6945 67.6654 19.4572 66.8332 18.9825C66.0071 18.5079 65.3999 17.8359 65.0116 16.9667Z" fill="#707070"/>
<path d="M80.159 18.8346C79.8754 19.1058 79.5456 19.3154 79.1696 19.4634C78.7935 19.6113 78.3713 19.6853 77.9027 19.6853C77.0027 19.6853 76.3215 19.4603 75.8592 19.0103C75.403 18.5541 75.1749 17.8883 75.1749 17.013V11.6868H73.5845V10.0039H75.1749V7.68292L77.3202 7.3038V10.0039H79.7336V11.6868H77.3202V16.939C77.3202 17.315 77.3942 17.5924 77.5421 17.7712C77.6962 17.95 77.9274 18.0394 78.2356 18.0394C78.3959 18.0394 78.5531 18.0085 78.7072 17.9469C78.8613 17.8852 79.0247 17.765 79.1973 17.5863L80.159 18.8346Z" fill="#707070"/>
<path d="M84.9684 19.6945C83.4704 19.6945 82.2807 19.2538 81.3992 18.3722C80.5176 17.4907 80.0769 16.304 80.0769 14.8122C80.083 13.3019 80.5515 12.0875 81.4824 11.169C82.4132 10.2443 83.6215 9.78195 85.1071 9.78195C86.599 9.78195 87.7764 10.235 88.6394 11.1412C89.5025 12.0474 89.934 13.2187 89.934 14.655C89.934 16.1222 89.4778 17.3304 88.5654 18.2798C87.6593 19.223 86.4603 19.6945 84.9684 19.6945ZM85.0517 17.9469C85.9024 17.9469 86.562 17.6572 87.0305 17.0777C87.499 16.4921 87.7332 15.703 87.7332 14.7105C87.7332 13.755 87.4959 12.9875 87.0212 12.408C86.5527 11.8224 85.8962 11.5296 85.0517 11.5296C84.2071 11.5296 83.5321 11.8317 83.0266 12.4358C82.5211 13.0337 82.2684 13.8105 82.2684 14.766C82.2684 15.7585 82.518 16.5383 83.0174 17.1054C83.5167 17.6664 84.1948 17.9469 85.0517 17.9469Z" fill="#707070"/>
<path d="M96.1952 11.9365C96.0226 11.8686 95.8438 11.8163 95.6589 11.7793C95.4801 11.7361 95.289 11.7145 95.0856 11.7145C94.4506 11.7145 93.9359 11.9981 93.5413 12.5652C93.1468 13.1324 92.9496 13.8721 92.9496 14.7845V19.4726H90.795V10.0039H92.9496V11.7145H92.9865C93.2085 11.1104 93.5352 10.6481 93.9667 10.3275C94.3982 10.0008 94.8975 9.83743 95.4647 9.83743C95.7051 9.83743 95.927 9.85592 96.1305 9.89291C96.3339 9.9299 96.5527 10.0008 96.787 10.1056L96.1952 11.9365Z" fill="#707070"/>
<path d="M105.082 15.2653H98.545C98.5635 16.1777 98.8101 16.865 99.2847 17.3274C99.7656 17.7835 100.354 18.0116 101.051 18.0116C101.544 18.0116 101.982 17.8976 102.364 17.6695C102.746 17.4352 103.07 17.09 103.335 16.6338L104.99 17.5308C104.559 18.2212 104.007 18.7544 103.335 19.1305C102.669 19.5065 101.883 19.6945 100.977 19.6945C99.5837 19.6945 98.4679 19.2754 97.6295 18.437C96.7912 17.5986 96.372 16.3934 96.372 14.8215C96.372 13.3235 96.8004 12.1091 97.6573 11.1782C98.5203 10.2474 99.5991 9.78195 100.894 9.78195C102.225 9.78195 103.255 10.1796 103.982 10.9748C104.716 11.77 105.082 12.9228 105.082 14.4331V15.2653ZM103.002 13.7303C103.002 12.9906 102.817 12.4173 102.447 12.0104C102.077 11.6036 101.572 11.4001 100.931 11.4001C100.259 11.4001 99.7132 11.6252 99.294 12.0752C98.8748 12.519 98.622 13.0707 98.5357 13.7303H103.002Z" fill="#707070"/>
</svg>
