<svg width="88" height="25" viewBox="0 0 88 25" fill="none" xmlns="http://www.w3.org/2000/svg">
<path d="M11.8338 3.35254C12.6393 2.46345 13.09 1.24286 13.0187 -0.00195312C11.9045 -0.00195312 10.6127 0.649662 9.79486 1.60999C9.15464 2.40408 8.46741 3.6489 8.71628 4.89323C9.8661 5.03572 11.1109 4.31286 11.8338 3.35254Z" fill="#B2B2B2"/>
<path d="M16.8647 7.29755C16.6403 7.43141 14.5223 8.69491 14.5223 11.3894C14.5275 11.5566 14.5446 11.7152 14.5641 11.8715H14.5631C14.9141 14.6769 17.3805 15.68 17.4251 15.68C17.4168 15.6906 17.3983 15.7454 17.3674 15.8369C17.2245 16.2603 16.8163 17.4695 15.92 18.7262C15.0552 20.0428 14.0949 21.3702 12.6368 21.3702C11.9682 21.3702 11.5063 21.1662 11.0278 20.9549C10.5138 20.7279 9.98063 20.4925 9.1517 20.4925C8.23502 20.4925 7.66903 20.7422 7.14077 20.9752C6.67852 21.1791 6.24515 21.3702 5.63098 21.3702C4.17292 21.3702 3.14183 19.9715 2.22947 18.6673C1.0692 16.996 0.0856058 14.3939 0.0110372 11.8715C0.0103537 11.8457 0.00835266 11.8197 0.00635668 11.7938C0.00419221 11.7656 0.00202694 11.7374 0.00153276 11.7095C-0.0226891 10.3464 0.238527 9.00664 0.902015 7.86868C1.83812 6.28002 3.5099 5.20143 5.33509 5.16581C6.13349 5.13897 6.88176 5.45568 7.53572 5.73248C8.0274 5.94059 8.46577 6.12614 8.83206 6.12614C9.16526 6.12614 9.61655 5.96673 10.1514 5.77782C10.9294 5.50304 11.8841 5.16581 12.9094 5.16581C13.656 5.16629 15.6479 5.39141 16.8808 7.28783C16.8777 7.28979 16.8723 7.29302 16.8647 7.29755Z" fill="#B2B2B2"/>
<path d="M25.0156 6.24496V0.719986H26.5414C27.4994 0.719986 28.225 0.940882 28.7182 1.38267C29.2139 1.82447 29.4618 2.50128 29.4618 3.41312C29.4618 4.30184 29.1934 4.99664 28.6566 5.49751C28.1197 5.99581 27.3941 6.24496 26.4797 6.24496H25.0156ZM25.6629 1.30562V5.65933H26.4874C27.2117 5.65933 27.7755 5.47439 28.1788 5.10452C28.5821 4.73465 28.7837 4.17598 28.7837 3.42853C28.7837 2.68622 28.5975 2.14682 28.225 1.81034C27.8526 1.47386 27.2862 1.30562 26.5259 1.30562H25.6629Z" fill="#707070"/>
<path d="M32.0779 6.33743C31.464 6.33743 30.9837 6.15506 30.6369 5.79032C30.2902 5.42302 30.1168 4.93243 30.1168 4.31854C30.1168 3.6841 30.3094 3.17425 30.6947 2.78896C31.08 2.40111 31.5616 2.20718 32.1395 2.20718C32.7303 2.20718 33.1978 2.39597 33.542 2.77355C33.8887 3.14856 34.0621 3.64301 34.0621 4.25689C34.0621 4.85023 33.8836 5.34596 33.5266 5.74409C33.1721 6.13965 32.6892 6.33743 32.0779 6.33743ZM32.1126 5.79032C32.5107 5.79032 32.8266 5.65804 33.0604 5.39348C33.2967 5.12635 33.4148 4.75519 33.4148 4.28001C33.4148 3.82794 33.2967 3.46192 33.0604 3.18195C32.8266 2.89941 32.5107 2.75814 32.1126 2.75814C31.7144 2.75814 31.3895 2.90069 31.1378 3.1858C30.8886 3.46835 30.7641 3.83822 30.7641 4.29542C30.7641 4.77574 30.8886 5.14562 31.1378 5.40504C31.3895 5.6619 31.7144 5.79032 32.1126 5.79032Z" fill="#707070"/>
<path d="M39.9878 2.29965L38.8049 6.24496H38.15L37.337 3.42083C37.3165 3.34634 37.3023 3.29754 37.2946 3.27442C37.2895 3.24873 37.2818 3.20635 37.2715 3.14728H37.2561C37.2433 3.20635 37.2317 3.25002 37.2214 3.27827C37.2137 3.30653 37.1996 3.35148 37.179 3.41312L36.2967 6.24496H35.6495L34.4551 2.29965H35.1178L35.9346 5.21625C35.9474 5.25992 35.9577 5.30101 35.9654 5.33954C35.9731 5.37807 35.9821 5.42559 35.9924 5.4821H36.0155C36.0283 5.42302 36.0399 5.3755 36.0502 5.33954C36.0604 5.30101 36.0733 5.25735 36.0887 5.20855L36.998 2.29965H37.5913L38.4081 5.22396C38.4184 5.25992 38.4286 5.29973 38.4389 5.34339C38.4492 5.38449 38.4608 5.43073 38.4736 5.4821H38.4967C38.5096 5.43073 38.5185 5.39091 38.5237 5.36266C38.5314 5.33184 38.5442 5.2856 38.5622 5.22396L39.3636 2.29965H39.9878Z" fill="#707070"/>
<path d="M43.9254 6.24496H43.2935V3.90243C43.2935 3.51458 43.219 3.2269 43.07 3.0394C42.9211 2.84932 42.6989 2.75429 42.4035 2.75429C42.0696 2.75429 41.7986 2.87244 41.5905 3.10875C41.3851 3.34249 41.2823 3.63787 41.2823 3.9949V6.24496H40.6505V2.29965H41.2823V2.86217H41.2977C41.4467 2.64384 41.6291 2.48073 41.8448 2.37285C42.0606 2.26241 42.3097 2.20718 42.5923 2.20718C43.0238 2.20718 43.3539 2.34717 43.5825 2.62714C43.8111 2.90455 43.9254 3.30653 43.9254 3.83308V6.24496Z" fill="#707070"/>
<path d="M45.0427 6.24496V0.404053H45.6746V6.24496H45.0427Z" fill="#707070"/>
<path d="M48.568 6.33743C47.9542 6.33743 47.4738 6.15506 47.1271 5.79032C46.7803 5.42302 46.6069 4.93243 46.6069 4.31854C46.6069 3.6841 46.7996 3.17425 47.1849 2.78896C47.5702 2.40111 48.0518 2.20718 48.6297 2.20718C49.2205 2.20718 49.6879 2.39597 50.0321 2.77355C50.3789 3.14856 50.5523 3.64301 50.5523 4.25689C50.5523 4.85023 50.3737 5.34596 50.0167 5.74409C49.6623 6.13965 49.1794 6.33743 48.568 6.33743ZM48.6027 5.79032C49.0008 5.79032 49.3168 5.65804 49.5505 5.39348C49.7868 5.12635 49.905 4.75519 49.905 4.28001C49.905 3.82794 49.7868 3.46192 49.5505 3.18195C49.3168 2.89941 49.0008 2.75814 48.6027 2.75814C48.2046 2.75814 47.8797 2.90069 47.628 3.1858C47.3788 3.46835 47.2542 3.83822 47.2542 4.29542C47.2542 4.77574 47.3788 5.14562 47.628 5.40504C47.8797 5.6619 48.2046 5.79032 48.6027 5.79032Z" fill="#707070"/>
<path d="M54.278 6.24496H53.6461V5.72097H53.6307C53.4971 5.91875 53.3276 6.07158 53.1221 6.17946C52.9192 6.28477 52.6944 6.33743 52.4479 6.33743C52.0549 6.33743 51.7466 6.23212 51.5232 6.02149C51.3023 5.81087 51.1918 5.5476 51.1918 5.23166C51.1918 4.86179 51.3074 4.5754 51.5386 4.37248C51.7698 4.16699 52.0934 4.03985 52.5095 3.99105L53.6461 3.86005V3.60962C53.6461 3.32451 53.5716 3.11132 53.4226 2.97004C53.2762 2.82621 53.0746 2.75429 52.8177 2.75429C52.5737 2.75429 52.3721 2.80951 52.2128 2.91996C52.0536 3.02784 51.9316 3.17938 51.8468 3.37459L51.2959 3.14728C51.4243 2.84932 51.6221 2.61815 51.8892 2.45376C52.1589 2.28938 52.48 2.20718 52.8524 2.20718C53.3122 2.20718 53.6641 2.33047 53.9081 2.57705C54.1547 2.82107 54.278 3.16397 54.278 3.60576V6.24496ZM53.6461 4.64218V4.37248L52.5519 4.49577C52.3079 4.52402 52.1281 4.59466 52.0125 4.70768C51.8969 4.81812 51.8391 4.96582 51.8391 5.15075C51.8391 5.35367 51.9059 5.51677 52.0395 5.64006C52.173 5.76079 52.3477 5.82115 52.5634 5.82115C52.8871 5.82115 53.1478 5.7107 53.3456 5.4898C53.5459 5.26634 53.6461 4.9838 53.6461 4.64218Z" fill="#707070"/>
<path d="M58.1732 5.66703C58.0268 5.88536 57.8393 6.05232 57.6107 6.1679C57.3846 6.28092 57.1329 6.33743 56.8555 6.33743C56.3033 6.33743 55.8756 6.16148 55.5725 5.80959C55.272 5.45513 55.1217 4.97352 55.1217 4.36477C55.1217 3.69695 55.2925 3.17039 55.6342 2.78511C55.9758 2.39982 56.4214 2.20718 56.9711 2.20718C57.2382 2.20718 57.4745 2.25598 57.68 2.35359C57.8881 2.4512 58.0525 2.58476 58.1732 2.75429H58.1886V0.404053H58.8205V6.24496H58.1886V5.66703H58.1732ZM55.769 4.33395C55.769 4.78088 55.8717 5.13534 56.0772 5.39733C56.2853 5.65933 56.5717 5.79032 56.9364 5.79032C57.3217 5.79032 57.6261 5.66446 57.8495 5.41275C58.0756 5.16103 58.1886 4.84381 58.1886 4.46109V3.87932C58.1886 3.56595 58.0794 3.3001 57.8611 3.08178C57.6453 2.86345 57.3654 2.75429 57.0212 2.75429C56.6385 2.75429 56.3341 2.88914 56.1081 3.15883C55.882 3.42853 55.769 3.82024 55.769 4.33395Z" fill="#707070"/>
<path d="M63.5633 6.33743C62.9494 6.33743 62.4691 6.15506 62.1223 5.79032C61.7756 5.42302 61.6022 4.93243 61.6022 4.31854C61.6022 3.6841 61.7948 3.17425 62.1801 2.78896C62.5654 2.40111 63.047 2.20718 63.6249 2.20718C64.2157 2.20718 64.6832 2.39597 65.0274 2.77355C65.3741 3.14856 65.5475 3.64301 65.5475 4.25689C65.5475 4.85023 65.369 5.34596 65.012 5.74409C64.6575 6.13965 64.1746 6.33743 63.5633 6.33743ZM63.598 5.79032C63.9961 5.79032 64.312 5.65804 64.5458 5.39348C64.7821 5.12635 64.9002 4.75519 64.9002 4.28001C64.9002 3.82794 64.7821 3.46192 64.5458 3.18195C64.312 2.89941 63.9961 2.75814 63.598 2.75814C63.1998 2.75814 62.8749 2.90069 62.6232 3.1858C62.3741 3.46835 62.2495 3.83822 62.2495 4.29542C62.2495 4.77574 62.3741 5.14562 62.6232 5.40504C62.8749 5.6619 63.1998 5.79032 63.598 5.79032Z" fill="#707070"/>
<path d="M69.7548 6.24496H69.123V3.90243C69.123 3.51458 69.0485 3.2269 68.8995 3.0394C68.7505 2.84932 68.5283 2.75429 68.2329 2.75429C67.899 2.75429 67.6281 2.87244 67.42 3.10875C67.2145 3.34249 67.1118 3.63787 67.1118 3.9949V6.24496H66.4799V2.29965H67.1118V2.86217H67.1272C67.2762 2.64384 67.4585 2.48073 67.6743 2.37285C67.89 2.26241 68.1392 2.20718 68.4217 2.20718C68.8533 2.20718 69.1833 2.34717 69.4119 2.62714C69.6405 2.90455 69.7548 3.30653 69.7548 3.83308V6.24496Z" fill="#707070"/>
<path d="M74.7712 5.99452C74.6556 6.11011 74.5285 6.19487 74.3898 6.24881C74.2511 6.30275 74.088 6.32972 73.9005 6.32972C73.5897 6.32972 73.3495 6.24368 73.18 6.07158C73.0105 5.89692 72.9257 5.64777 72.9257 5.32413V2.83905H72.2476V2.29965H72.9257V1.36726L73.5576 1.25553V2.29965H74.6133V2.83905H73.5576V5.27019C73.5576 5.4577 73.5935 5.59383 73.6655 5.67859C73.7374 5.76335 73.8504 5.80574 74.0045 5.80574C74.0816 5.80574 74.1548 5.79032 74.2241 5.7595C74.296 5.72868 74.3705 5.6696 74.4476 5.58227L74.7712 5.99452Z" fill="#707070"/>
<path d="M78.8167 6.24496H78.1848V3.90243C78.1848 3.51458 78.1103 3.2269 77.9614 3.0394C77.815 2.84932 77.5928 2.75429 77.2948 2.75429C76.9609 2.75429 76.6899 2.87244 76.4819 3.10875C76.2764 3.34249 76.1737 3.63915 76.1737 3.99875V6.24496H75.5418V0.404053H76.1737V2.86217H76.1891C76.338 2.64384 76.5204 2.48073 76.7362 2.37285C76.9519 2.26241 77.2011 2.20718 77.4836 2.20718C77.9151 2.20718 78.2452 2.34588 78.4738 2.62329C78.7024 2.90069 78.8167 3.30396 78.8167 3.83308V6.24496Z" fill="#707070"/>
<path d="M83.1666 4.38404H80.3193C80.3193 4.87206 80.4349 5.22909 80.6661 5.45513C80.8998 5.67859 81.1772 5.79032 81.4983 5.79032C81.7397 5.79032 81.9516 5.7351 82.134 5.62465C82.3189 5.51164 82.4718 5.34468 82.5925 5.12378L83.1088 5.38578C82.9701 5.66832 82.7607 5.8982 82.4808 6.07543C82.2034 6.2501 81.8617 6.33743 81.4559 6.33743C80.9319 6.33743 80.5017 6.16405 80.1652 5.81729C79.8313 5.47054 79.6643 4.96068 79.6643 4.28772C79.6643 3.68924 79.8339 3.19351 80.1729 2.80052C80.512 2.40496 80.946 2.20718 81.4752 2.20718C82.012 2.20718 82.4281 2.37029 82.7235 2.69649C83.0189 3.02013 83.1666 3.4722 83.1666 4.05269V4.38404ZM82.5193 3.8562C82.5193 3.51458 82.4255 3.24617 82.238 3.05095C82.0505 2.85318 81.7924 2.75429 81.4636 2.75429C81.1451 2.75429 80.8844 2.8596 80.6815 3.07022C80.4811 3.28084 80.3617 3.54283 80.3232 3.8562H82.5193Z" fill="#707070"/>
<path d="M24.4531 21.3687L28.568 10.3187H30.6331L34.7171 21.3687H32.7444L31.7889 18.7487H27.3351L26.4181 21.3687H24.4531ZM27.8282 17.1922H31.2881L29.7778 12.8076C29.7367 12.6946 29.7007 12.5945 29.6699 12.5071C29.6442 12.4147 29.6134 12.3016 29.5774 12.1681H29.5389C29.4978 12.2914 29.4644 12.3992 29.4387 12.4917C29.413 12.5842 29.3796 12.6895 29.3385 12.8076L27.8282 17.1922Z" fill="#707070"/>
<path d="M36.8063 20.5442H36.7754V24.998H34.98V13.478H36.7754V14.6031H36.8063C37.1196 14.1664 37.4998 13.8402 37.9467 13.6244C38.3988 13.4036 38.9048 13.2931 39.4647 13.2931C40.5127 13.2931 41.3295 13.6399 41.9151 14.3334C42.5008 15.0269 42.7936 15.9927 42.7936 17.2307C42.7936 18.5253 42.4648 19.5707 41.8072 20.3669C41.1548 21.158 40.2815 21.5536 39.1873 21.5536C38.6787 21.5536 38.2241 21.4688 37.8234 21.2993C37.4279 21.1298 37.0888 20.8781 36.8063 20.5442ZM36.7523 17.0843V18.0552C36.7523 18.6357 36.945 19.1212 37.3302 19.5116C37.7207 19.902 38.2113 20.0972 38.802 20.0972C39.4699 20.0972 39.9938 19.8429 40.374 19.3344C40.7593 18.8258 40.9519 18.14 40.9519 17.2769C40.9519 16.4396 40.7747 15.8103 40.4202 15.389C40.0709 14.9627 39.588 14.7495 38.9716 14.7495C38.3191 14.7495 37.7849 14.9678 37.3688 15.4045C36.9578 15.8411 36.7523 16.4011 36.7523 17.0843Z" fill="#707070"/>
<path d="M45.3374 20.5442H45.3066V24.998H43.5111V13.478H45.3066V14.6031H45.3374C45.6507 14.1664 46.0309 13.8402 46.4778 13.6244C46.9299 13.4036 47.4359 13.2931 47.9958 13.2931C49.0438 13.2931 49.8606 13.6399 50.4462 14.3334C51.0319 15.0269 51.3247 15.9927 51.3247 17.2307C51.3247 18.5253 50.9959 19.5707 50.3384 20.3669C49.6859 21.158 48.8126 21.5536 47.7184 21.5536C47.2099 21.5536 46.7552 21.4688 46.3545 21.2993C45.959 21.1298 45.6199 20.8781 45.3374 20.5442ZM45.2834 17.0843V18.0552C45.2834 18.6357 45.4761 19.1212 45.8614 19.5116C46.2518 19.902 46.7424 20.0972 47.3331 20.0972C48.001 20.0972 48.525 19.8429 48.9051 19.3344C49.2904 18.8258 49.483 18.14 49.483 17.2769C49.483 16.4396 49.3058 15.8103 48.9513 15.389C48.602 14.9627 48.1191 14.7495 47.5027 14.7495C46.8503 14.7495 46.316 14.9678 45.8999 15.4045C45.4889 15.8411 45.2834 16.4011 45.2834 17.0843Z" fill="#707070"/>
<path d="M54.4628 19.2804L56.0578 18.479C56.289 18.9773 56.6024 19.3498 56.9979 19.5964C57.3986 19.8429 57.8661 19.9662 58.4004 19.9662C59.0374 19.9662 59.528 19.8275 59.8721 19.5501C60.2215 19.2727 60.3961 18.8849 60.3961 18.3866C60.3961 17.9037 60.224 17.5184 59.8798 17.2307C59.5357 16.943 59.0065 16.7144 58.2925 16.5449C57.1315 16.2726 56.2916 15.8873 55.7727 15.389C55.2539 14.8856 54.9944 14.2101 54.9944 13.3625C54.9944 12.3504 55.3463 11.5619 56.0501 10.9968C56.759 10.4266 57.6324 10.1415 58.6701 10.1415C59.4509 10.1415 60.1393 10.3136 60.7352 10.6578C61.3311 10.9968 61.8088 11.5028 62.1684 12.1758L60.6196 12.9309C60.3833 12.4943 60.1033 12.1809 59.7797 11.9908C59.456 11.8008 59.063 11.7057 58.6007 11.7057C58.0253 11.7057 57.5784 11.8367 57.2599 12.0987C56.9414 12.3556 56.7822 12.6998 56.7822 13.1313C56.7822 13.5628 56.9286 13.9019 57.2214 14.1484C57.5142 14.395 58.0408 14.6056 58.801 14.7803C59.9723 15.0423 60.8276 15.4456 61.367 15.9901C61.9116 16.5346 62.1838 17.2667 62.1838 18.1862C62.1838 19.1674 61.8576 19.9739 61.2052 20.6058C60.5528 21.2377 59.623 21.5536 58.4158 21.5536C57.486 21.5536 56.6743 21.3558 55.9808 20.9603C55.2924 20.5647 54.7864 20.0048 54.4628 19.2804Z" fill="#707070"/>
<path d="M67.0856 20.837C66.8493 21.063 66.5744 21.2377 66.2611 21.361C65.9477 21.4842 65.5958 21.5459 65.2054 21.5459C64.4554 21.5459 63.8877 21.3584 63.5024 20.9834C63.1223 20.6032 62.9322 20.0484 62.9322 19.3189V14.8805H61.6068V13.478H62.9322V11.5439L64.7199 11.228V13.478H66.7311V14.8805H64.7199V19.2573C64.7199 19.5707 64.7816 19.8018 64.9049 19.9508C65.0333 20.0998 65.2259 20.1743 65.4828 20.1743C65.6164 20.1743 65.7474 20.1486 65.8758 20.0972C66.0042 20.0458 66.1404 19.9457 66.2842 19.7967L67.0856 20.837Z" fill="#707070"/>
<path d="M71.0935 21.5536C69.8451 21.5536 68.8537 21.1863 68.1191 20.4517C67.3845 19.7171 67.0172 18.7282 67.0172 17.485C67.0223 16.2264 67.4127 15.2144 68.1884 14.449C68.9641 13.6784 69.971 13.2931 71.209 13.2931C72.4522 13.2931 73.4334 13.6707 74.1526 14.4258C74.8718 15.181 75.2314 16.157 75.2314 17.354C75.2314 18.5766 74.8513 19.5835 74.091 20.3746C73.3358 21.1606 72.3366 21.5536 71.0935 21.5536ZM71.1628 20.0972C71.8717 20.0972 72.4214 19.8558 72.8118 19.3729C73.2023 18.8849 73.3975 18.2273 73.3975 17.4002C73.3975 16.604 73.1997 15.9644 72.8041 15.4815C72.4137 14.9935 71.8666 14.7495 71.1628 14.7495C70.459 14.7495 69.8965 15.0012 69.4753 15.5046C69.054 16.0029 68.8434 16.6502 68.8434 17.4465C68.8434 18.2735 69.0515 18.9234 69.4676 19.396C69.8837 19.8635 70.4488 20.0972 71.1628 20.0972Z" fill="#707070"/>
<path d="M80.4491 15.0885C80.3052 15.032 80.1563 14.9884 80.0022 14.9575C79.8532 14.9216 79.6939 14.9036 79.5244 14.9036C78.9953 14.9036 78.5663 15.1399 78.2376 15.6125C77.9088 16.0851 77.7444 16.7016 77.7444 17.4619V21.3687H75.949V13.478H77.7444V14.9036H77.7752C77.9602 14.4002 78.2324 14.0149 78.592 13.7477C78.9516 13.4755 79.3677 13.3393 79.8403 13.3393C80.0407 13.3393 80.2256 13.3547 80.3951 13.3856C80.5647 13.4164 80.747 13.4755 80.9422 13.5628L80.4491 15.0885Z" fill="#707070"/>
<path d="M87.8552 17.8626H82.4073C82.4227 18.6229 82.6282 19.1957 83.0237 19.5809C83.4244 19.9611 83.915 20.1512 84.4955 20.1512C84.9065 20.1512 85.2712 20.0561 85.5897 19.866C85.9082 19.6708 86.1779 19.3832 86.3988 19.003L87.7781 19.7505C87.4185 20.3258 86.9587 20.7702 86.3988 21.0835C85.844 21.3969 85.189 21.5536 84.4338 21.5536C83.2729 21.5536 82.343 21.2043 81.6444 20.5056C80.9457 19.807 80.5964 18.8027 80.5964 17.4927C80.5964 16.2444 80.9534 15.2324 81.6675 14.4567C82.3867 13.681 83.2857 13.2931 84.3645 13.2931C85.4741 13.2931 86.332 13.6244 86.9382 14.2871C87.5495 14.9498 87.8552 15.9105 87.8552 17.1691V17.8626ZM86.1214 16.5834C86.1214 15.967 85.9673 15.4892 85.659 15.1502C85.3508 14.8111 84.9296 14.6416 84.3953 14.6416C83.8354 14.6416 83.3807 14.8291 83.0314 15.2041C82.6821 15.574 82.4715 16.0338 82.3995 16.5834H86.1214Z" fill="#707070"/>
</svg>
