<svg width="113" height="23" viewBox="0 0 113 23" fill="none" xmlns="http://www.w3.org/2000/svg">
<path d="M4.55174 0.584583L17.1289 7.81617L14.4331 10.512L4.55174 0.584583ZM1.94603 0L13.4911 11.5L1.94699 23C1.35953 22.7403 0.957031 22.1624 0.957031 21.4906C0.957031 21.4686 0.957031 21.4465 0.95799 21.4255V21.4283V1.57263C0.957031 1.55442 0.957031 1.53237 0.957031 1.51033C0.957031 0.838542 1.35953 0.260667 1.93645 0.00479167L1.94699 0.000958333L1.94603 0ZM21.0379 10.1526C21.4347 10.4468 21.6887 10.9145 21.6887 11.4406C21.6887 11.4617 21.6887 11.4818 21.6877 11.5029V11.5C21.6915 11.5412 21.6944 11.5901 21.6944 11.639C21.6944 12.1335 21.4548 12.5724 21.0849 12.8445L21.0811 12.8474L18.3853 14.374L15.4662 11.5L18.3862 8.57996L21.0379 10.1526ZM4.55174 22.4154L14.4341 12.488L17.1299 15.1838L4.55174 22.4154Z" fill="#B2B2B2"/>
<path d="M40.5437 14.5826C39.9566 15.0172 39.2762 15.37 38.5027 15.6409C37.7293 15.9062 36.9247 16.0389 36.0891 16.0389C34.2203 16.0389 32.7383 15.4885 31.643 14.3878C30.5477 13.2872 30 11.8055 30 9.94278C30 8.02928 30.5477 6.47703 31.643 5.28604C32.7383 4.08939 34.161 3.49107 35.9113 3.49107C37.0517 3.49107 38.0115 3.71686 38.7907 4.16842C39.5698 4.61434 40.1598 5.22395 40.5607 5.99725L38.8754 6.81006C38.5761 6.28512 38.1838 5.89565 37.6982 5.64164C37.2127 5.38764 36.6509 5.26064 36.0129 5.26064C34.8668 5.26064 33.9324 5.66986 33.2097 6.48832C32.4927 7.30678 32.1342 8.40746 32.1342 9.79037C32.1342 11.2072 32.4927 12.3078 33.2097 13.0924C33.9324 13.877 34.8837 14.2693 36.0637 14.2693C36.521 14.2693 36.9642 14.2129 37.3933 14.1C37.8224 13.9814 38.2007 13.8093 38.5282 13.5835V11.0689H35.8351V9.33317H40.5437V14.5826Z" fill="#707070"/>
<path d="M45.7023 16.0389C44.3303 16.0389 43.2407 15.6353 42.4333 14.8281C41.6259 14.021 41.2223 12.9344 41.2223 11.5684C41.2279 10.1855 41.657 9.07352 42.5095 8.23248C43.3621 7.3858 44.4687 6.96246 45.8293 6.96246C47.1956 6.96246 48.274 7.37734 49.0644 8.20708C49.8549 9.03683 50.2501 10.1093 50.2501 11.4245C50.2501 12.7679 49.8323 13.8742 48.9967 14.7435C48.1667 15.6071 47.0686 16.0389 45.7023 16.0389ZM45.7785 14.4386C46.5577 14.4386 47.1618 14.1734 47.5909 13.6428C48.0199 13.1065 48.2345 12.384 48.2345 11.4753C48.2345 10.6004 48.0171 9.89762 47.5824 9.36703C47.1533 8.8308 46.552 8.56269 45.7785 8.56269C45.005 8.56269 44.3868 8.83927 43.9238 9.39243C43.4609 9.93995 43.2294 10.6512 43.2294 11.5261C43.2294 12.4348 43.458 13.1489 43.9154 13.6682C44.3727 14.1818 44.9937 14.4386 45.7785 14.4386Z" fill="#707070"/>
<path d="M54.9598 16.0389C53.5878 16.0389 52.4982 15.6353 51.6908 14.8281C50.8834 14.021 50.4798 12.9344 50.4798 11.5684C50.4854 10.1855 50.9145 9.07352 51.767 8.23248C52.6196 7.3858 53.7262 6.96246 55.0868 6.96246C56.4531 6.96246 57.5315 7.37734 58.3219 8.20708C59.1124 9.03683 59.5076 10.1093 59.5076 11.4245C59.5076 12.7679 59.0898 13.8742 58.2542 14.7435C57.4242 15.6071 56.3261 16.0389 54.9598 16.0389ZM55.036 14.4386C55.8151 14.4386 56.4193 14.1734 56.8483 13.6428C57.2774 13.1065 57.492 12.384 57.492 11.4753C57.492 10.6004 57.2746 9.89762 56.8399 9.36703C56.4108 8.8308 55.8095 8.56269 55.036 8.56269C54.2625 8.56269 53.6443 8.83927 53.1813 9.39243C52.7184 9.93995 52.4869 10.6512 52.4869 11.5261C52.4869 12.4348 52.7155 13.1489 53.1729 13.6682C53.6302 14.1818 54.2512 14.4386 55.036 14.4386Z" fill="#707070"/>
<path d="M68.3331 15.3361C68.3331 16.7981 67.9351 17.927 67.139 18.7228C66.3486 19.5187 65.2505 19.9167 63.8447 19.9167C62.9469 19.9167 62.165 19.7558 61.4988 19.4341C60.8326 19.118 60.2736 18.6636 59.8219 18.0709L61.2532 17.0041C61.5806 17.4613 61.9504 17.8028 62.3626 18.0286C62.7804 18.2544 63.2829 18.3672 63.8701 18.3672C64.6548 18.3672 65.2646 18.1415 65.6993 17.6899C66.1397 17.2383 66.3599 16.5666 66.3599 15.6748V14.6757H66.326C66.0099 15.1216 65.6231 15.4603 65.1658 15.6917C64.7141 15.9232 64.1524 16.0389 63.4805 16.0389C62.3513 16.0389 61.4451 15.6607 60.762 14.9043C60.0788 14.1423 59.7372 13.0811 59.7372 11.7208C59.7372 10.2306 60.1268 9.06505 60.906 8.22402C61.6907 7.38298 62.6731 6.96246 63.8531 6.96246C64.3669 6.96246 64.8412 7.05842 65.2759 7.25033C65.7106 7.44225 66.0607 7.71883 66.326 8.08008H66.3599V7.16567H68.3331V15.3361ZM66.3768 11.8055V10.7979C66.3768 10.177 66.1679 9.64926 65.7501 9.21463C65.3323 8.78 64.7932 8.56269 64.1326 8.56269C63.3986 8.56269 62.8171 8.82798 62.388 9.35857C61.9589 9.88915 61.7444 10.6455 61.7444 11.6277C61.7444 12.5026 61.942 13.1912 62.3372 13.6936C62.7381 14.1903 63.2914 14.4386 63.9971 14.4386C64.7028 14.4386 65.2759 14.1959 65.7163 13.7105C66.1567 13.2251 66.3768 12.5901 66.3768 11.8055Z" fill="#707070"/>
<path d="M69.6722 15.8357V3H71.6455V15.8357H69.6722Z" fill="#707070"/>
<path d="M80.4203 11.9833H74.4328C74.4497 12.8187 74.6755 13.448 75.1103 13.8714C75.5507 14.2891 76.0898 14.4979 76.7278 14.4979C77.1795 14.4979 77.5804 14.3935 77.9304 14.1846C78.2805 13.9701 78.5769 13.6541 78.8196 13.2364L80.3356 14.0576C79.9404 14.6898 79.435 15.1781 78.8196 15.5224C78.2099 15.8667 77.49 16.0389 76.6601 16.0389C75.3841 16.0389 74.3622 15.655 73.5943 14.8874C72.8265 14.1197 72.4426 13.0162 72.4426 11.5769C72.4426 10.2052 72.835 9.09327 73.6198 8.24095C74.4102 7.38862 75.3982 6.96246 76.5839 6.96246C77.8034 6.96246 78.7462 7.32653 79.4125 8.05468C80.0843 8.78282 80.4203 9.83835 80.4203 11.2213V11.9833ZM78.5148 10.5778C78.5148 9.90044 78.3454 9.3755 78.0066 9.00296C77.6679 8.63042 77.2049 8.44415 76.6177 8.44415C76.0023 8.44415 75.5027 8.65018 75.1187 9.06223C74.7348 9.46863 74.5033 9.97382 74.4243 10.5778H78.5148Z" fill="#707070"/>
<path d="M86.4352 11.6107V15.8357H84.4196V3.69428H88.1628C89.5574 3.69428 90.6273 4.02166 91.3725 4.67643C92.1234 5.32555 92.4989 6.26254 92.4989 7.4874C92.4989 8.73485 92.0811 9.73393 91.2455 10.4847C90.4099 11.2354 89.2836 11.6107 87.8664 11.6107H86.4352ZM86.4352 5.3453V9.95124H87.7733C88.6145 9.95124 89.2581 9.74522 89.7042 9.33317C90.1558 8.91547 90.3817 8.32844 90.3817 7.57207C90.3817 6.84393 90.17 6.29076 89.7465 5.91258C89.3287 5.5344 88.7077 5.3453 87.8834 5.3453H86.4352Z" fill="#707070"/>
<path d="M93.1351 15.8357V3H95.1083V15.8357H93.1351Z" fill="#707070"/>
<path d="M103.087 15.8357H101.182V14.7604H101.148C100.843 15.1781 100.47 15.497 100.03 15.7171C99.5894 15.9316 99.0982 16.0389 98.5562 16.0389C97.7544 16.0389 97.0967 15.8103 96.5829 15.3531C96.0748 14.8959 95.8207 14.2975 95.8207 13.5581C95.8207 12.7622 96.0748 12.1244 96.5829 11.6446C97.0967 11.1592 97.8307 10.8628 98.7848 10.7556L101.19 10.4847V10.0698C101.19 9.53355 101.04 9.13279 100.741 8.86749C100.442 8.59655 100.05 8.46109 99.564 8.46109C99.0841 8.46109 98.6804 8.56833 98.3529 8.78282C98.0255 8.99732 97.7544 9.30494 97.5399 9.70571L96.0663 8.95216C96.3599 8.37077 96.8229 7.89381 97.4552 7.52127C98.0876 7.14873 98.8385 6.96246 99.7079 6.96246C100.803 6.96246 101.639 7.25033 102.215 7.82608C102.796 8.39617 103.087 9.22592 103.087 10.3153V15.8357ZM101.19 12.3135V11.8393L99.0982 12.0679C98.6183 12.1187 98.2682 12.2514 98.048 12.4659C97.8279 12.6804 97.7178 12.9682 97.7178 13.3295C97.7178 13.6964 97.842 13.9956 98.0904 14.227C98.3445 14.4528 98.6719 14.5656 99.0728 14.5656C99.7051 14.5656 100.216 14.354 100.606 13.9306C100.995 13.5017 101.19 12.9626 101.19 12.3135Z" fill="#707070"/>
<path d="M112.167 7.16567L108.135 17.5629C107.836 18.3362 107.433 18.9204 106.924 19.3155C106.422 19.7163 105.809 19.9167 105.087 19.9167C104.737 19.9167 104.406 19.8772 104.096 19.7981C103.791 19.7248 103.5 19.6062 103.224 19.4425L104.079 18.054C104.254 18.1556 104.412 18.2261 104.553 18.2656C104.694 18.3108 104.841 18.3334 104.994 18.3334C105.259 18.3334 105.485 18.2656 105.671 18.1302C105.863 18.0003 106.035 17.7605 106.188 17.4105L106.823 15.9373L103.418 7.16567H105.569L107.56 12.9146C107.622 13.0896 107.67 13.2448 107.704 13.3803C107.737 13.5158 107.777 13.6823 107.822 13.8798H107.864C107.904 13.6823 107.944 13.5186 107.983 13.3888C108.028 13.2589 108.079 13.1065 108.135 12.9316L110.143 7.16567H112.167Z" fill="#707070"/>
</svg>
