<svg width="92" height="24" viewBox="0 0 92 24" fill="none" xmlns="http://www.w3.org/2000/svg">
<path fill-rule="evenodd" clip-rule="evenodd" d="M0.374731 0.319805C0.136555 0.575448 0 0.969234 0 1.48105V19.6799C0 20.1917 0.136555 20.5855 0.383729 20.8321L0.448301 20.8866L10.6454 10.6895V10.4603L0.439304 0.265289L0.374731 0.319805Z" fill="url(#paint0_linear_312_3409)"/>
<path fill-rule="evenodd" clip-rule="evenodd" d="M14.034 14.1017L10.6328 10.6995V10.4613L14.035 7.05908L14.1086 7.1046L18.1327 9.39162C19.285 10.0411 19.285 11.1113 18.1327 11.7697L14.1086 14.0567C14.1075 14.0562 14.034 14.1017 14.034 14.1017Z" fill="url(#paint1_linear_312_3409)"/>
<path fill-rule="evenodd" clip-rule="evenodd" d="M14.1114 14.0562L10.6367 10.5804L0.375 20.8422C0.749731 21.2449 1.38063 21.2905 2.08564 20.8967L14.1114 14.0562Z" fill="url(#paint2_linear_312_3409)"/>
<path fill-rule="evenodd" clip-rule="evenodd" d="M14.1114 7.10569L2.08564 0.274255C1.38169 -0.128528 0.749731 -0.0740116 0.375 0.328772L10.6356 10.5804L14.1114 7.10569Z" fill="url(#paint3_linear_312_3409)"/>
<path d="M28.7203 5.2855C28.451 5.50142 28.1381 5.67416 27.7816 5.80371C27.4251 5.93327 27.0456 5.99805 26.6429 5.99805C25.8453 5.99805 25.2054 5.73084 24.7232 5.19643C24.2411 4.66201 24 3.95486 24 3.07497C24 2.15729 24.2398 1.41505 24.7194 0.848249C25.2016 0.281448 25.844 -0.00195312 26.6468 -0.00195312C27.1315 -0.00195312 27.5482 0.101961 27.897 0.309788C28.2458 0.517615 28.5113 0.809113 28.6934 1.18428L28.124 1.45959C27.983 1.18968 27.7868 0.984552 27.5354 0.844201C27.2841 0.701151 26.9879 0.629626 26.6468 0.629626C26.0543 0.629626 25.5773 0.850948 25.2157 1.29359C24.8566 1.73354 24.6771 2.30979 24.6771 3.02234C24.6771 3.75378 24.8579 4.32868 25.2195 4.74703C25.5837 5.16269 26.0659 5.37052 26.666 5.37052C26.9302 5.37052 27.1841 5.33408 27.4277 5.2612C27.6713 5.18833 27.8868 5.08037 28.074 4.93732V3.52031H26.7545V2.90493H28.7203V5.2855Z" fill="#707070"/>
<path d="M32.8482 5.90088H29.9244V0.0952129H32.7251V0.710597H30.5707V2.64177H32.5635V3.25311H30.5707V5.2855H32.8482V5.90088Z" fill="#707070"/>
<path d="M37.0491 0.710597H35.4564V5.90088H34.8101V0.710597H33.2213V0.0952129H37.0491V0.710597Z" fill="#707070"/>
<path d="M40.3806 5.90088H39.7343V0.0952129H40.3806V5.90088Z" fill="#707070"/>
<path d="M44.974 0.710597H43.3813V5.90088H42.735V0.710597H41.1462V0.0952129H44.974V0.710597Z" fill="#707070"/>
<path d="M49.9136 5.99805C49.1339 5.99805 48.503 5.72814 48.0208 5.18833C47.5387 4.64582 47.2976 3.93867 47.2976 3.06687C47.2976 2.1411 47.5464 1.39886 48.0439 0.840152C48.544 0.278749 49.198 -0.00195312 50.0059 -0.00195312C50.765 -0.00195312 51.378 0.265253 51.8448 0.799666C52.3115 1.33408 52.5449 2.04258 52.5449 2.92517C52.5449 3.84015 52.3026 4.58104 51.8178 5.14784C51.3331 5.71465 50.6983 5.99805 49.9136 5.99805ZM49.9136 5.37052C50.4983 5.37052 50.9702 5.15324 51.3293 4.71869C51.6883 4.28415 51.8678 3.71734 51.8678 3.01829C51.8678 2.29764 51.6922 1.72004 51.3408 1.2855C50.9894 0.848249 50.5291 0.629626 49.9597 0.629626C49.3673 0.629626 48.8877 0.8469 48.5209 1.28145C48.1567 1.7133 47.9747 2.2882 47.9747 3.00614C47.9747 3.7106 48.1529 4.28145 48.5094 4.71869C48.8684 5.15324 49.3365 5.37052 49.9136 5.37052Z" fill="#707070"/>
<path d="M58 5.90088H57.2075L54.3684 1.27335C54.3274 1.20857 54.2979 1.16269 54.2799 1.1357C54.262 1.10601 54.2376 1.06552 54.2068 1.01424H54.1838C54.1889 1.06822 54.1927 1.15324 54.1953 1.2693C54.1979 1.38266 54.1991 1.52841 54.1991 1.70655V5.90088H53.5528V0.0952129H54.3915L57.1537 4.64987C57.2024 4.73084 57.2396 4.79562 57.2652 4.8442C57.2909 4.89008 57.3204 4.94407 57.3537 5.00614H57.3691C57.364 4.92517 57.3601 4.81586 57.3575 4.67821C57.355 4.54056 57.3537 4.37591 57.3537 4.18428V0.0952129H58V5.90088Z" fill="#707070"/>
<path d="M32.7259 19.5836C32.2399 19.9433 31.6769 20.2353 31.0368 20.4595C30.3966 20.6791 29.7308 20.7888 29.0393 20.7888C27.4927 20.7888 26.2662 20.3334 25.3597 19.4225C24.4532 18.5116 24 17.2853 24 15.7438C24 14.1602 24.4532 12.8756 25.3597 11.8899C26.2662 10.8996 27.4436 10.4045 28.8921 10.4045C29.8359 10.4045 30.6302 10.5913 31.2751 10.965C31.9199 11.334 32.4081 11.8386 32.7399 12.4785L31.3451 13.1512C31.0975 12.7168 30.7728 12.3944 30.3709 12.1842C29.9691 11.974 29.5042 11.8689 28.9762 11.8689C28.0277 11.8689 27.2544 12.2076 26.6563 12.8849C26.0629 13.5623 25.7662 14.4732 25.7662 15.6177C25.7662 16.7902 26.0629 17.7011 26.6563 18.3504C27.2544 18.9997 28.0417 19.3244 29.0182 19.3244C29.3967 19.3244 29.7635 19.2777 30.1186 19.1842C30.4737 19.0861 30.7868 18.9437 31.0578 18.7568V16.6757H28.829V15.2393H32.7259V19.5836Z" fill="#707070"/>
<path d="M36.995 20.7888C35.8596 20.7888 34.9578 20.4548 34.2896 19.7868C33.6215 19.1188 33.2874 18.2196 33.2874 17.0891C33.2921 15.9447 33.6472 15.0244 34.3527 14.3284C35.0583 13.6277 35.9741 13.2773 37.1001 13.2773C38.2309 13.2773 39.1233 13.6207 39.7775 14.3074C40.4316 14.994 40.7587 15.8816 40.7587 16.97C40.7587 18.0818 40.4129 18.9974 39.7214 19.7168C39.0345 20.4315 38.1257 20.7888 36.995 20.7888ZM37.0581 19.4645C37.7029 19.4645 38.2028 19.245 38.558 18.8059C38.9131 18.3621 39.0906 17.7641 39.0906 17.0121C39.0906 16.288 38.9107 15.7064 38.5509 15.2673C38.1958 14.8235 37.6982 14.6017 37.0581 14.6017C36.418 14.6017 35.9063 14.8305 35.5232 15.2883C35.14 15.7415 34.9485 16.33 34.9485 17.0541C34.9485 17.8062 35.1377 18.3971 35.5162 18.8269C35.8946 19.252 36.4086 19.4645 37.0581 19.4645Z" fill="#707070"/>
<path d="M44.6564 20.7888C43.521 20.7888 42.6192 20.4548 41.951 19.7868C41.2828 19.1188 40.9488 18.2196 40.9488 17.0891C40.9534 15.9447 41.3085 15.0244 42.0141 14.3284C42.7196 13.6277 43.6354 13.2773 44.7615 13.2773C45.8923 13.2773 46.7847 13.6207 47.4388 14.3074C48.093 14.994 48.4201 15.8816 48.4201 16.97C48.4201 18.0818 48.0743 18.9974 47.3828 19.7168C46.6959 20.4315 45.7871 20.7888 44.6564 20.7888ZM44.7195 19.4645C45.3643 19.4645 45.8642 19.245 46.2193 18.8059C46.5744 18.3621 46.752 17.7641 46.752 17.0121C46.752 16.288 46.5721 15.7064 46.2123 15.2673C45.8572 14.8235 45.3596 14.6017 44.7195 14.6017C44.0793 14.6017 43.5677 14.8305 43.1845 15.2883C42.8014 15.7415 42.6098 16.33 42.6098 17.0541C42.6098 17.8062 42.7991 18.3971 43.1775 18.8269C43.556 19.252 44.07 19.4645 44.7195 19.4645Z" fill="#707070"/>
<path d="M55.724 20.2073C55.724 21.4171 55.3946 22.3514 54.7358 23.0101C54.0816 23.6687 53.1728 23.998 52.0094 23.998C51.2664 23.998 50.6193 23.8649 50.068 23.5986C49.5166 23.3371 49.054 22.961 48.6802 22.4705L49.8647 21.5876C50.1357 21.966 50.4418 22.2486 50.7828 22.4355C51.1286 22.6223 51.5445 22.7158 52.0304 22.7158C52.6799 22.7158 53.1845 22.5289 53.5443 22.1552C53.9087 21.7815 54.091 21.2256 54.091 20.4875V19.6607H54.0629C53.8013 20.0297 53.4812 20.31 53.1027 20.5016C52.7289 20.6931 52.264 20.7888 51.708 20.7888C50.7735 20.7888 50.0236 20.4759 49.4582 19.8499C48.8928 19.2193 48.6101 18.3411 48.6101 17.2153C48.6101 15.982 48.9325 15.0174 49.5773 14.3214C50.2268 13.6253 51.0398 13.2773 52.0164 13.2773C52.4416 13.2773 52.8341 13.3567 53.1938 13.5156C53.5536 13.6744 53.8433 13.9033 54.0629 14.2023H54.091V13.4455H55.724V20.2073ZM54.105 17.2853V16.4515C54.105 15.9377 53.9321 15.5009 53.5863 15.1412C53.2406 14.7815 52.7943 14.6017 52.2477 14.6017C51.6402 14.6017 51.159 14.8212 50.8039 15.2603C50.4488 15.6994 50.2712 16.3254 50.2712 17.1382C50.2712 17.8622 50.4347 18.4321 50.7618 18.8479C51.0936 19.259 51.5515 19.4645 52.1355 19.4645C52.7196 19.4645 53.1938 19.2636 53.5583 18.8619C53.9227 18.4602 54.105 17.9347 54.105 17.2853Z" fill="#707070"/>
<path d="M56.8322 20.6207V9.99805H58.4652V20.6207H56.8322Z" fill="#707070"/>
<path d="M65.7271 17.4325H60.7719C60.786 18.1238 60.9729 18.6447 61.3326 18.995C61.6971 19.3407 62.1433 19.5136 62.6713 19.5136C63.0451 19.5136 63.3769 19.4271 63.6665 19.2543C63.9562 19.0768 64.2015 18.8152 64.4025 18.4695L65.657 19.1492C65.33 19.6724 64.9118 20.0765 64.4025 20.3614C63.8978 20.6464 63.3021 20.7888 62.6152 20.7888C61.5593 20.7888 60.7135 20.4712 60.0781 19.8359C59.4426 19.2006 59.1249 18.2873 59.1249 17.0961C59.1249 15.961 59.4496 15.0408 60.0991 14.3354C60.7533 13.63 61.5709 13.2773 62.5522 13.2773C63.5614 13.2773 64.3417 13.5786 64.8931 14.1812C65.4491 14.7838 65.7271 15.6574 65.7271 16.8019V17.4325ZM64.1502 16.2693C64.1502 15.7088 64.01 15.2743 63.7296 14.966C63.4493 14.6577 63.0661 14.5036 62.5802 14.5036C62.0709 14.5036 61.6574 14.6741 61.3397 15.0151C61.0219 15.3514 60.8304 15.7695 60.7649 16.2693H64.1502Z" fill="#707070"/>
<path d="M70.705 17.1242V20.6207H69.0369V10.5726H72.1348C73.2889 10.5726 74.1743 10.8436 74.7911 11.3854C75.4125 11.9226 75.7232 12.6981 75.7232 13.7118C75.7232 14.7441 75.3775 15.571 74.6859 16.1922C73.9944 16.8135 73.0623 17.1242 71.8895 17.1242H70.705ZM70.705 11.939V15.7508H71.8124C72.5086 15.7508 73.0412 15.5803 73.4104 15.2393C73.7842 14.8936 73.9711 14.4078 73.9711 13.7818C73.9711 13.1792 73.7958 12.7214 73.4454 12.4085C73.0996 12.0955 72.5857 11.939 71.9035 11.939H70.705Z" fill="#707070"/>
<path d="M76.2497 20.6207V9.99805H77.8828V20.6207H76.2497Z" fill="#707070"/>
<path d="M84.4858 20.6207H82.9089V19.7308H82.8808C82.6285 20.0765 82.3201 20.3404 81.9557 20.5226C81.5912 20.7001 81.1847 20.7888 80.7361 20.7888C80.0727 20.7888 79.5283 20.5996 79.1031 20.2213C78.6826 19.8429 78.4723 19.3477 78.4723 18.7358C78.4723 18.0771 78.6826 17.5493 79.1031 17.1522C79.5283 16.7505 80.1357 16.5052 80.9254 16.4165L82.9159 16.1922V15.8489C82.9159 15.4051 82.792 15.0735 82.5444 14.8539C82.2968 14.6297 81.972 14.5176 81.5702 14.5176C81.173 14.5176 80.8389 14.6063 80.5679 14.7838C80.2969 14.9613 80.0727 15.2159 79.8951 15.5476L78.6756 14.924C78.9186 14.4428 79.3017 14.0481 79.825 13.7398C80.3483 13.4315 80.9698 13.2773 81.6893 13.2773C82.5958 13.2773 83.2873 13.5156 83.7639 13.992C84.2452 14.4638 84.4858 15.1505 84.4858 16.0521V20.6207ZM82.9159 17.7058V17.3134L81.1847 17.5026C80.7875 17.5446 80.4979 17.6544 80.3156 17.8319C80.1334 18.0094 80.0423 18.2476 80.0423 18.5466C80.0423 18.8502 80.1451 19.0978 80.3507 19.2893C80.5609 19.4762 80.8319 19.5696 81.1637 19.5696C81.687 19.5696 82.1099 19.3944 82.4323 19.0441C82.7547 18.6891 82.9159 18.243 82.9159 17.7058Z" fill="#707070"/>
<path d="M92 13.4455L88.6638 22.0501C88.4162 22.6901 88.0821 23.1736 87.6616 23.5006C87.2458 23.8322 86.7388 23.998 86.1407 23.998C85.851 23.998 85.5777 23.9653 85.3207 23.8999C85.0684 23.8392 84.8277 23.7411 84.5988 23.6057L85.3067 22.4565C85.4515 22.5406 85.5823 22.599 85.6992 22.6317C85.816 22.6691 85.9375 22.6877 86.0636 22.6877C86.2832 22.6877 86.4701 22.6317 86.6243 22.5196C86.7832 22.4121 86.9257 22.2136 87.0518 21.924L87.5775 20.7048L84.76 13.4455H86.5402L88.1873 18.2033C88.2387 18.3481 88.2784 18.4765 88.3064 18.5886C88.3344 18.7007 88.3671 18.8386 88.4045 19.0021H88.4396C88.4723 18.8386 88.505 18.7031 88.5377 18.5956C88.5751 18.4882 88.6171 18.3621 88.6638 18.2173L90.3249 13.4455H92Z" fill="#707070"/>
<defs>
<linearGradient id="paint0_linear_312_3409" x1="16.7205" y1="-5.71487" x2="-5.28525" y2="0.152725" gradientUnits="userSpaceOnUse">
<stop stop-color="#047ED6"/>
<stop offset="1" stop-color="#50E6FF"/>
</linearGradient>
<linearGradient id="paint1_linear_312_3409" x1="19.6335" y1="10.5796" x2="8.22496" y2="10.5796" gradientUnits="userSpaceOnUse">
<stop stop-color="#FFDA1C"/>
<stop offset="1" stop-color="#FEB705"/>
</linearGradient>
<linearGradient id="paint2_linear_312_3409" x1="12.219" y1="12.4692" x2="-0.891946" y2="34.5396" gradientUnits="userSpaceOnUse">
<stop stop-color="#D9414F"/>
<stop offset="1" stop-color="#8C193F"/>
</linearGradient>
<linearGradient id="paint3_linear_312_3409" x1="-2.20987" y1="-5.73594" x2="3.639" y2="4.12202" gradientUnits="userSpaceOnUse">
<stop stop-color="#33C481"/>
<stop offset="1" stop-color="#61E3A7"/>
</linearGradient>
</defs>
</svg>
