<svg width="73" height="50" viewBox="0 0 73 50" fill="none" xmlns="http://www.w3.org/2000/svg">
<path d="M72.0984 36L68.2984 32.2L63.4984 37.0999L58.6984 32.2L54.8984 36L59.6984 40.7999L54.8984 45.5999L58.6984 49.4L63.4984 44.5999L68.2984 49.4L72.0984 45.5999L67.1984 40.7999L72.0984 36Z" stroke="#D6D6D6" stroke-miterlimit="10" stroke-linecap="round" stroke-linejoin="round"/>
<path d="M45.2992 36L41.5992 32.2L36.7992 37.0999L31.8992 32.2L28.1992 36L32.9992 40.7999L28.1992 45.5999L31.8992 49.4L36.7992 44.5999L41.5992 49.4L45.2992 45.5999L40.4992 40.7999L45.2992 36Z" stroke="white" stroke-miterlimit="10" stroke-linecap="round" stroke-linejoin="round"/>
<path d="M18.5984 36L14.7984 32.2L9.99844 37.0999L5.19844 32.2L1.39844 36L6.29844 40.7999L1.39844 45.5999L5.19844 49.4L9.99844 44.5999L14.7984 49.4L18.5984 45.5999L13.7984 40.7999L18.5984 36Z" stroke="#D6D6D6" stroke-miterlimit="10" stroke-linecap="round" stroke-linejoin="round"/>
<path d="M72.0984 4.7L68.2984 1L63.4984 5.8L58.6984 1L54.8984 4.7L59.6984 9.6L54.8984 14.4L58.6984 18.2L63.4984 13.3L68.2984 18.2L72.0984 14.4L67.1984 9.6L72.0984 4.7Z" stroke="white" stroke-miterlimit="10" stroke-linecap="round" stroke-linejoin="round"/>
<path d="M45.2992 4.7L41.5992 1L36.7992 5.8L31.8992 1L28.1992 4.7L32.9992 9.6L28.1992 14.4L31.8992 18.2L36.7992 13.3L41.5992 18.2L45.2992 14.4L40.4992 9.6L45.2992 4.7Z" stroke="#D6D6D6" stroke-miterlimit="10" stroke-linecap="round" stroke-linejoin="round"/>
<path d="M18.5984 4.7L14.7984 1L9.99844 5.8L5.19844 1L1.39844 4.7L6.29844 9.6L1.39844 14.4L5.19844 18.2L9.99844 13.3L14.7984 18.2L18.5984 14.4L13.7984 9.6L18.5984 4.7Z" stroke="white" stroke-miterlimit="10" stroke-linecap="round" stroke-linejoin="round"/>
</svg>
