<svg width="264" height="157" viewBox="0 0 264 157" fill="none" xmlns="http://www.w3.org/2000/svg">
<path d="M150.925 0C151.61 0 151.953 0.198726 151.953 0.596178C157.326 0.198726 161.277 0 163.805 0H201.26C214.851 0 223.964 1.3343 228.6 4.00291C231.813 5.02493 233.788 6.18889 234.526 7.49481C234.157 8.17615 233.973 8.94267 233.973 9.79435C239.557 12.6901 244.377 19.0493 248.433 28.872C250.962 37.0482 252.226 43.2087 252.226 47.3536C252.226 48.773 251.699 53.4005 250.646 61.236C252.753 61.236 253.806 61.6334 253.806 62.4283C249.75 74.4087 243.323 83.2662 234.526 89.0008L226.466 92.4076V93.0038C227.309 93.8554 229.284 96.9499 232.392 102.287C231.234 103.025 230.338 103.394 229.706 103.394L230.259 104.587V105.183C223.78 105.523 219.486 105.694 217.379 105.694V106.29C217.484 107.085 217.853 107.482 218.485 107.482H231.839L236.659 113.785C240.189 113.785 242.507 115.715 243.613 119.576V120.172C241.822 120.172 240.926 120.57 240.926 121.365C252.042 138.569 257.599 147.426 257.599 147.937C256.177 148.221 255.466 148.59 255.466 149.044C257.941 153.076 259.179 155.404 259.179 156.028L258.152 156.539H231.286C228.284 156.539 223.463 156.369 216.826 156.028C213.981 151.656 212.559 149.328 212.559 149.044C213.139 148.647 214.034 148.448 215.246 148.448V147.937C204.868 130.96 199.679 121.705 199.679 120.172H201.813V118.98C200.706 115.176 198.573 113.274 195.412 113.274C192.62 109.413 190.46 107.482 188.933 107.482H179.293V110.378C179.293 110.719 179.135 110.889 178.819 110.889L179.293 112.081V138.654H185.219C185.956 138.768 186.325 139.165 186.325 139.846C186.325 140.584 185.956 140.953 185.219 140.953H179.293C179.293 142.884 179.135 143.849 178.819 143.849L179.293 145.042V151.94C179.293 152.792 179.135 153.558 178.819 154.24C179.135 154.978 179.293 155.574 179.293 156.028L178.265 156.539H156.299C152.716 156.539 147.343 156.369 140.179 156.028V142.146C140.284 141.351 140.653 140.953 141.285 140.953H147.133V139.25H141.285C140.548 139.25 140.179 138.853 140.179 138.058V108.079L137.492 107.482H126.825C126.087 107.482 125.719 107.085 125.719 106.29L126.825 105.694C135.728 105.523 140.179 105.154 140.179 104.587C140.179 103.394 140.548 102.798 141.285 102.798C141.97 103.196 142.497 103.394 142.866 103.394L143.419 102.287V62.9394C143.524 62.2012 143.866 61.8322 144.446 61.8322H147.133L147.686 58.3403C147.001 57.9428 146.474 57.7441 146.105 57.7441C142.945 58.1415 141.154 58.3403 140.732 58.3403C140.732 55.2742 139.31 53.7412 136.465 53.7412V50.8455L140.179 48.5459V9.79435L143.419 7.49481V1.70337C143.524 0.96524 143.866 0.596178 144.446 0.596178H148.239C149.45 0.596178 150.346 0.397452 150.925 0ZM179.293 30.6606C179.293 31.0013 179.135 31.1716 178.819 31.1716C179.135 35.0326 179.293 37.9283 179.293 39.8588V43.3507C179.293 43.7481 179.135 43.9468 178.819 43.9468L179.293 45.054V45.6502C179.293 49.1137 177.87 50.8455 175.026 50.8455V54.3374C177.87 54.5645 179.293 55.1323 179.293 56.0407H178.819C179.135 56.7789 179.293 57.3466 179.293 57.7441H192.173V58.9364H187.352L185.219 61.8322H182.532V67.6236H199.126C206.343 67.6236 211.189 65.6931 213.665 61.8322C217.195 61.8322 218.959 60.4695 218.959 57.7441H214.139L213.112 57.2331C213.797 54.5645 214.139 52.2365 214.139 50.2493V45.6502C214.139 41.6189 210.926 37.1901 204.499 32.3639C203.709 31.569 200.153 31.0013 193.832 30.6606L192.726 31.1716L191.619 30.6606C191.303 30.6606 191.145 30.8309 191.145 31.1716C189.881 30.8309 189.144 30.6606 188.933 30.6606C185.825 31.0013 184.06 31.1716 183.639 31.1716C181.637 30.8309 180.188 30.6606 179.293 30.6606ZM148.792 58.3403V58.9364H149.819V58.3403H148.792ZM151.478 58.3403V58.9364H152.506V58.3403H151.478ZM252.779 57.7441H254.359V58.9364H252.779V57.7441ZM256.493 57.7441H258.152V58.9364H256.493V57.7441ZM259.179 57.7441H263.999V58.9364H259.179V57.7441ZM180.952 103.394L179.846 102.798C179.846 103.593 179.503 103.99 178.819 103.99C179.135 104.729 179.293 105.296 179.293 105.694C182.875 105.353 185.561 105.183 187.352 105.183H187.906L188.933 105.694L191.145 101.691C189.723 98.2274 188.827 96.4957 188.459 96.4957H183.639C182.901 96.4957 182.348 98.7952 181.979 103.394H180.952ZM164.832 105.694V106.29C164.938 107.085 165.307 107.482 165.939 107.482H175.579C176.264 107.482 176.606 107.085 176.606 106.29V105.694H164.832ZM207.739 149.044H208.766C208.766 149.669 209.135 150.436 209.872 151.344V152.536C209.398 152.48 208.687 151.514 207.739 149.641V149.044ZM211.453 154.836H212.006V156.028H211.453V154.836Z" fill="white"/>
<path d="M71.748 0.085083H103.276C103.908 0.198641 106.779 8.26124 111.889 24.2729L113.469 25.3801H118.842C119.791 26.175 124.058 38.496 131.643 62.3431L135.436 73.8408L134.33 74.437H122.003V75.0332C122.003 77.0772 123.083 78.2128 125.243 78.4399L128.483 77.9289H128.957C130.484 78.7806 135.489 93.3727 143.97 121.705L142.864 122.302C141.652 121.904 140.941 121.705 140.73 121.705C140.414 121.705 140.256 121.904 140.256 122.302L136.463 121.705H133.777C133.092 121.819 132.75 122.216 132.75 122.898C134.646 129.03 135.884 132.096 136.463 132.096H147.21C147.895 132.209 148.237 132.607 148.237 133.288V133.799C148.237 134.594 147.895 134.992 147.21 134.992H135.436C134.593 134.992 133.882 134.793 133.303 134.395C132.671 134.793 131.933 134.992 131.09 134.992H119.87L116.156 134.395L115.603 135.588C115.708 136.326 116.077 136.695 116.709 136.695H148.79C149.844 136.695 152.162 143.054 155.744 155.773V156.369H115.603C115.023 156.369 112.89 149.811 109.202 136.695H80.835C80.0448 136.695 79.3337 136.525 78.7015 136.184C78.0694 136.525 77.3582 136.695 76.568 136.695C75.8305 136.695 75.4618 136.326 75.4618 135.588C75.8305 135.588 76.0149 135.389 76.0149 134.992C82.5997 134.594 87.4198 134.395 90.4751 134.395H107.622C108.307 134.395 108.649 134.026 108.649 133.288L107.069 132.096H96.3224C95.901 132.096 94.8474 130.364 93.1617 126.901H88.8948V127.497C88.8948 127.838 89.0528 129.371 89.3689 132.096H84.5488C84.1801 132.096 82.9421 130.364 80.835 126.901H49.7811C47.7266 126.901 46.4887 128.434 46.0673 131.5L47.0945 132.096H56.1815C56.919 132.209 57.2878 132.607 57.2878 133.288V133.799L50.3342 156.369H9.64015V155.773L17.1468 132.692L1.10625 132.096C0.368749 132.096 0 131.727 0 130.989C1.79107 124.8 3.05535 121.705 3.79284 121.705H18.2531C20.8343 121.705 22.599 118.441 23.5472 111.911C24.1794 111.854 25.9704 107.056 28.9204 97.5176L34.8468 79.0361V78.4399H29.4736C28.7361 74.8628 28.6044 73.6137 29.0785 74.6925C28.6044 74.1247 33.3718 73.8408 43.3807 73.8408C43.9074 73.7272 46.7521 65.8634 51.9146 50.2492L59.4212 26.5724V25.9762H56.7346V25.3801C59.4212 15.5573 62.2922 7.296 65.3475 0.596093L71.748 0.085083ZM88.8948 50.2492C85.0493 66.3744 82.3627 74.437 80.835 74.437H68.5082C67.8234 74.437 67.2966 75.601 66.9279 77.9289H70.1676C72.2747 78.156 73.3283 78.7238 73.3283 79.6323C69.7462 91.499 67.9551 97.6595 67.9551 98.1138L70.6417 98.6248L74.4346 98.1138C75.1194 98.4544 75.6462 98.6248 76.0149 98.6248L79.2546 98.1138C79.5707 98.1138 79.7287 98.2841 79.7287 98.6248L82.4153 98.1138H91.5024C91.8711 98.1138 92.0555 98.2841 92.0555 98.6248C95.6376 98.2841 97.4287 97.7163 97.4287 96.9214V96.3252C96.1117 93.7702 94.505 88.7737 92.6086 81.3356C92.6086 79.3484 91.0019 78.2128 87.7885 77.9289C87.7885 76.9636 87.4198 75.9984 86.6823 75.0332C86.8403 74.2383 87.2091 73.8408 87.7885 73.8408H96.8756C95.0845 66.8002 92.7666 58.9364 89.922 50.2492H88.8948Z" fill="white"/>
</svg>
