<svg width="1247" height="185" viewBox="0 0 1247 185" fill="none" xmlns="http://www.w3.org/2000/svg">
<g filter="url(#filter0_f_20_662)">
<path d="M44.1122 87.6H19.7922L15.3122 100H7.63219L27.7922 44.56H36.1922L56.2722 100H48.5922L44.1122 87.6ZM42.0322 81.68L31.9522 53.52L21.8722 81.68H42.0322ZM73.9384 62.16V88C73.9384 90.1333 74.3918 91.6533 75.2984 92.56C76.2051 93.4133 77.7784 93.84 80.0184 93.84H85.3784V100H78.8184C74.7651 100 71.7251 99.0667 69.6984 97.2C67.6718 95.3333 66.6584 92.2667 66.6584 88V62.16H60.9784V56.16H66.6584V45.12H73.9384V56.16H85.3784V62.16H73.9384ZM124.407 62.16V88C124.407 90.1333 124.861 91.6533 125.767 92.56C126.674 93.4133 128.247 93.84 130.487 93.84H135.847V100H129.287C125.234 100 122.194 99.0667 120.167 97.2C118.141 95.3333 117.127 92.2667 117.127 88V62.16H111.447V56.16H117.127V45.12H124.407V56.16H135.847V62.16H124.407ZM166.428 55.36C169.734 55.36 172.721 56.08 175.388 57.52C178.054 58.9067 180.134 61.0133 181.628 63.84C183.174 66.6667 183.948 70.1067 183.948 74.16V100H176.748V75.2C176.748 70.8267 175.654 67.4933 173.468 65.2C171.281 62.8533 168.294 61.68 164.508 61.68C160.668 61.68 157.601 62.88 155.308 65.28C153.068 67.68 151.948 71.1733 151.948 75.76V100H144.668V40.8H151.948V62.4C153.388 60.16 155.361 58.4267 157.868 57.2C160.428 55.9733 163.281 55.36 166.428 55.36ZM235.84 76.4C235.84 77.7867 235.76 79.2533 235.6 80.8H200.56C200.826 85.12 202.293 88.5067 204.96 90.96C207.68 93.36 210.96 94.56 214.8 94.56C217.946 94.56 220.56 93.84 222.64 92.4C224.773 90.9067 226.266 88.9333 227.12 86.48H234.96C233.786 90.6933 231.44 94.1333 227.92 96.8C224.4 99.4133 220.026 100.72 214.8 100.72C210.64 100.72 206.906 99.7867 203.6 97.92C200.346 96.0533 197.786 93.4133 195.92 90C194.053 86.5333 193.12 82.5333 193.12 78C193.12 73.4667 194.026 69.4933 195.84 66.08C197.653 62.6667 200.186 60.0533 203.44 58.24C206.746 56.3733 210.533 55.44 214.8 55.44C218.96 55.44 222.64 56.3467 225.84 58.16C229.04 59.9733 231.493 62.48 233.2 65.68C234.96 68.8267 235.84 72.4 235.84 76.4ZM228.32 74.88C228.32 72.1067 227.706 69.7333 226.48 67.76C225.253 65.7333 223.573 64.2133 221.44 63.2C219.36 62.1333 217.04 61.6 214.48 61.6C210.8 61.6 207.653 62.7733 205.04 65.12C202.48 67.4667 201.013 70.72 200.64 74.88H228.32ZM284.617 62.16H275.417V100H268.137V62.16H262.457V56.16H268.137V53.04C268.137 48.1333 269.391 44.56 271.897 42.32C274.457 40.0267 278.537 38.88 284.137 38.88V44.96C280.937 44.96 278.671 45.6 277.337 46.88C276.057 48.1067 275.417 50.16 275.417 53.04V56.16H284.617V62.16ZM312.225 100.72C308.119 100.72 304.385 99.7867 301.025 97.92C297.719 96.0533 295.105 93.4133 293.185 90C291.319 86.5333 290.385 82.5333 290.385 78C290.385 73.52 291.345 69.5733 293.265 66.16C295.239 62.6933 297.905 60.0533 301.265 58.24C304.625 56.3733 308.385 55.44 312.545 55.44C316.705 55.44 320.465 56.3733 323.825 58.24C327.185 60.0533 329.825 62.6667 331.745 66.08C333.719 69.4933 334.705 73.4667 334.705 78C334.705 82.5333 333.692 86.5333 331.665 90C329.692 93.4133 326.999 96.0533 323.585 97.92C320.172 99.7867 316.385 100.72 312.225 100.72ZM312.225 94.32C314.839 94.32 317.292 93.7067 319.585 92.48C321.879 91.2533 323.719 89.4133 325.105 86.96C326.545 84.5067 327.265 81.52 327.265 78C327.265 74.48 326.572 71.4933 325.185 69.04C323.799 66.5867 321.985 64.7733 319.745 63.6C317.505 62.3733 315.079 61.76 312.465 61.76C309.799 61.76 307.345 62.3733 305.105 63.6C302.919 64.7733 301.159 66.5867 299.825 69.04C298.492 71.4933 297.825 74.48 297.825 78C297.825 81.5733 298.465 84.5867 299.745 87.04C301.079 89.4933 302.839 91.3333 305.025 92.56C307.212 93.7333 309.612 94.32 312.225 94.32ZM351.557 63.28C352.837 60.7733 354.651 58.8267 356.997 57.44C359.397 56.0533 362.304 55.36 365.717 55.36V62.88H363.797C355.637 62.88 351.557 67.3067 351.557 76.16V100H344.277V56.16H351.557V63.28ZM414.121 76.4C414.121 77.7867 414.041 79.2533 413.881 80.8H378.841C379.108 85.12 380.574 88.5067 383.241 90.96C385.961 93.36 389.241 94.56 393.081 94.56C396.228 94.56 398.841 93.84 400.921 92.4C403.054 90.9067 404.548 88.9333 405.401 86.48H413.241C412.068 90.6933 409.721 94.1333 406.201 96.8C402.681 99.4133 398.308 100.72 393.081 100.72C388.921 100.72 385.188 99.7867 381.881 97.92C378.628 96.0533 376.068 93.4133 374.201 90C372.334 86.5333 371.401 82.5333 371.401 78C371.401 73.4667 372.308 69.4933 374.121 66.08C375.934 62.6667 378.468 60.0533 381.721 58.24C385.028 56.3733 388.814 55.44 393.081 55.44C397.241 55.44 400.921 56.3467 404.121 58.16C407.321 59.9733 409.774 62.48 411.481 65.68C413.241 68.8267 414.121 72.4 414.121 76.4ZM406.601 74.88C406.601 72.1067 405.988 69.7333 404.761 67.76C403.534 65.7333 401.854 64.2133 399.721 63.2C397.641 62.1333 395.321 61.6 392.761 61.6C389.081 61.6 385.934 62.7733 383.321 65.12C380.761 67.4667 379.294 70.72 378.921 74.88H406.601ZM441.57 62.16H432.37V100H425.09V62.16H419.41V56.16H425.09V53.04C425.09 48.1333 426.344 44.56 428.85 42.32C431.41 40.0267 435.49 38.88 441.09 38.88V44.96C437.89 44.96 435.624 45.6 434.29 46.88C433.01 48.1067 432.37 50.16 432.37 53.04V56.16H441.57V62.16ZM457.338 63.28C458.618 60.7733 460.432 58.8267 462.778 57.44C465.178 56.0533 468.085 55.36 471.498 55.36V62.88H469.578C461.418 62.88 457.338 67.3067 457.338 76.16V100H450.058V56.16H457.338V63.28ZM499.022 100.72C494.916 100.72 491.182 99.7867 487.822 97.92C484.516 96.0533 481.902 93.4133 479.982 90C478.116 86.5333 477.182 82.5333 477.182 78C477.182 73.52 478.142 69.5733 480.062 66.16C482.036 62.6933 484.702 60.0533 488.062 58.24C491.422 56.3733 495.182 55.44 499.342 55.44C503.502 55.44 507.262 56.3733 510.622 58.24C513.982 60.0533 516.622 62.6667 518.542 66.08C520.516 69.4933 521.502 73.4667 521.502 78C521.502 82.5333 520.489 86.5333 518.462 90C516.489 93.4133 513.796 96.0533 510.382 97.92C506.969 99.7867 503.182 100.72 499.022 100.72ZM499.022 94.32C501.636 94.32 504.089 93.7067 506.382 92.48C508.676 91.2533 510.516 89.4133 511.902 86.96C513.342 84.5067 514.062 81.52 514.062 78C514.062 74.48 513.369 71.4933 511.982 69.04C510.596 66.5867 508.782 64.7733 506.542 63.6C504.302 62.3733 501.876 61.76 499.262 61.76C496.596 61.76 494.142 62.3733 491.902 63.6C489.716 64.7733 487.956 66.5867 486.622 69.04C485.289 71.4933 484.622 74.48 484.622 78C484.622 81.5733 485.262 84.5867 486.542 87.04C487.876 89.4933 489.636 91.3333 491.822 92.56C494.009 93.7333 496.409 94.32 499.022 94.32ZM552.434 55.36C557.767 55.36 562.087 56.9867 565.394 60.24C568.701 63.44 570.354 68.08 570.354 74.16V100H563.154V75.2C563.154 70.8267 562.061 67.4933 559.874 65.2C557.687 62.8533 554.701 61.68 550.914 61.68C547.074 61.68 544.007 62.88 541.714 65.28C539.474 67.68 538.354 71.1733 538.354 75.76V100H531.074V56.16H538.354V62.4C539.794 60.16 541.741 58.4267 544.194 57.2C546.701 55.9733 549.447 55.36 552.434 55.36ZM591.126 62.16V88C591.126 90.1333 591.579 91.6533 592.486 92.56C593.393 93.4133 594.966 93.84 597.206 93.84H602.566V100H596.006C591.953 100 588.913 99.0667 586.886 97.2C584.859 95.3333 583.846 92.2667 583.846 88V62.16H578.166V56.16H583.846V45.12H591.126V56.16H602.566V62.16H591.126ZM651.835 100.72C647.728 100.72 643.995 99.7867 640.635 97.92C637.328 96.0533 634.715 93.4133 632.795 90C630.928 86.5333 629.995 82.5333 629.995 78C629.995 73.52 630.955 69.5733 632.875 66.16C634.848 62.6933 637.515 60.0533 640.875 58.24C644.235 56.3733 647.995 55.44 652.155 55.44C656.315 55.44 660.075 56.3733 663.435 58.24C666.795 60.0533 669.435 62.6667 671.355 66.08C673.328 69.4933 674.315 73.4667 674.315 78C674.315 82.5333 673.301 86.5333 671.275 90C669.301 93.4133 666.608 96.0533 663.195 97.92C659.781 99.7867 655.995 100.72 651.835 100.72ZM651.835 94.32C654.448 94.32 656.901 93.7067 659.195 92.48C661.488 91.2533 663.328 89.4133 664.715 86.96C666.155 84.5067 666.875 81.52 666.875 78C666.875 74.48 666.181 71.4933 664.795 69.04C663.408 66.5867 661.595 64.7733 659.355 63.6C657.115 62.3733 654.688 61.76 652.075 61.76C649.408 61.76 646.955 62.3733 644.715 63.6C642.528 64.7733 640.768 66.5867 639.435 69.04C638.101 71.4933 637.435 74.48 637.435 78C637.435 81.5733 638.075 84.5867 639.355 87.04C640.688 89.4933 642.448 91.3333 644.635 92.56C646.821 93.7333 649.221 94.32 651.835 94.32ZM701.727 62.16H692.527V100H685.247V62.16H679.567V56.16H685.247V53.04C685.247 48.1333 686.5 44.56 689.007 42.32C691.567 40.0267 695.647 38.88 701.247 38.88V44.96C698.047 44.96 695.78 45.6 694.447 46.88C693.167 48.1067 692.527 50.16 692.527 53.04V56.16H701.727V62.16ZM740.423 62.16V88C740.423 90.1333 740.876 91.6533 741.783 92.56C742.689 93.4133 744.263 93.84 746.503 93.84H751.863V100H745.303C741.249 100 738.209 99.0667 736.183 97.2C734.156 95.3333 733.143 92.2667 733.143 88V62.16H727.463V56.16H733.143V45.12H740.423V56.16H751.863V62.16H740.423ZM767.963 63.28C769.243 60.7733 771.057 58.8267 773.403 57.44C775.803 56.0533 778.71 55.36 782.123 55.36V62.88H780.203C772.043 62.88 767.963 67.3067 767.963 76.16V100H760.683V56.16H767.963V63.28ZM787.807 77.92C787.807 73.44 788.714 69.52 790.527 66.16C792.341 62.7467 794.821 60.1067 797.967 58.24C801.167 56.3733 804.714 55.44 808.607 55.44C812.447 55.44 815.781 56.2667 818.607 57.92C821.434 59.5733 823.541 61.6533 824.927 64.16V56.16H832.287V100H824.927V91.84C823.487 94.4 821.327 96.5333 818.447 98.24C815.621 99.8933 812.314 100.72 808.527 100.72C804.634 100.72 801.114 99.76 797.967 97.84C794.821 95.92 792.341 93.2267 790.527 89.76C788.714 86.2933 787.807 82.3467 787.807 77.92ZM824.927 78C824.927 74.6933 824.261 71.8133 822.927 69.36C821.594 66.9067 819.781 65.04 817.487 63.76C815.247 62.4267 812.767 61.76 810.047 61.76C807.327 61.76 804.847 62.4 802.607 63.68C800.367 64.96 798.581 66.8267 797.247 69.28C795.914 71.7333 795.247 74.6133 795.247 77.92C795.247 81.28 795.914 84.2133 797.247 86.72C798.581 89.1733 800.367 91.0667 802.607 92.4C804.847 93.68 807.327 94.32 810.047 94.32C812.767 94.32 815.247 93.68 817.487 92.4C819.781 91.0667 821.594 89.1733 822.927 86.72C824.261 84.2133 824.927 81.3067 824.927 78ZM865.95 55.36C871.283 55.36 875.603 56.9867 878.91 60.24C882.216 63.44 883.87 68.08 883.87 74.16V100H876.67V75.2C876.67 70.8267 875.576 67.4933 873.39 65.2C871.203 62.8533 868.216 61.68 864.43 61.68C860.59 61.68 857.523 62.88 855.23 65.28C852.99 67.68 851.87 71.1733 851.87 75.76V100H844.59V56.16H851.87V62.4C853.31 60.16 855.256 58.4267 857.71 57.2C860.216 55.9733 862.963 55.36 865.95 55.36ZM911.282 100.72C907.922 100.72 904.908 100.16 902.242 99.04C899.575 97.8667 897.468 96.2667 895.922 94.24C894.375 92.16 893.522 89.7867 893.362 87.12H900.882C901.095 89.3067 902.108 91.0933 903.922 92.48C905.788 93.8667 908.215 94.56 911.202 94.56C913.975 94.56 916.162 93.9467 917.762 92.72C919.362 91.4933 920.162 89.9467 920.162 88.08C920.162 86.16 919.308 84.7467 917.602 83.84C915.895 82.88 913.255 81.9467 909.682 81.04C906.428 80.1867 903.762 79.3333 901.682 78.48C899.655 77.5733 897.895 76.2667 896.402 74.56C894.962 72.8 894.242 70.5067 894.242 67.68C894.242 65.44 894.908 63.3867 896.242 61.52C897.575 59.6533 899.468 58.1867 901.922 57.12C904.375 56 907.175 55.44 910.322 55.44C915.175 55.44 919.095 56.6667 922.082 59.12C925.068 61.5733 926.668 64.9333 926.882 69.2H919.602C919.442 66.9067 918.508 65.0667 916.802 63.68C915.148 62.2933 912.908 61.6 910.082 61.6C907.468 61.6 905.388 62.16 903.842 63.28C902.295 64.4 901.522 65.8667 901.522 67.68C901.522 69.12 901.975 70.32 902.882 71.28C903.842 72.1867 905.015 72.9333 906.402 73.52C907.842 74.0533 909.815 74.6667 912.322 75.36C915.468 76.2133 918.028 77.0667 920.002 77.92C921.975 78.72 923.655 79.9467 925.042 81.6C926.482 83.2533 927.228 85.4133 927.282 88.08C927.282 90.48 926.615 92.64 925.282 94.56C923.948 96.48 922.055 98 919.602 99.12C917.202 100.187 914.428 100.72 911.282 100.72ZM955.398 62.16H946.198V100H938.918V62.16H933.238V56.16H938.918V53.04C938.918 48.1333 940.172 44.56 942.678 42.32C945.238 40.0267 949.318 38.88 954.918 38.88V44.96C951.718 44.96 949.452 45.6 948.118 46.88C946.838 48.1067 946.198 50.16 946.198 53.04V56.16H955.398V62.16ZM983.007 100.72C978.9 100.72 975.167 99.7867 971.807 97.92C968.5 96.0533 965.887 93.4133 963.967 90C962.1 86.5333 961.167 82.5333 961.167 78C961.167 73.52 962.127 69.5733 964.047 66.16C966.02 62.6933 968.687 60.0533 972.047 58.24C975.407 56.3733 979.167 55.44 983.327 55.44C987.487 55.44 991.247 56.3733 994.607 58.24C997.967 60.0533 1000.61 62.6667 1002.53 66.08C1004.5 69.4933 1005.49 73.4667 1005.49 78C1005.49 82.5333 1004.47 86.5333 1002.45 90C1000.47 93.4133 997.78 96.0533 994.367 97.92C990.953 99.7867 987.167 100.72 983.007 100.72ZM983.007 94.32C985.62 94.32 988.073 93.7067 990.367 92.48C992.66 91.2533 994.5 89.4133 995.887 86.96C997.327 84.5067 998.047 81.52 998.047 78C998.047 74.48 997.353 71.4933 995.967 69.04C994.58 66.5867 992.767 64.7733 990.527 63.6C988.287 62.3733 985.86 61.76 983.247 61.76C980.58 61.76 978.127 62.3733 975.887 63.6C973.7 64.7733 971.94 66.5867 970.607 69.04C969.273 71.4933 968.607 74.48 968.607 78C968.607 81.5733 969.247 84.5867 970.527 87.04C971.86 89.4933 973.62 91.3333 975.807 92.56C977.993 93.7333 980.393 94.32 983.007 94.32ZM1022.34 63.28C1023.62 60.7733 1025.43 58.8267 1027.78 57.44C1030.18 56.0533 1033.09 55.36 1036.5 55.36V62.88H1034.58C1026.42 62.88 1022.34 67.3067 1022.34 76.16V100H1015.06V56.16H1022.34V63.28ZM1097.62 55.36C1101.04 55.36 1104.08 56.08 1106.74 57.52C1109.41 58.9067 1111.52 61.0133 1113.06 63.84C1114.61 66.6667 1115.38 70.1067 1115.38 74.16V100H1108.18V75.2C1108.18 70.8267 1107.09 67.4933 1104.9 65.2C1102.77 62.8533 1099.86 61.68 1096.18 61.68C1092.4 61.68 1089.38 62.9067 1087.14 65.36C1084.9 67.76 1083.78 71.2533 1083.78 75.84V100H1076.58V75.2C1076.58 70.8267 1075.49 67.4933 1073.3 65.2C1071.17 62.8533 1068.26 61.68 1064.58 61.68C1060.8 61.68 1057.78 62.9067 1055.54 65.36C1053.3 67.76 1052.18 71.2533 1052.18 75.84V100H1044.9V56.16H1052.18V62.48C1053.62 60.1867 1055.54 58.4267 1057.94 57.2C1060.4 55.9733 1063.09 55.36 1066.02 55.36C1069.7 55.36 1072.96 56.1867 1075.78 57.84C1078.61 59.4933 1080.72 61.92 1082.1 65.12C1083.33 62.0267 1085.36 59.6267 1088.18 57.92C1091.01 56.2133 1094.16 55.36 1097.62 55.36ZM1131.08 49.04C1129.7 49.04 1128.52 48.56 1127.56 47.6C1126.6 46.64 1126.12 45.4667 1126.12 44.08C1126.12 42.6933 1126.6 41.52 1127.56 40.56C1128.52 39.6 1129.7 39.12 1131.08 39.12C1132.42 39.12 1133.54 39.6 1134.44 40.56C1135.4 41.52 1135.88 42.6933 1135.88 44.08C1135.88 45.4667 1135.4 46.64 1134.44 47.6C1133.54 48.56 1132.42 49.04 1131.08 49.04ZM1134.6 56.16V100H1127.32V56.16H1134.6ZM1168.37 55.36C1173.7 55.36 1178.02 56.9867 1181.33 60.24C1184.64 63.44 1186.29 68.08 1186.29 74.16V100H1179.09V75.2C1179.09 70.8267 1178 67.4933 1175.81 65.2C1173.62 62.8533 1170.64 61.68 1166.85 61.68C1163.01 61.68 1159.94 62.88 1157.65 65.28C1155.41 67.68 1154.29 71.1733 1154.29 75.76V100H1147.01V56.16H1154.29V62.4C1155.73 60.16 1157.68 58.4267 1160.13 57.2C1162.64 55.9733 1165.38 55.36 1168.37 55.36ZM1216.26 55.44C1220.05 55.44 1223.36 56.2667 1226.18 57.92C1229.06 59.5733 1231.2 61.6533 1232.58 64.16V56.16H1239.94V100.96C1239.94 104.96 1239.09 108.507 1237.38 111.6C1235.68 114.747 1233.22 117.2 1230.02 118.96C1226.88 120.72 1223.2 121.6 1218.98 121.6C1213.22 121.6 1208.42 120.24 1204.58 117.52C1200.74 114.8 1198.48 111.093 1197.78 106.4H1204.98C1205.78 109.067 1207.44 111.2 1209.94 112.8C1212.45 114.453 1215.46 115.28 1218.98 115.28C1222.98 115.28 1226.24 114.027 1228.74 111.52C1231.3 109.013 1232.58 105.493 1232.58 100.96V91.76C1231.14 94.32 1229.01 96.4533 1226.18 98.16C1223.36 99.8667 1220.05 100.72 1216.26 100.72C1212.37 100.72 1208.82 99.76 1205.62 97.84C1202.48 95.92 1200 93.2267 1198.18 89.76C1196.37 86.2933 1195.46 82.3467 1195.46 77.92C1195.46 73.44 1196.37 69.52 1198.18 66.16C1200 62.7467 1202.48 60.1067 1205.62 58.24C1208.82 56.3733 1212.37 55.44 1216.26 55.44ZM1232.58 78C1232.58 74.6933 1231.92 71.8133 1230.58 69.36C1229.25 66.9067 1227.44 65.04 1225.14 63.76C1222.9 62.4267 1220.42 61.76 1217.7 61.76C1214.98 61.76 1212.5 62.4 1210.26 63.68C1208.02 64.96 1206.24 66.8267 1204.9 69.28C1203.57 71.7333 1202.9 74.6133 1202.9 77.92C1202.9 81.28 1203.57 84.2133 1204.9 86.72C1206.24 89.1733 1208.02 91.0667 1210.26 92.4C1212.5 93.68 1214.98 94.32 1217.7 94.32C1220.42 94.32 1222.9 93.68 1225.14 92.4C1227.44 91.0667 1229.25 89.1733 1230.58 86.72C1231.92 84.2133 1232.58 81.3067 1232.58 78Z" fill="white" fill-opacity="0.3"/>
</g>
<g filter="url(#filter1_f_20_662)">
<path d="M311.912 90.36C315.219 90.36 318.206 91.08 320.872 92.52C323.539 93.9067 325.619 96.0133 327.112 98.84C328.659 101.667 329.432 105.107 329.432 109.16V135H322.232V110.2C322.232 105.827 321.139 102.493 318.952 100.2C316.766 97.8533 313.779 96.68 309.992 96.68C306.152 96.68 303.086 97.88 300.792 100.28C298.552 102.68 297.432 106.173 297.432 110.76V135H290.152V75.8H297.432V97.4C298.872 95.16 300.846 93.4267 303.352 92.2C305.912 90.9733 308.766 90.36 311.912 90.36ZM380.204 91.16V135H372.924V128.52C371.537 130.76 369.591 132.52 367.084 133.8C364.631 135.027 361.911 135.64 358.924 135.64C355.511 135.64 352.444 134.947 349.724 133.56C347.004 132.12 344.844 129.987 343.244 127.16C341.697 124.333 340.924 120.893 340.924 116.84V91.16H348.124V115.88C348.124 120.2 349.217 123.533 351.404 125.88C353.591 128.173 356.577 129.32 360.364 129.32C364.257 129.32 367.324 128.12 369.564 125.72C371.804 123.32 372.924 119.827 372.924 115.24V91.16H380.204ZM445.216 90.36C448.629 90.36 451.669 91.08 454.336 92.52C457.003 93.9067 459.109 96.0133 460.656 98.84C462.203 101.667 462.976 105.107 462.976 109.16V135H455.776V110.2C455.776 105.827 454.683 102.493 452.496 100.2C450.363 97.8533 447.456 96.68 443.776 96.68C439.989 96.68 436.976 97.9067 434.736 100.36C432.496 102.76 431.376 106.253 431.376 110.84V135H424.176V110.2C424.176 105.827 423.083 102.493 420.896 100.2C418.763 97.8533 415.856 96.68 412.176 96.68C408.389 96.68 405.376 97.9067 403.136 100.36C400.896 102.76 399.776 106.253 399.776 110.84V135H392.496V91.16H399.776V97.48C401.216 95.1867 403.136 93.4267 405.536 92.2C407.989 90.9733 410.683 90.36 413.616 90.36C417.296 90.36 420.549 91.1867 423.376 92.84C426.203 94.4933 428.309 96.92 429.696 100.12C430.923 97.0267 432.949 94.6267 435.776 92.92C438.603 91.2133 441.749 90.36 445.216 90.36ZM472.198 112.92C472.198 108.44 473.104 104.52 474.918 101.16C476.731 97.7467 479.211 95.1067 482.358 93.24C485.558 91.3733 489.104 90.44 492.998 90.44C496.838 90.44 500.171 91.2667 502.998 92.92C505.824 94.5733 507.931 96.6533 509.318 99.16V91.16H516.678V135H509.318V126.84C507.878 129.4 505.718 131.533 502.838 133.24C500.011 134.893 496.704 135.72 492.918 135.72C489.024 135.72 485.504 134.76 482.358 132.84C479.211 130.92 476.731 128.227 474.918 124.76C473.104 121.293 472.198 117.347 472.198 112.92ZM509.318 113C509.318 109.693 508.651 106.813 507.318 104.36C505.984 101.907 504.171 100.04 501.878 98.76C499.638 97.4267 497.158 96.76 494.438 96.76C491.718 96.76 489.238 97.4 486.998 98.68C484.758 99.96 482.971 101.827 481.638 104.28C480.304 106.733 479.638 109.613 479.638 112.92C479.638 116.28 480.304 119.213 481.638 121.72C482.971 124.173 484.758 126.067 486.998 127.4C489.238 128.68 491.718 129.32 494.438 129.32C497.158 129.32 499.638 128.68 501.878 127.4C504.171 126.067 505.984 124.173 507.318 121.72C508.651 119.213 509.318 116.307 509.318 113ZM550.34 90.36C555.674 90.36 559.994 91.9867 563.3 95.24C566.607 98.44 568.26 103.08 568.26 109.16V135H561.06V110.2C561.06 105.827 559.967 102.493 557.78 100.2C555.594 97.8533 552.607 96.68 548.82 96.68C544.98 96.68 541.914 97.88 539.62 100.28C537.38 102.68 536.26 106.173 536.26 110.76V135H528.98V91.16H536.26V97.4C537.7 95.16 539.647 93.4267 542.1 92.2C544.607 90.9733 547.354 90.36 550.34 90.36ZM605.24 84.04C603.854 84.04 602.68 83.56 601.72 82.6C600.76 81.64 600.28 80.4667 600.28 79.08C600.28 77.6933 600.76 76.52 601.72 75.56C602.68 74.6 603.854 74.12 605.24 74.12C606.574 74.12 607.694 74.6 608.6 75.56C609.56 76.52 610.04 77.6933 610.04 79.08C610.04 80.4667 609.56 81.64 608.6 82.6C607.694 83.56 606.574 84.04 605.24 84.04ZM608.76 91.16V135H601.48V91.16H608.76ZM642.528 90.36C647.861 90.36 652.181 91.9867 655.488 95.24C658.794 98.44 660.448 103.08 660.448 109.16V135H653.248V110.2C653.248 105.827 652.154 102.493 649.968 100.2C647.781 97.8533 644.794 96.68 641.008 96.68C637.168 96.68 634.101 97.88 631.808 100.28C629.568 102.68 628.448 106.173 628.448 110.76V135H621.168V91.16H628.448V97.4C629.888 95.16 631.834 93.4267 634.288 92.2C636.794 90.9733 639.541 90.36 642.528 90.36ZM681.22 97.16V123C681.22 125.133 681.673 126.653 682.58 127.56C683.486 128.413 685.06 128.84 687.3 128.84H692.66V135H686.1C682.046 135 679.006 134.067 676.98 132.2C674.953 130.333 673.94 127.267 673.94 123V97.16H668.26V91.16H673.94V80.12H681.22V91.16H692.66V97.16H681.22ZM741.48 111.4C741.48 112.787 741.4 114.253 741.24 115.8H706.2C706.467 120.12 707.934 123.507 710.6 125.96C713.32 128.36 716.6 129.56 720.44 129.56C723.587 129.56 726.2 128.84 728.28 127.4C730.414 125.907 731.907 123.933 732.76 121.48H740.6C739.427 125.693 737.08 129.133 733.56 131.8C730.04 134.413 725.667 135.72 720.44 135.72C716.28 135.72 712.547 134.787 709.24 132.92C705.987 131.053 703.427 128.413 701.56 125C699.694 121.533 698.76 117.533 698.76 113C698.76 108.467 699.667 104.493 701.48 101.08C703.294 97.6667 705.827 95.0533 709.08 93.24C712.387 91.3733 716.174 90.44 720.44 90.44C724.6 90.44 728.28 91.3467 731.48 93.16C734.68 94.9733 737.134 97.48 738.84 100.68C740.6 103.827 741.48 107.4 741.48 111.4ZM733.96 109.88C733.96 107.107 733.347 104.733 732.12 102.76C730.894 100.733 729.214 99.2133 727.08 98.2C725 97.1333 722.68 96.6 720.12 96.6C716.44 96.6 713.294 97.7733 710.68 100.12C708.12 102.467 706.654 105.72 706.28 109.88H733.96ZM758.37 98.28C759.65 95.7733 761.463 93.8267 763.81 92.44C766.21 91.0533 769.116 90.36 772.53 90.36V97.88H770.61C762.45 97.88 758.37 102.307 758.37 111.16V135H751.09V91.16H758.37V98.28ZM778.213 112.92C778.213 108.44 779.12 104.52 780.933 101.16C782.747 97.7467 785.227 95.1067 788.373 93.24C791.573 91.3733 795.12 90.44 799.013 90.44C802.853 90.44 806.187 91.2667 809.013 92.92C811.84 94.5733 813.947 96.6533 815.333 99.16V91.16H822.693V135H815.333V126.84C813.893 129.4 811.733 131.533 808.853 133.24C806.027 134.893 802.72 135.72 798.933 135.72C795.04 135.72 791.52 134.76 788.373 132.84C785.227 130.92 782.747 128.227 780.933 124.76C779.12 121.293 778.213 117.347 778.213 112.92ZM815.333 113C815.333 109.693 814.667 106.813 813.333 104.36C812 101.907 810.187 100.04 807.893 98.76C805.653 97.4267 803.173 96.76 800.453 96.76C797.733 96.76 795.253 97.4 793.013 98.68C790.773 99.96 788.987 101.827 787.653 104.28C786.32 106.733 785.653 109.613 785.653 112.92C785.653 116.28 786.32 119.213 787.653 121.72C788.987 124.173 790.773 126.067 793.013 127.4C795.253 128.68 797.733 129.32 800.453 129.32C803.173 129.32 805.653 128.68 807.893 127.4C810.187 126.067 812 124.173 813.333 121.72C814.667 119.213 815.333 116.307 815.333 113ZM832.276 113C832.276 108.467 833.183 104.52 834.996 101.16C836.809 97.7467 839.316 95.1067 842.516 93.24C845.769 91.3733 849.476 90.44 853.636 90.44C859.023 90.44 863.449 91.7467 866.916 94.36C870.436 96.9733 872.756 100.6 873.876 105.24H866.036C865.289 102.573 863.823 100.467 861.636 98.92C859.503 97.3733 856.836 96.6 853.636 96.6C849.476 96.6 846.116 98.04 843.556 100.92C840.996 103.747 839.716 107.773 839.716 113C839.716 118.28 840.996 122.36 843.556 125.24C846.116 128.12 849.476 129.56 853.636 129.56C856.836 129.56 859.503 128.813 861.636 127.32C863.769 125.827 865.236 123.693 866.036 120.92H873.876C872.703 125.4 870.356 129 866.836 131.72C863.316 134.387 858.916 135.72 853.636 135.72C849.476 135.72 845.769 134.787 842.516 132.92C839.316 131.053 836.809 128.413 834.996 125C833.183 121.587 832.276 117.587 832.276 113ZM892.47 97.16V123C892.47 125.133 892.923 126.653 893.83 127.56C894.736 128.413 896.31 128.84 898.55 128.84H903.91V135H897.35C893.296 135 890.256 134.067 888.23 132.2C886.203 130.333 885.19 127.267 885.19 123V97.16H879.51V91.16H885.19V80.12H892.47V91.16H903.91V97.16H892.47ZM916.49 84.04C915.104 84.04 913.93 83.56 912.97 82.6C912.01 81.64 911.53 80.4667 911.53 79.08C911.53 77.6933 912.01 76.52 912.97 75.56C913.93 74.6 915.104 74.12 916.49 74.12C917.824 74.12 918.944 74.6 919.85 75.56C920.81 76.52 921.29 77.6933 921.29 79.08C921.29 80.4667 920.81 81.64 919.85 82.6C918.944 83.56 917.824 84.04 916.49 84.04ZM920.01 91.16V135H912.73V91.16H920.01ZM951.538 135.72C947.431 135.72 943.698 134.787 940.338 132.92C937.031 131.053 934.418 128.413 932.498 125C930.631 121.533 929.698 117.533 929.698 113C929.698 108.52 930.658 104.573 932.578 101.16C934.551 97.6933 937.218 95.0533 940.578 93.24C943.938 91.3733 947.698 90.44 951.858 90.44C956.018 90.44 959.778 91.3733 963.138 93.24C966.498 95.0533 969.138 97.6667 971.058 101.08C973.031 104.493 974.018 108.467 974.018 113C974.018 117.533 973.004 121.533 970.978 125C969.004 128.413 966.311 131.053 962.898 132.92C959.484 134.787 955.698 135.72 951.538 135.72ZM951.538 129.32C954.151 129.32 956.604 128.707 958.898 127.48C961.191 126.253 963.031 124.413 964.418 121.96C965.858 119.507 966.578 116.52 966.578 113C966.578 109.48 965.884 106.493 964.498 104.04C963.111 101.587 961.298 99.7733 959.058 98.6C956.818 97.3733 954.391 96.76 951.778 96.76C949.111 96.76 946.658 97.3733 944.418 98.6C942.231 99.7733 940.471 101.587 939.138 104.04C937.804 106.493 937.138 109.48 937.138 113C937.138 116.573 937.778 119.587 939.058 122.04C940.391 124.493 942.151 126.333 944.338 127.56C946.524 128.733 948.924 129.32 951.538 129.32ZM1004.95 90.36C1010.28 90.36 1014.6 91.9867 1017.91 95.24C1021.22 98.44 1022.87 103.08 1022.87 109.16V135H1015.67V110.2C1015.67 105.827 1014.58 102.493 1012.39 100.2C1010.2 97.8533 1007.22 96.68 1003.43 96.68C999.59 96.68 996.523 97.88 994.23 100.28C991.99 102.68 990.87 106.173 990.87 110.76V135H983.59V91.16H990.87V97.4C992.31 95.16 994.256 93.4267 996.71 92.2C999.216 90.9733 1001.96 90.36 1004.95 90.36Z" fill="white" fill-opacity="0.5"/>
</g>
<path d="M122.792 118.2L107.272 159H100.072L88.1522 127.4L76.2322 159H69.0322L53.5122 118.2H60.7122L72.7922 150.84L84.7122 118.2H91.8322L103.672 150.6L115.672 118.2H122.792ZM133.538 110.04C132.204 110.04 131.084 109.613 130.178 108.76C129.324 107.853 128.898 106.76 128.898 105.48C128.898 104.147 129.324 103.053 130.178 102.2C131.084 101.347 132.204 100.92 133.538 100.92C134.818 100.92 135.884 101.347 136.738 102.2C137.644 103.053 138.098 104.147 138.098 105.48C138.098 106.76 137.644 107.853 136.738 108.76C135.884 109.613 134.818 110.04 133.538 110.04ZM130.098 118.2H136.978V159H130.098V118.2ZM170.373 124.44H161.013V159H154.133V124.44H145.333V118.2H154.133V105.16L161.013 103.8V118.2H170.373V124.44ZM200.135 117.24C202.642 117.24 204.909 117.64 206.935 118.44C208.962 119.24 210.695 120.36 212.135 121.8C213.575 123.24 214.695 124.973 215.495 127C216.295 129.027 216.695 131.293 216.695 133.8V159H209.815V135.96C209.815 132.28 208.749 129.347 206.615 127.16C204.482 124.973 201.575 123.88 197.895 123.88C196.029 123.88 194.322 124.173 192.775 124.76C191.229 125.347 189.895 126.173 188.775 127.24C187.709 128.307 186.882 129.587 186.295 131.08C185.709 132.573 185.415 134.253 185.415 136.12V159H178.535V103.8H185.415V125C186.962 122.493 188.989 120.573 191.495 119.24C194.055 117.907 196.935 117.24 200.135 117.24ZM288.238 118.2V159H281.358V151.24C279.651 153.96 277.438 156.093 274.718 157.64C271.998 159.187 268.931 159.96 265.518 159.96C262.584 159.96 259.864 159.427 257.358 158.36C254.904 157.24 252.771 155.747 250.958 153.88C249.144 151.96 247.704 149.693 246.638 147.08C245.624 144.467 245.118 141.64 245.118 138.6C245.118 135.56 245.624 132.733 246.638 130.12C247.704 127.507 249.144 125.267 250.958 123.4C252.771 121.48 254.904 119.987 257.358 118.92C259.864 117.8 262.584 117.24 265.518 117.24C268.931 117.24 271.998 118.013 274.718 119.56C277.438 121.107 279.651 123.24 281.358 125.96V118.2H288.238ZM266.798 153.32C268.878 153.32 270.798 152.947 272.558 152.2C274.371 151.453 275.918 150.44 277.198 149.16C278.478 147.827 279.491 146.253 280.238 144.44C280.984 142.627 281.358 140.68 281.358 138.6C281.358 136.52 280.984 134.573 280.238 132.76C279.491 130.947 278.478 129.4 277.198 128.12C275.918 126.787 274.371 125.747 272.558 125C270.798 124.253 268.878 123.88 266.798 123.88C264.718 123.88 262.771 124.253 260.958 125C259.198 125.747 257.651 126.787 256.318 128.12C255.038 129.4 254.024 130.947 253.278 132.76C252.531 134.573 252.158 136.52 252.158 138.6C252.158 140.68 252.531 142.627 253.278 144.44C254.024 146.253 255.038 147.827 256.318 149.16C257.651 150.44 259.198 151.453 260.958 152.2C262.771 152.947 264.718 153.32 266.798 153.32ZM336.262 118.2V159H329.382V152.6C327.835 155 325.862 156.84 323.462 158.12C321.115 159.347 318.395 159.96 315.302 159.96C312.902 159.96 310.715 159.587 308.742 158.84C306.822 158.04 305.168 156.947 303.782 155.56C302.395 154.173 301.302 152.493 300.502 150.52C299.755 148.493 299.382 146.28 299.382 143.88V118.2H306.262V141.88C306.262 145.347 307.275 148.12 309.302 150.2C311.328 152.28 314.048 153.32 317.462 153.32C321.035 153.32 323.915 152.28 326.102 150.2C328.288 148.067 329.382 145.24 329.382 141.72V118.2H336.262ZM388.63 118.2V154.6C388.63 157.693 388.124 160.493 387.11 163C386.15 165.56 384.737 167.72 382.87 169.48C381.057 171.293 378.87 172.68 376.31 173.64C373.804 174.653 370.977 175.16 367.83 175.16C362.71 175.16 358.417 173.907 354.95 171.4C351.484 168.893 349.084 165.48 347.75 161.16H354.95C355.91 163.56 357.51 165.427 359.75 166.76C362.044 168.147 364.737 168.84 367.83 168.84C369.91 168.84 371.804 168.493 373.51 167.8C375.27 167.107 376.737 166.147 377.91 164.92C379.137 163.693 380.07 162.173 380.71 160.36C381.404 158.6 381.75 156.653 381.75 154.52V150.6C380.044 153.267 377.83 155.373 375.11 156.92C372.39 158.413 369.297 159.16 365.83 159.16C362.897 159.16 360.177 158.627 357.67 157.56C355.217 156.493 353.084 155.027 351.27 153.16C349.457 151.293 348.017 149.08 346.95 146.52C345.937 143.96 345.43 141.187 345.43 138.2C345.43 135.213 345.937 132.44 346.95 129.88C348.017 127.32 349.457 125.107 351.27 123.24C353.084 121.373 355.217 119.907 357.67 118.84C360.177 117.773 362.897 117.24 365.83 117.24C369.297 117.24 372.39 118.013 375.11 119.56C377.83 121.107 380.044 123.213 381.75 125.88V118.2H388.63ZM367.19 152.92C369.27 152.92 371.19 152.547 372.95 151.8C374.764 151.053 376.31 150.04 377.59 148.76C378.87 147.427 379.884 145.853 380.63 144.04C381.377 142.227 381.75 140.28 381.75 138.2C381.75 136.12 381.377 134.2 380.63 132.44C379.884 130.627 378.87 129.08 377.59 127.8C376.31 126.467 374.764 125.427 372.95 124.68C371.19 123.933 369.27 123.56 367.19 123.56C365.11 123.56 363.164 123.933 361.35 124.68C359.59 125.427 358.044 126.467 356.71 127.8C355.43 129.08 354.417 130.627 353.67 132.44C352.924 134.2 352.55 136.12 352.55 138.2C352.55 140.28 352.924 142.227 353.67 144.04C354.417 145.853 355.43 147.427 356.71 148.76C358.044 150.04 359.59 151.053 361.35 151.8C363.164 152.547 365.11 152.92 367.19 152.92ZM449.056 117.24C451.349 117.24 453.429 117.613 455.296 118.36C457.216 119.053 458.843 120.093 460.176 121.48C461.509 122.813 462.523 124.44 463.216 126.36C463.963 128.227 464.336 130.333 464.336 132.68V159H457.456V134.6C457.456 131.347 456.496 128.76 454.576 126.84C452.656 124.867 450.096 123.88 446.896 123.88C443.536 123.88 440.816 124.867 438.736 126.84C436.709 128.813 435.696 131.453 435.696 134.76V159H428.816V134.6C428.816 131.347 427.856 128.76 425.936 126.84C424.016 124.867 421.456 123.88 418.256 123.88C414.896 123.88 412.176 124.867 410.096 126.84C408.069 128.813 407.056 131.453 407.056 134.76V159H400.176V118.2H407.056V124.04C408.496 121.8 410.336 120.12 412.576 119C414.869 117.827 417.483 117.24 420.416 117.24C423.723 117.24 426.576 117.987 428.976 119.48C431.376 120.973 433.163 123.053 434.336 125.72C435.776 123 437.749 120.92 440.256 119.48C442.763 117.987 445.696 117.24 449.056 117.24ZM516.13 138.6C516.13 139.027 516.104 139.507 516.05 140.04C516.05 140.573 516.024 141.053 515.97 141.48H480.13C480.45 143.293 481.01 144.947 481.81 146.44C482.664 147.933 483.704 149.213 484.93 150.28C486.21 151.347 487.65 152.173 489.25 152.76C490.85 153.347 492.584 153.64 494.45 153.64C497.33 153.64 499.89 153.027 502.13 151.8C504.37 150.573 506.077 148.947 507.25 146.92H514.93C514.13 148.84 513.064 150.6 511.73 152.2C510.397 153.8 508.85 155.187 507.09 156.36C505.33 157.48 503.384 158.36 501.25 159C499.117 159.64 496.85 159.96 494.45 159.96C491.357 159.96 488.477 159.427 485.81 158.36C483.197 157.24 480.904 155.747 478.93 153.88C477.01 151.96 475.49 149.693 474.37 147.08C473.304 144.467 472.77 141.64 472.77 138.6C472.77 135.56 473.304 132.733 474.37 130.12C475.49 127.507 477.01 125.267 478.93 123.4C480.904 121.48 483.197 119.987 485.81 118.92C488.477 117.8 491.357 117.24 494.45 117.24C497.544 117.24 500.397 117.8 503.01 118.92C505.677 119.987 507.97 121.48 509.89 123.4C511.864 125.267 513.384 127.507 514.45 130.12C515.57 132.733 516.13 135.56 516.13 138.6ZM494.45 123.56C490.77 123.56 487.65 124.653 485.09 126.84C482.53 128.973 480.904 131.8 480.21 135.32H508.77C508.45 133.56 507.864 131.96 507.01 130.52C506.157 129.08 505.09 127.853 503.81 126.84C502.584 125.773 501.17 124.973 499.57 124.44C497.97 123.853 496.264 123.56 494.45 123.56ZM546.542 117.24C549.048 117.24 551.315 117.64 553.342 118.44C555.368 119.24 557.102 120.36 558.542 121.8C559.982 123.24 561.102 124.973 561.902 127C562.702 129.027 563.102 131.293 563.102 133.8V159H556.222V135.96C556.222 132.28 555.155 129.347 553.022 127.16C550.888 124.973 547.982 123.88 544.302 123.88C542.435 123.88 540.728 124.173 539.182 124.76C537.635 125.347 536.302 126.173 535.182 127.24C534.115 128.307 533.288 129.587 532.702 131.08C532.115 132.573 531.822 134.253 531.822 136.12V159H524.942V118.2H531.822V124.76C533.368 122.36 535.395 120.52 537.902 119.24C540.462 117.907 543.342 117.24 546.542 117.24ZM594.28 124.44H584.92V159H578.04V124.44H569.24V118.2H578.04V105.16L584.92 103.8V118.2H594.28V124.44ZM640.818 138.6C640.818 139.027 640.791 139.507 640.738 140.04C640.738 140.573 640.711 141.053 640.658 141.48H604.818C605.138 143.293 605.698 144.947 606.498 146.44C607.351 147.933 608.391 149.213 609.618 150.28C610.898 151.347 612.338 152.173 613.938 152.76C615.538 153.347 617.271 153.64 619.138 153.64C622.018 153.64 624.578 153.027 626.818 151.8C629.058 150.573 630.764 148.947 631.938 146.92H639.618C638.818 148.84 637.751 150.6 636.418 152.2C635.084 153.8 633.538 155.187 631.778 156.36C630.018 157.48 628.071 158.36 625.938 159C623.804 159.64 621.538 159.96 619.138 159.96C616.044 159.96 613.164 159.427 610.498 158.36C607.884 157.24 605.591 155.747 603.618 153.88C601.698 151.96 600.178 149.693 599.058 147.08C597.991 144.467 597.458 141.64 597.458 138.6C597.458 135.56 597.991 132.733 599.058 130.12C600.178 127.507 601.698 125.267 603.618 123.4C605.591 121.48 607.884 119.987 610.498 118.92C613.164 117.8 616.044 117.24 619.138 117.24C622.231 117.24 625.084 117.8 627.698 118.92C630.364 119.987 632.658 121.48 634.578 123.4C636.551 125.267 638.071 127.507 639.138 130.12C640.258 132.733 640.818 135.56 640.818 138.6ZM619.138 123.56C615.458 123.56 612.338 124.653 609.778 126.84C607.218 128.973 605.591 131.8 604.898 135.32H633.458C633.138 133.56 632.551 131.96 631.698 130.52C630.844 129.08 629.778 127.853 628.498 126.84C627.271 125.773 625.858 124.973 624.258 124.44C622.658 123.853 620.951 123.56 619.138 123.56ZM690.269 101.4V159H683.389V151.24C681.682 153.96 679.469 156.093 676.749 157.64C674.029 159.187 670.962 159.96 667.549 159.96C664.616 159.96 661.896 159.427 659.389 158.36C656.936 157.24 654.802 155.747 652.989 153.88C651.176 151.96 649.736 149.693 648.669 147.08C647.656 144.467 647.149 141.64 647.149 138.6C647.149 135.56 647.656 132.733 648.669 130.12C649.736 127.507 651.176 125.267 652.989 123.4C654.802 121.48 656.936 119.987 659.389 118.92C661.896 117.8 664.616 117.24 667.549 117.24C670.962 117.24 674.029 118.013 676.749 119.56C679.469 121.107 681.682 123.24 683.389 125.96V101.4H690.269ZM668.829 153.32C670.909 153.32 672.829 152.947 674.589 152.2C676.402 151.453 677.949 150.44 679.229 149.16C680.509 147.827 681.522 146.253 682.269 144.44C683.016 142.627 683.389 140.68 683.389 138.6C683.389 136.52 683.016 134.573 682.269 132.76C681.522 130.947 680.509 129.4 679.229 128.12C677.949 126.787 676.402 125.747 674.589 125C672.829 124.253 670.909 123.88 668.829 123.88C666.749 123.88 664.802 124.253 662.989 125C661.229 125.747 659.682 126.787 658.349 128.12C657.069 129.4 656.056 130.947 655.309 132.76C654.562 134.573 654.189 136.52 654.189 138.6C654.189 140.68 654.562 142.627 655.309 144.44C656.056 146.253 657.069 147.827 658.349 149.16C659.682 150.44 661.229 151.453 662.989 152.2C664.802 152.947 666.749 153.32 668.829 153.32ZM728.618 125.56C730.058 123.267 731.872 121.48 734.058 120.2C736.298 118.92 738.858 118.253 741.738 118.2H741.978H744.298V124.68H741.978H741.738C737.632 124.787 734.405 126.093 732.058 128.6C729.765 131.053 728.618 134.36 728.618 138.52V159H721.738V118.2H728.618V125.56ZM788.552 138.6C788.552 139.027 788.526 139.507 788.472 140.04C788.472 140.573 788.446 141.053 788.392 141.48H752.552C752.872 143.293 753.432 144.947 754.232 146.44C755.086 147.933 756.126 149.213 757.352 150.28C758.632 151.347 760.072 152.173 761.672 152.76C763.272 153.347 765.006 153.64 766.872 153.64C769.752 153.64 772.312 153.027 774.552 151.8C776.792 150.573 778.499 148.947 779.672 146.92H787.352C786.552 148.84 785.486 150.6 784.152 152.2C782.819 153.8 781.272 155.187 779.512 156.36C777.752 157.48 775.806 158.36 773.672 159C771.539 159.64 769.272 159.96 766.872 159.96C763.779 159.96 760.899 159.427 758.232 158.36C755.619 157.24 753.326 155.747 751.352 153.88C749.432 151.96 747.912 149.693 746.792 147.08C745.726 144.467 745.192 141.64 745.192 138.6C745.192 135.56 745.726 132.733 746.792 130.12C747.912 127.507 749.432 125.267 751.352 123.4C753.326 121.48 755.619 119.987 758.232 118.92C760.899 117.8 763.779 117.24 766.872 117.24C769.966 117.24 772.819 117.8 775.432 118.92C778.099 119.987 780.392 121.48 782.312 123.4C784.286 125.267 785.806 127.507 786.872 130.12C787.992 132.733 788.552 135.56 788.552 138.6ZM766.872 123.56C763.192 123.56 760.072 124.653 757.512 126.84C754.952 128.973 753.326 131.8 752.632 135.32H781.192C780.872 133.56 780.286 131.96 779.432 130.52C778.579 129.08 777.512 127.853 776.232 126.84C775.006 125.773 773.592 124.973 771.992 124.44C770.392 123.853 768.686 123.56 766.872 123.56ZM838.003 118.2V159H831.123V151.24C829.417 153.96 827.203 156.093 824.483 157.64C821.763 159.187 818.697 159.96 815.283 159.96C812.35 159.96 809.63 159.427 807.123 158.36C804.67 157.24 802.537 155.747 800.723 153.88C798.91 151.96 797.47 149.693 796.403 147.08C795.39 144.467 794.883 141.64 794.883 138.6C794.883 135.56 795.39 132.733 796.403 130.12C797.47 127.507 798.91 125.267 800.723 123.4C802.537 121.48 804.67 119.987 807.123 118.92C809.63 117.8 812.35 117.24 815.283 117.24C818.697 117.24 821.763 118.013 824.483 119.56C827.203 121.107 829.417 123.24 831.123 125.96V118.2H838.003ZM816.563 153.32C818.643 153.32 820.563 152.947 822.323 152.2C824.137 151.453 825.683 150.44 826.963 149.16C828.243 147.827 829.257 146.253 830.003 144.44C830.75 142.627 831.123 140.68 831.123 138.6C831.123 136.52 830.75 134.573 830.003 132.76C829.257 130.947 828.243 129.4 826.963 128.12C825.683 126.787 824.137 125.747 822.323 125C820.563 124.253 818.643 123.88 816.563 123.88C814.483 123.88 812.537 124.253 810.723 125C808.963 125.747 807.417 126.787 806.083 128.12C804.803 129.4 803.79 130.947 803.043 132.76C802.297 134.573 801.923 136.52 801.923 138.6C801.923 140.68 802.297 142.627 803.043 144.44C803.79 146.253 804.803 147.827 806.083 149.16C807.417 150.44 808.963 151.453 810.723 152.2C812.537 152.947 814.483 153.32 816.563 153.32ZM849.707 101.4H856.587V159H849.707V101.4ZM871.663 110.04C870.329 110.04 869.209 109.613 868.303 108.76C867.449 107.853 867.023 106.76 867.023 105.48C867.023 104.147 867.449 103.053 868.303 102.2C869.209 101.347 870.329 100.92 871.663 100.92C872.943 100.92 874.009 101.347 874.863 102.2C875.769 103.053 876.223 104.147 876.223 105.48C876.223 106.76 875.769 107.853 874.863 108.76C874.009 109.613 872.943 110.04 871.663 110.04ZM868.223 118.2H875.103V159H868.223V118.2ZM908.498 124.44H899.138V159H892.258V124.44H883.458V118.2H892.258V105.16L899.138 103.8V118.2H908.498V124.44ZM955.842 118.2L931.282 174.2H923.842L930.642 158.84L912.802 118.2H920.642L934.402 149.72L948.162 118.2H955.842Z" fill="white" fill-opacity="0.7"/>
<path d="M71.5922 3C70.7922 3 70.0922 2.3 70.0922 1.5C70.0922 0.7 70.7922 0 71.5922 0C72.3922 0 73.0922 0.7 73.0922 1.5C73.0922 2.3 72.4922 3 71.5922 3Z" fill="white"/>
<path d="M71.5922 9.2998C70.7922 9.2998 70.0922 8.5998 70.0922 7.7998C70.0922 6.9998 70.7922 6.2998 71.5922 6.2998C72.3922 6.2998 73.0922 6.9998 73.0922 7.7998C73.0922 8.5998 72.4922 9.2998 71.5922 9.2998Z" fill="white"/>
<path d="M71.5922 15.6001C70.7922 15.6001 70.0922 14.9001 70.0922 14.1001C70.0922 13.3001 70.7922 12.6001 71.5922 12.6001C72.3922 12.6001 73.0922 13.3001 73.0922 14.1001C73.0922 14.9001 72.4922 15.6001 71.5922 15.6001Z" fill="white"/>
<path d="M71.5922 21.8999C70.7922 21.8999 70.0922 21.1999 70.0922 20.3999C70.0922 19.5999 70.7922 18.8999 71.5922 18.8999C72.3922 18.8999 73.0922 19.5999 73.0922 20.3999C73.0922 21.1999 72.4922 21.8999 71.5922 21.8999Z" fill="white"/>
<path d="M64.7922 3C65.6207 3 66.2922 2.32843 66.2922 1.5C66.2922 0.671573 65.6207 0 64.7922 0C63.9638 0 63.2922 0.671573 63.2922 1.5C63.2922 2.32843 63.9638 3 64.7922 3Z" fill="white"/>
<path d="M64.7922 9.2998C65.6207 9.2998 66.2922 8.62823 66.2922 7.7998C66.2922 6.97138 65.6207 6.2998 64.7922 6.2998C63.9638 6.2998 63.2922 6.97138 63.2922 7.7998C63.2922 8.62823 63.9638 9.2998 64.7922 9.2998Z" fill="white"/>
<path d="M64.7922 15.6001C65.6207 15.6001 66.2922 14.9285 66.2922 14.1001C66.2922 13.2717 65.6207 12.6001 64.7922 12.6001C63.9638 12.6001 63.2922 13.2717 63.2922 14.1001C63.2922 14.9285 63.9638 15.6001 64.7922 15.6001Z" fill="white"/>
<path d="M64.7922 21.8999C65.6207 21.8999 66.2922 21.2283 66.2922 20.3999C66.2922 19.5715 65.6207 18.8999 64.7922 18.8999C63.9638 18.8999 63.2922 19.5715 63.2922 20.3999C63.2922 21.2283 63.9638 21.8999 64.7922 21.8999Z" fill="white"/>
<path d="M58.0922 3C57.2922 3 56.5922 2.3 56.5922 1.5C56.5922 0.7 57.2922 0 58.0922 0C58.8922 0 59.5922 0.7 59.5922 1.5C59.5922 2.3 58.8922 3 58.0922 3Z" fill="white"/>
<path d="M58.0922 9.2998C57.2922 9.2998 56.5922 8.5998 56.5922 7.7998C56.5922 6.9998 57.2922 6.2998 58.0922 6.2998C58.8922 6.2998 59.5922 6.9998 59.5922 7.7998C59.5922 8.5998 58.8922 9.2998 58.0922 9.2998Z" fill="white"/>
<path d="M58.0922 15.6001C57.2922 15.6001 56.5922 14.9001 56.5922 14.1001C56.5922 13.3001 57.2922 12.6001 58.0922 12.6001C58.8922 12.6001 59.5922 13.3001 59.5922 14.1001C59.5922 14.9001 58.8922 15.6001 58.0922 15.6001Z" fill="white"/>
<path d="M58.0922 21.8999C57.2922 21.8999 56.5922 21.1999 56.5922 20.3999C56.5922 19.5999 57.2922 18.8999 58.0922 18.8999C58.8922 18.8999 59.5922 19.5999 59.5922 20.3999C59.5922 21.1999 58.8922 21.8999 58.0922 21.8999Z" fill="white"/>
<path d="M51.2922 3C52.1207 3 52.7922 2.32843 52.7922 1.5C52.7922 0.671573 52.1207 0 51.2922 0C50.4638 0 49.7922 0.671573 49.7922 1.5C49.7922 2.32843 50.4638 3 51.2922 3Z" fill="white"/>
<path d="M51.2922 9.2998C52.1207 9.2998 52.7922 8.62823 52.7922 7.7998C52.7922 6.97138 52.1207 6.2998 51.2922 6.2998C50.4638 6.2998 49.7922 6.97138 49.7922 7.7998C49.7922 8.62823 50.4638 9.2998 51.2922 9.2998Z" fill="white"/>
<path d="M51.2922 15.6001C52.1207 15.6001 52.7922 14.9285 52.7922 14.1001C52.7922 13.2717 52.1207 12.6001 51.2922 12.6001C50.4638 12.6001 49.7922 13.2717 49.7922 14.1001C49.7922 14.9285 50.4638 15.6001 51.2922 15.6001Z" fill="white"/>
<path d="M51.2922 21.8999C52.1207 21.8999 52.7922 21.2283 52.7922 20.3999C52.7922 19.5715 52.1207 18.8999 51.2922 18.8999C50.4638 18.8999 49.7922 19.5715 49.7922 20.3999C49.7922 21.2283 50.4638 21.8999 51.2922 21.8999Z" fill="white"/>
<path d="M44.4922 3C43.6922 3 42.9922 2.3 42.9922 1.5C42.9922 0.7 43.6922 0 44.4922 0C45.2922 0 45.9922 0.7 45.9922 1.5C45.9922 2.3 45.2922 3 44.4922 3Z" fill="white"/>
<path d="M44.4922 9.2998C43.6922 9.2998 42.9922 8.5998 42.9922 7.7998C42.9922 6.9998 43.6922 6.2998 44.4922 6.2998C45.2922 6.2998 45.9922 6.9998 45.9922 7.7998C45.9922 8.5998 45.2922 9.2998 44.4922 9.2998Z" fill="white"/>
<path d="M44.4922 15.6001C43.6922 15.6001 42.9922 14.9001 42.9922 14.1001C42.9922 13.3001 43.6922 12.6001 44.4922 12.6001C45.2922 12.6001 45.9922 13.3001 45.9922 14.1001C45.9922 14.9001 45.2922 15.6001 44.4922 15.6001Z" fill="white"/>
<path d="M44.4922 21.8999C43.6922 21.8999 42.9922 21.1999 42.9922 20.3999C42.9922 19.5999 43.6922 18.8999 44.4922 18.8999C45.2922 18.8999 45.9922 19.5999 45.9922 20.3999C45.9922 21.1999 45.2922 21.8999 44.4922 21.8999Z" fill="white"/>
<defs>
<filter id="filter0_f_20_662" x="0.632202" y="31.8799" width="1246.31" height="96.7202" filterUnits="userSpaceOnUse" color-interpolation-filters="sRGB">
<feFlood flood-opacity="0" result="BackgroundImageFix"/>
<feBlend mode="normal" in="SourceGraphic" in2="BackgroundImageFix" result="shape"/>
<feGaussianBlur stdDeviation="3.5" result="effect1_foregroundBlur_20_662"/>
</filter>
<filter id="filter1_f_20_662" x="286.152" y="70.1201" width="740.717" height="69.6001" filterUnits="userSpaceOnUse" color-interpolation-filters="sRGB">
<feFlood flood-opacity="0" result="BackgroundImageFix"/>
<feBlend mode="normal" in="SourceGraphic" in2="BackgroundImageFix" result="shape"/>
<feGaussianBlur stdDeviation="2" result="effect1_foregroundBlur_20_662"/>
</filter>
</defs>
</svg>
