<svg width="267" height="62" viewBox="0 0 267 62" fill="none" xmlns="http://www.w3.org/2000/svg">
<path d="M92.0954 38.6752H82.6535L81.0903 42.9456H76.3379L84.8227 20.9532H90.0222L98.4756 42.9456H93.6586L92.0954 38.6752ZM90.5951 34.6265L87.3727 25.7978L84.1188 34.6265H90.5951Z" fill="white"/>
<path d="M111.84 34.8184L117.614 42.9456H112.128L106.705 35.1046H106.323V42.9456H101.921V20.9532H109.61C110.673 20.9532 111.657 21.1347 112.56 21.4942C113.463 21.8555 114.25 22.3598 114.919 23.009C115.59 23.6582 116.116 24.4226 116.498 25.3039C116.881 26.1852 117.073 27.1363 117.073 28.1572C117.073 28.9652 116.945 29.7296 116.69 30.4521C116.435 31.1746 116.079 31.822 115.621 32.3962C115.164 32.9703 114.612 33.4642 113.962 33.8778C113.312 34.2914 112.607 34.6055 111.84 34.8184ZM106.321 31.2793H109.51C110.382 31.2793 111.105 30.9878 111.679 30.4032C112.254 29.8186 112.541 29.0804 112.541 28.1886C112.541 27.2968 112.254 26.5587 111.679 25.974C111.105 25.3894 110.382 25.098 109.51 25.098H106.321V31.281V31.2793Z" fill="white"/>
<path d="M135.89 43.3278C134.806 43.3278 133.801 43.1533 132.876 42.8025C131.95 42.4517 131.141 41.9683 130.452 41.3523C129.76 40.7362 129.224 40.0085 128.841 39.1691C128.459 38.3297 128.267 37.4222 128.267 36.4432H132.795C132.795 37.2721 133.098 37.9737 133.705 38.5461C134.311 39.1202 135.061 39.4064 135.955 39.4064C136.849 39.4064 137.518 39.1673 138.093 38.6892C138.667 38.211 138.954 37.6211 138.954 36.9196C138.954 36.0907 138.556 35.4327 137.757 34.9441C136.959 34.4555 135.976 34.0628 134.807 33.7644C133.978 33.5515 133.192 33.2653 132.446 32.904C131.702 32.5428 131.042 32.0908 130.469 31.5498C129.894 31.0088 129.437 30.3596 129.098 29.6057C128.757 28.8518 128.588 27.9757 128.588 26.9758C128.588 26.0631 128.773 25.2184 129.147 24.4418C129.519 23.667 130.029 22.9916 130.679 22.4174C131.327 21.8433 132.093 21.393 132.975 21.0632C133.857 20.7334 134.809 20.5693 135.831 20.5693C136.853 20.5693 137.841 20.7334 138.734 21.0632C139.626 21.393 140.403 21.8555 141.062 22.4489C141.72 23.044 142.237 23.7455 142.609 24.5518C142.981 25.3598 143.168 26.2306 143.168 27.166H138.639C138.639 26.4016 138.374 25.7629 137.841 25.2533C137.31 24.7437 136.64 24.4889 135.831 24.4889C135.066 24.4889 134.421 24.7071 133.901 25.1416C133.381 25.5779 133.12 26.1241 133.12 26.7838C133.12 27.5918 133.466 28.234 134.158 28.7122C134.849 29.1904 135.779 29.5778 136.949 29.8762C137.82 30.0891 138.65 30.3701 139.438 30.7208C140.224 31.0716 140.915 31.5079 141.511 32.028C142.106 32.5498 142.585 33.1867 142.946 33.9406C143.308 34.6945 143.488 35.6038 143.488 36.6666C143.488 37.6229 143.296 38.5042 142.913 39.3122C142.531 40.1202 141.998 40.8217 141.319 41.4151C140.638 42.0102 139.836 42.4779 138.91 42.8182C137.985 43.1585 136.98 43.3278 135.896 43.3278H135.89Z" fill="white"/>
<path d="M156.848 26.3073C157.974 26.3073 159.022 26.5254 159.99 26.96C160.957 27.3963 161.792 27.9914 162.494 28.7453C163.196 29.4992 163.748 30.3979 164.154 31.438C164.557 32.4799 164.76 33.6055 164.76 34.8166C164.76 36.0277 164.557 37.1551 164.154 38.1952C163.75 39.2371 163.196 40.1341 162.494 40.888C161.792 41.6419 160.957 42.237 159.99 42.6733C159.022 43.1078 157.974 43.3259 156.848 43.3259C155.721 43.3259 154.743 43.1026 153.849 42.6558C152.956 42.209 152.19 41.593 151.552 40.8077V48.9994H147.406V26.6877H151.552V28.8238C152.19 28.0385 152.956 27.4207 153.849 26.9757C154.741 26.5289 155.742 26.3055 156.848 26.3055V26.3073ZM156.02 39.3121C156.657 39.3121 157.253 39.1952 157.807 38.9613C158.36 38.7275 158.832 38.4151 159.227 38.0207C159.62 37.628 159.929 37.1551 160.152 36.6019C160.376 36.0504 160.488 35.4536 160.488 34.8166C160.488 34.1796 160.376 33.5845 160.152 33.0313C159.929 32.4799 159.621 32.0069 159.227 31.6125C158.834 31.2199 158.36 30.9057 157.807 30.6719C157.253 30.438 156.659 30.3211 156.02 30.3211C155.381 30.3211 154.792 30.438 154.249 30.6719C153.707 30.9057 153.232 31.2199 152.829 31.6125C152.425 32.0052 152.111 32.4781 151.887 33.0313C151.664 33.5845 151.552 34.1796 151.552 34.8166C151.552 35.4536 151.664 36.0487 151.887 36.6019C152.111 37.1551 152.424 37.628 152.829 38.0207C153.232 38.4134 153.706 38.7275 154.249 38.9613C154.792 39.1952 155.381 39.3121 156.02 39.3121Z" fill="white"/>
<path d="M185.142 26.6895V42.9455H180.996V40.8095C180.358 41.5965 179.592 42.2126 178.699 42.6576C177.807 43.1044 176.806 43.3277 175.7 43.3277C174.595 43.3277 173.526 43.1096 172.558 42.675C171.591 42.2405 170.75 41.6454 170.038 40.8898C169.325 40.1359 168.766 39.2371 168.363 38.197C167.959 37.1569 167.757 36.0295 167.757 34.8184C167.757 33.6073 167.959 32.4817 168.363 31.4398C168.766 30.3997 169.325 29.501 170.038 28.747C170.75 27.9931 171.591 27.3981 172.558 26.9618C173.526 26.5272 174.572 26.3091 175.7 26.3091C176.829 26.3091 177.805 26.5325 178.699 26.9792C179.592 27.426 180.358 28.042 180.996 28.8273V26.6913H185.142V26.6895ZM176.498 39.3122C177.136 39.3122 177.731 39.1952 178.285 38.9614C178.837 38.7275 179.316 38.4152 179.721 38.0207C180.124 37.6281 180.439 37.1552 180.662 36.6019C180.886 36.0505 180.998 35.4536 180.998 34.8167C180.998 34.1797 180.886 33.5846 180.662 33.0314C180.439 32.4799 180.124 32.007 179.721 31.6126C179.317 31.2199 178.839 30.9058 178.285 30.6719C177.731 30.4381 177.136 30.3212 176.498 30.3212C175.861 30.3212 175.271 30.4381 174.727 30.6719C174.186 30.9058 173.711 31.2199 173.307 31.6126C172.904 32.0052 172.59 32.4782 172.366 33.0314C172.142 33.5846 172.031 34.1797 172.031 34.8167C172.031 35.4536 172.142 36.0487 172.366 36.6019C172.59 37.1552 172.902 37.6281 173.307 38.0207C173.711 38.4134 174.184 38.7275 174.727 38.9614C175.269 39.1952 175.859 39.3122 176.498 39.3122Z" fill="white"/>
<path d="M199.338 30.4834H196.053V42.9455H191.907V30.4834H188.78V26.6912H191.907V21.8467L196.053 20.955V26.693H199.338V30.4852V30.4834Z" fill="white"/>
<path d="M204.887 24.3004C204.143 24.3004 203.521 24.0561 203.022 23.5675C202.522 23.0788 202.272 22.4628 202.272 21.7194C202.272 20.9759 202.522 20.3599 203.022 19.8713C203.521 19.3826 204.143 19.1383 204.887 19.1383C205.631 19.1383 206.253 19.3826 206.752 19.8713C207.252 20.3599 207.502 20.9759 207.502 21.7194C207.502 22.4628 207.252 23.0788 206.752 23.5675C206.253 24.0561 205.631 24.3004 204.887 24.3004ZM202.814 26.6895H206.96V42.9456H202.814V26.6895Z" fill="white"/>
<path d="M228.238 26.6895V42.9455H224.092V40.8095C223.455 41.5965 222.688 42.2126 221.795 42.6576C220.903 43.1044 219.902 43.3277 218.796 43.3277C217.691 43.3277 216.622 43.1096 215.654 42.675C214.687 42.2405 213.847 41.6454 213.134 40.8898C212.421 40.1359 211.863 39.2371 211.459 38.197C211.056 37.1569 210.853 36.0295 210.853 34.8184C210.853 33.6073 211.056 32.4817 211.459 31.4398C211.863 30.3997 212.421 29.501 213.134 28.747C213.847 27.9931 214.687 27.3981 215.654 26.9618C216.622 26.5272 217.668 26.3091 218.796 26.3091C219.925 26.3091 220.901 26.5325 221.795 26.9792C222.688 27.426 223.455 28.042 224.092 28.8273V26.6913H228.238V26.6895ZM219.593 39.3122C220.23 39.3122 220.826 39.1952 221.38 38.9614C221.932 38.7275 222.41 38.4152 222.815 38.0207C223.219 37.6281 223.533 37.1552 223.757 36.6019C223.98 36.0505 224.092 35.4536 224.092 34.8167C224.092 34.1797 223.98 33.5846 223.757 33.0314C223.533 32.4799 223.219 32.007 222.815 31.6126C222.412 31.2199 221.933 30.9058 221.38 30.6719C220.826 30.4381 220.23 30.3212 219.593 30.3212C218.955 30.3212 218.365 30.4381 217.822 30.6719C217.28 30.9058 216.805 31.2199 216.402 31.6126C215.998 32.0052 215.684 32.4782 215.46 33.0314C215.237 33.5846 215.125 34.1797 215.125 34.8167C215.125 35.4536 215.237 36.0487 215.46 36.6019C215.684 37.1552 215.997 37.6281 216.402 38.0207C216.805 38.4134 217.279 38.7275 217.822 38.9614C218.363 39.1952 218.954 39.3122 219.593 39.3122Z" fill="white"/>
<path d="M233.054 19.9969H237.2V42.9456H233.054V19.9969Z" fill="white"/>
<path d="M242.017 19.9969H246.163V42.9456H242.017V19.9969Z" fill="white"/>
<path d="M266.995 26.6896L257.712 49.0012H253.246L255.862 42.7868L249.196 26.6913H253.534L258.128 37.752L262.594 26.6913H266.995V26.6896Z" fill="white"/>
<path d="M64.8911 55.5909C62.9209 59.1824 58.3956 60.4354 54.8658 58.3988C54.0484 57.9276 53.3585 57.3221 52.8048 56.6258L52.8013 56.6223L46.4648 49.1094C44.8614 47.2107 43.0817 45.4725 41.1535 43.9194C39.8627 42.881 38.0568 42.71 36.6351 43.5633C36.5757 43.6 36.5146 43.6349 36.4534 43.6698C34.8553 44.5668 34.134 46.4812 34.6807 48.2299C34.7837 48.5614 34.8955 48.8895 35.0143 49.2159L37.0805 54.9277C37.2848 55.4495 37.3966 56.0167 37.3931 56.6083C37.3774 59.0253 35.416 61.0183 32.9987 61.0724C30.4662 61.13 28.3965 59.0951 28.3965 56.5786C28.3965 55.9958 28.5083 55.4391 28.7092 54.9295L30.7754 49.2159C30.8941 48.8895 31.0042 48.5597 31.109 48.2299C31.6556 46.4812 30.9343 44.5668 29.3362 43.6698C29.2751 43.6349 29.2139 43.6 29.1545 43.5633C27.7328 42.71 25.9269 42.881 24.6362 43.9211C22.7062 45.4743 20.9282 47.2124 19.3249 49.1112L12.9883 56.624L12.9848 56.6275C12.4224 57.3343 11.7186 57.9486 10.8837 58.4233C7.48139 60.3586 3.09925 59.2243 1.06625 55.8823C-1.06107 52.3816 0.116117 47.839 3.64418 45.8024C4.46158 45.3312 5.33311 45.0363 6.21164 44.9054H6.21513L15.8946 43.1759C18.3782 42.7327 20.8077 42.0486 23.1481 41.1376C24.6641 40.5477 25.6439 39.0679 25.6177 37.4414C25.6177 37.403 25.6177 37.3646 25.6177 37.3262V37.2965C25.6247 35.4432 24.3655 33.8272 22.5543 33.4206C22.2154 33.3438 21.8731 33.2757 21.5308 33.2146L15.547 32.1466H15.5453C14.9916 32.0646 14.4467 31.8761 13.9332 31.5777C11.8461 30.3543 11.0985 27.6616 12.2617 25.5412C13.4791 23.3214 16.2771 22.5466 18.4586 23.8048C18.9651 24.0963 19.3912 24.4715 19.7336 24.9008L23.6511 29.5463C23.8747 29.8116 24.1052 30.0734 24.341 30.3282C25.5915 31.6859 27.6193 31.9895 29.2122 31.0542C29.2523 31.0315 29.2908 31.0088 29.3309 30.9861C30.7579 30.1833 31.5753 28.6022 31.3273 26.9845C30.9465 24.5029 30.3247 22.0597 29.4672 19.6898L26.1242 10.4492V10.4457C25.7924 9.60632 25.6108 8.69012 25.6177 7.73029C25.6387 3.81419 28.8105 0.58916 32.7245 0.501903C36.822 0.40941 40.1701 3.70075 40.1701 7.77218C40.1701 8.71455 39.9902 9.61505 39.6636 10.4422V10.4457L36.3207 19.6863C35.4649 22.0562 34.8431 24.4994 34.4624 26.981C34.2143 28.5987 35.0317 30.1798 36.4587 30.9826C36.4989 31.0053 36.539 31.028 36.5792 31.0507C38.1703 31.9861 40.1981 31.6824 41.4486 30.3247C41.6844 30.0699 41.9132 29.8081 42.1385 29.5429L46.0561 24.899H46.0578C46.4054 24.461 46.8403 24.0806 47.3573 23.7874C49.4601 22.5919 52.1673 23.2917 53.4248 25.358C54.74 27.522 54.0117 30.3299 51.8302 31.5882C51.3255 31.8796 50.7875 32.0611 50.2443 32.1431H50.2409L44.2589 33.2112C43.9148 33.2722 43.5742 33.342 43.2354 33.4171C41.4242 33.8237 40.1649 35.438 40.1719 37.293V37.3227C40.1719 37.3611 40.1719 37.3995 40.1719 37.4379C40.1457 39.0626 41.1273 40.5425 42.6415 41.1341C44.9837 42.0468 47.4132 42.7309 49.8968 43.1724L59.5763 44.9001H59.5797C60.4722 45.0345 61.3577 45.3364 62.1856 45.8216C65.5635 47.7988 66.7721 52.1564 64.8911 55.5874" fill="white"/>
</svg>
