<svg width="31" height="22" viewBox="0 0 31 22" fill="none" xmlns="http://www.w3.org/2000/svg">
<path d="M28.6016 3C27.8016 3 27.1016 2.3 27.1016 1.5C27.1016 0.7 27.8016 0 28.6016 0C29.4016 0 30.1016 0.7 30.1016 1.5C30.1016 2.3 29.5016 3 28.6016 3Z" fill="white"/>
<path d="M28.6016 9.30005C27.8016 9.30005 27.1016 8.60005 27.1016 7.80005C27.1016 7.00005 27.8016 6.30005 28.6016 6.30005C29.4016 6.30005 30.1016 7.00005 30.1016 7.80005C30.1016 8.60005 29.5016 9.30005 28.6016 9.30005Z" fill="white"/>
<path d="M28.6016 15.6C27.8016 15.6 27.1016 14.9 27.1016 14.1C27.1016 13.3 27.8016 12.6 28.6016 12.6C29.4016 12.6 30.1016 13.3 30.1016 14.1C30.1016 14.9 29.5016 15.6 28.6016 15.6Z" fill="white"/>
<path d="M28.6016 21.9C27.8016 21.9 27.1016 21.2 27.1016 20.4C27.1016 19.6 27.8016 18.9 28.6016 18.9C29.4016 18.9 30.1016 19.6 30.1016 20.4C30.1016 21.2 29.5016 21.9 28.6016 21.9Z" fill="white"/>
<path d="M21.8008 3C22.6292 3 23.3008 2.32843 23.3008 1.5C23.3008 0.671573 22.6292 0 21.8008 0C20.9724 0 20.3008 0.671573 20.3008 1.5C20.3008 2.32843 20.9724 3 21.8008 3Z" fill="white"/>
<path d="M21.8008 9.30005C22.6292 9.30005 23.3008 8.62848 23.3008 7.80005C23.3008 6.97162 22.6292 6.30005 21.8008 6.30005C20.9724 6.30005 20.3008 6.97162 20.3008 7.80005C20.3008 8.62848 20.9724 9.30005 21.8008 9.30005Z" fill="white"/>
<path d="M21.8008 15.6C22.6292 15.6 23.3008 14.9284 23.3008 14.1C23.3008 13.2715 22.6292 12.6 21.8008 12.6C20.9724 12.6 20.3008 13.2715 20.3008 14.1C20.3008 14.9284 20.9724 15.6 21.8008 15.6Z" fill="white"/>
<path d="M21.8008 21.9C22.6292 21.9 23.3008 21.2285 23.3008 20.4C23.3008 19.5716 22.6292 18.9 21.8008 18.9C20.9724 18.9 20.3008 19.5716 20.3008 20.4C20.3008 21.2285 20.9724 21.9 21.8008 21.9Z" fill="white"/>
<path d="M15.1016 3C14.3016 3 13.6016 2.3 13.6016 1.5C13.6016 0.7 14.3016 0 15.1016 0C15.9016 0 16.6016 0.7 16.6016 1.5C16.6016 2.3 15.9016 3 15.1016 3Z" fill="white"/>
<path d="M15.1016 9.30005C14.3016 9.30005 13.6016 8.60005 13.6016 7.80005C13.6016 7.00005 14.3016 6.30005 15.1016 6.30005C15.9016 6.30005 16.6016 7.00005 16.6016 7.80005C16.6016 8.60005 15.9016 9.30005 15.1016 9.30005Z" fill="white"/>
<path d="M15.1016 15.6C14.3016 15.6 13.6016 14.9 13.6016 14.1C13.6016 13.3 14.3016 12.6 15.1016 12.6C15.9016 12.6 16.6016 13.3 16.6016 14.1C16.6016 14.9 15.9016 15.6 15.1016 15.6Z" fill="white"/>
<path d="M15.1016 21.9C14.3016 21.9 13.6016 21.2 13.6016 20.4C13.6016 19.6 14.3016 18.9 15.1016 18.9C15.9016 18.9 16.6016 19.6 16.6016 20.4C16.6016 21.2 15.9016 21.9 15.1016 21.9Z" fill="white"/>
<path d="M8.30078 3C9.12921 3 9.80078 2.32843 9.80078 1.5C9.80078 0.671573 9.12921 0 8.30078 0C7.47235 0 6.80078 0.671573 6.80078 1.5C6.80078 2.32843 7.47235 3 8.30078 3Z" fill="white"/>
<path d="M8.30078 9.30005C9.12921 9.30005 9.80078 8.62848 9.80078 7.80005C9.80078 6.97162 9.12921 6.30005 8.30078 6.30005C7.47235 6.30005 6.80078 6.97162 6.80078 7.80005C6.80078 8.62848 7.47235 9.30005 8.30078 9.30005Z" fill="white"/>
<path d="M8.30078 15.6C9.12921 15.6 9.80078 14.9284 9.80078 14.1C9.80078 13.2715 9.12921 12.6 8.30078 12.6C7.47235 12.6 6.80078 13.2715 6.80078 14.1C6.80078 14.9284 7.47235 15.6 8.30078 15.6Z" fill="white"/>
<path d="M8.30078 21.9C9.12921 21.9 9.80078 21.2285 9.80078 20.4C9.80078 19.5716 9.12921 18.9 8.30078 18.9C7.47235 18.9 6.80078 19.5716 6.80078 20.4C6.80078 21.2285 7.47235 21.9 8.30078 21.9Z" fill="white"/>
<path d="M1.5 3C0.7 3 0 2.3 0 1.5C0 0.7 0.7 0 1.5 0C2.3 0 3 0.7 3 1.5C3 2.3 2.3 3 1.5 3Z" fill="white"/>
<path d="M1.5 9.30005C0.7 9.30005 0 8.60005 0 7.80005C0 7.00005 0.7 6.30005 1.5 6.30005C2.3 6.30005 3 7.00005 3 7.80005C3 8.60005 2.3 9.30005 1.5 9.30005Z" fill="white"/>
<path d="M1.5 15.6C0.7 15.6 0 14.9 0 14.1C0 13.3 0.7 12.6 1.5 12.6C2.3 12.6 3 13.3 3 14.1C3 14.9 2.3 15.6 1.5 15.6Z" fill="white"/>
<path d="M1.5 21.9C0.7 21.9 0 21.2 0 20.4C0 19.6 0.7 18.9 1.5 18.9C2.3 18.9 3 19.6 3 20.4C3 21.2 2.3 21.9 1.5 21.9Z" fill="white"/>
</svg>
