<svg width="1684" height="1851" viewBox="0 0 1684 1851" fill="none" xmlns="http://www.w3.org/2000/svg">
<line x1="132.32" y1="298.855" x2="132.32" y2="1562.68" stroke="white" stroke-opacity="0.15"/>
<line x1="837.559" y1="298.855" x2="837.559" y2="1562.68" stroke="white" stroke-opacity="0.15"/>
<line x1="1553.14" y1="298.855" x2="1553.14" y2="1562.68" stroke="white" stroke-opacity="0.15"/>
<path d="M0 1234.28H1684" stroke="white" stroke-opacity="0.15"/>
<line y1="617.371" x2="1684" y2="617.371" stroke="white" stroke-opacity="0.15"/>
<circle cx="837.059" cy="309.094" r="307.629" stroke="white" stroke-opacity="0.11"/>
<circle cx="837.059" cy="1541.91" r="307.629" stroke="white" stroke-opacity="0.11"/>
<path d="M837.5 1448L837.856 1453.64L843.5 1454L837.856 1454.36L837.5 1460L837.144 1454.36L831.5 1454L837.144 1453.64L837.5 1448Z" fill="white"/>
<path d="M132.5 1228L132.856 1233.64L138.5 1234L132.856 1234.36L132.5 1240L132.144 1234.36L126.5 1234L132.144 1233.64L132.5 1228Z" fill="white"/>
<path d="M1553.5 1228L1553.86 1233.64L1559.5 1234L1553.86 1234.36L1553.5 1240L1553.14 1234.36L1547.5 1234L1553.14 1233.64L1553.5 1228Z" fill="white"/>
<circle cx="837.059" cy="926" r="307.629" stroke="white" stroke-opacity="0.11"/>
</svg>
