<svg width="56" height="56" viewBox="0 0 56 56" fill="none" xmlns="http://www.w3.org/2000/svg">
<path d="M28.2687 55.9463C25.9623 55.9463 24.0402 55.2015 22.5026 53.7119C20.965 52.2223 20.1961 50.4205 20.1961 48.3062C20.1961 47.105 20.4364 46.0236 20.9169 45.0627C21.3974 44.1017 22.2383 43.0444 23.4396 41.8914C24.6889 40.7381 25.674 39.657 26.3947 38.6479C27.1635 37.5909 27.548 36.6778 27.548 35.9089V33.3142C26.4908 33.0739 25.5539 32.5934 24.737 31.8727C23.9682 31.1038 23.4636 30.1908 23.2234 29.1338H20.6286C19.8117 29.1338 18.8507 29.5182 17.7456 30.2871C16.6404 31.0557 15.5833 31.9928 14.5742 33.098C13.5651 34.2032 12.556 35.0199 11.5469 35.5486C10.5859 36.0772 9.48077 36.3415 8.23144 36.3415C6.06914 36.3415 4.24318 35.5726 2.75361 34.0349C1.31208 32.4974 0.591309 30.5752 0.591309 28.2689C0.591309 25.9624 1.31208 24.0403 2.75361 22.5027C4.24318 20.9651 6.06914 20.1963 8.23144 20.1963C10.2496 20.1963 11.9794 20.917 13.421 22.3586C14.8625 23.8001 16.1599 25.0254 17.3131 26.0345C18.4663 27.0435 19.5715 27.5481 20.6286 27.5481H23.2234C23.4636 26.4429 23.9682 25.5299 24.737 24.8092C25.5539 24.0403 26.4908 23.5598 27.548 23.3676V20.7729C27.548 19.5236 26.5869 17.9379 24.6649 16.0158L23.1513 14.5022C21.1812 12.5321 20.1961 10.4419 20.1961 8.23156C20.1961 6.06926 20.965 4.26732 22.5026 2.8258C24.0883 1.33622 26.0103 0.591431 28.2687 0.591431C30.5751 0.591431 32.4973 1.33622 34.0348 2.8258C35.5725 4.3154 36.3414 6.11731 36.3414 8.23156C36.3414 10.6821 35.1399 12.9886 32.7375 15.1509C30.3348 17.3613 29.1336 19.2352 29.1336 20.7729V23.3676C30.2388 23.5598 31.1519 24.0403 31.8726 24.8092C32.6415 25.5299 33.122 26.4429 33.314 27.5481H35.9088C37.5426 27.5481 39.4166 26.3228 41.5309 23.8722C43.6931 21.4216 45.9516 20.1963 48.3061 20.1963C50.4682 20.1963 52.2703 20.9891 53.7118 22.5748C55.2014 24.1124 55.9461 26.0105 55.9461 28.2689C55.9461 30.5752 55.2014 32.4974 53.7118 34.0349C52.2222 35.5726 50.4203 36.3415 48.3061 36.3415C46.2878 36.3415 44.5821 35.6446 43.1885 34.2513C41.7952 32.8578 40.4977 31.6566 39.2965 30.6474C38.095 29.6383 36.9661 29.1338 35.9088 29.1338H33.314C32.9296 31.4401 31.5363 32.8337 29.1336 33.3142V35.9089C29.1336 37.3504 30.3348 39.2006 32.7375 41.4588C35.1399 43.7173 36.3414 45.9996 36.3414 48.3062C36.3414 50.4684 35.5484 52.2704 33.9628 53.7119C32.425 55.2015 30.5272 55.9463 28.2687 55.9463Z" fill="white"/>
</svg>
