<svg width="200" height="416" viewBox="0 0 200 416" fill="none" xmlns="http://www.w3.org/2000/svg">
<path d="M2.50784 99.9355H1.25827C0.563354 99.9355 0 99.3713 0 98.6792V85.7613C0 85.0668 0.563354 84.5049 1.25827 84.5049H2.50784V99.9355Z" fill="#FFFFFF"/>
<path d="M2.50783 145.412H1.25813C0.563285 145.412 0 144.849 0 144.156V116.621C0 115.926 0.563285 115.363 1.25813 115.363H2.50783V145.412Z" fill="#FFFFFF"/>
<path d="M198.991 172.828H197.219V124.94H198.991C199.548 124.94 199.999 125.389 199.999 125.945V171.823C199.999 172.379 199.548 172.828 198.991 172.828Z" fill="#FFFFFF"/>
<rect x="2.38672" y="0.847656" width="194.597" height="414.652" rx="33.5" stroke="#FFFFFF"/>
<rect x="6.16016" y="4.61523" width="187.05" height="407.118" rx="31.5" stroke="#FFFFFF"/>
</svg>
