<svg width="45" height="45" viewBox="0 0 45 45" fill="none" xmlns="http://www.w3.org/2000/svg">
<g filter="url(#filter0_b_310_363)">
<rect x="1" y="1" width="43" height="43" rx="21.5" fill="white" fill-opacity="0.05"/>
<rect x="0.5" y="0.5" width="44" height="44" rx="22" stroke="white" stroke-opacity="0.3"/>
</g>
<path d="M22.5 34C21.5417 34 20.7431 33.6905 20.1042 33.0716C19.4653 32.4527 19.1458 31.704 19.1458 30.8255C19.1458 30.3264 19.2457 29.8771 19.4453 29.4779C19.645 29.0786 19.9944 28.6393 20.4935 28.1602C21.0126 27.681 21.4219 27.2318 21.7214 26.8125C22.0408 26.3733 22.2005 25.9939 22.2005 25.6745V24.5963C21.7613 24.4965 21.372 24.2969 21.0326 23.9974C20.7131 23.6779 20.5035 23.2986 20.4036 22.8594H19.3255C18.9861 22.8594 18.5868 23.0191 18.1276 23.3386C17.6684 23.6579 17.2292 24.0473 16.8099 24.5065C16.3906 24.9657 15.9714 25.3051 15.5521 25.5247C15.1528 25.7444 14.6936 25.8542 14.1745 25.8542C13.276 25.8542 12.5174 25.5347 11.8984 24.8958C11.2995 24.257 11 23.4583 11 22.5C11 21.5417 11.2995 20.7431 11.8984 20.1042C12.5174 19.4653 13.276 19.1458 14.1745 19.1458C15.013 19.1458 15.7318 19.4453 16.3307 20.0443C16.9297 20.6432 17.4688 21.1523 17.9479 21.5716C18.4271 21.9909 18.8863 22.2005 19.3255 22.2005H20.4036C20.5035 21.7413 20.7131 21.362 21.0326 21.0625C21.372 20.7431 21.7613 20.5434 22.2005 20.4635V19.3854C22.2005 18.8663 21.8012 18.2075 21.0026 17.4089L20.3737 16.7799C19.5551 15.9614 19.1458 15.0929 19.1458 14.1745C19.1458 13.276 19.4653 12.5273 20.1042 11.9284C20.763 11.3095 21.5616 11 22.5 11C23.4583 11 24.257 11.3095 24.8958 11.9284C25.5347 12.5473 25.8542 13.296 25.8542 14.1745C25.8542 15.1927 25.355 16.151 24.3568 17.0495C23.3585 17.9679 22.8594 18.7465 22.8594 19.3854V20.4635C23.3186 20.5434 23.698 20.7431 23.9974 21.0625C24.3169 21.362 24.5165 21.7413 24.5963 22.2005H25.6745C26.3533 22.2005 27.132 21.6914 28.0105 20.6732C28.9088 19.6549 29.8472 19.1458 30.8255 19.1458C31.7239 19.1458 32.4727 19.4753 33.0716 20.1341C33.6905 20.773 34 21.5616 34 22.5C34 23.4583 33.6905 24.257 33.0716 24.8958C32.4527 25.5347 31.704 25.8542 30.8255 25.8542C29.987 25.8542 29.2782 25.5646 28.6992 24.9857C28.1203 24.4067 27.5812 23.9076 27.0821 23.4883C26.5828 23.069 26.1138 22.8594 25.6745 22.8594H24.5963C24.4366 23.8177 23.8577 24.3967 22.8594 24.5963V25.6745C22.8594 26.2734 23.3585 27.0422 24.3568 27.9804C25.355 28.9188 25.8542 29.8671 25.8542 30.8255C25.8542 31.7239 25.5247 32.4727 24.8659 33.0716C24.227 33.6905 23.4384 34 22.5 34Z" fill="white"/>
<defs>
<filter id="filter0_b_310_363" x="-15" y="-15" width="75" height="75" filterUnits="userSpaceOnUse" color-interpolation-filters="sRGB">
<feFlood flood-opacity="0" result="BackgroundImageFix"/>
<feGaussianBlur in="BackgroundImageFix" stdDeviation="7.5"/>
<feComposite in2="SourceAlpha" operator="in" result="effect1_backgroundBlur_310_363"/>
<feBlend mode="normal" in="SourceGraphic" in2="effect1_backgroundBlur_310_363" result="shape"/>
</filter>
</defs>
</svg>
