<svg width="15" height="18" viewBox="0 0 15 18" fill="none" xmlns="http://www.w3.org/2000/svg">
<path d="M1 17H13.8" stroke="white" stroke-width="1.5" stroke-linecap="round"/>
<path d="M8.91044 2.33034L9.50364 1.73714C10.4865 0.754287 12.08 0.754287 13.0629 1.73714C14.0457 2.71999 14.0457 4.3135 13.0629 5.29636L12.4697 5.88956M8.91044 2.33034C8.91044 2.33034 8.98459 3.5909 10.0968 4.70315C11.2091 5.81541 12.4697 5.88956 12.4697 5.88956M8.91044 2.33034L3.45685 7.78393C3.08746 8.15332 2.90277 8.33801 2.74393 8.54165C2.55657 8.78188 2.39593 9.0418 2.26486 9.31682C2.15375 9.54995 2.07115 9.79774 1.90596 10.2933L1.20596 12.3933M12.4697 5.88956L7.01606 11.3432C6.64668 11.7125 6.46199 11.8972 6.25835 12.0561C6.01812 12.2434 5.7582 12.4041 5.48318 12.5351C5.25005 12.6462 5.00225 12.7288 4.50668 12.894L2.40667 13.594M2.40667 13.594L1.89334 13.7652C1.64946 13.8464 1.38058 13.783 1.1988 13.6012C1.01703 13.4194 0.953554 13.1505 1.03485 12.9067L1.20596 12.3933M2.40667 13.594L1.20596 12.3933" stroke="white" stroke-width="1.5"/>
</svg>
