<svg width="13" height="17" viewBox="0 0 13 17" fill="none" xmlns="http://www.w3.org/2000/svg">
<path d="M6.28572 0.444336C4.61925 0.446302 3.0216 1.10918 1.84322 2.28755C0.664847 3.46592 0.00197267 5.06358 6.68736e-06 6.73005C-0.00198925 8.09189 0.442853 9.41678 1.26629 10.5015C1.26629 10.5015 1.43772 10.7272 1.46572 10.7598L6.28572 16.4443L11.108 10.7569C11.1331 10.7266 11.3052 10.5015 11.3052 10.5015L11.3057 10.4998C12.1288 9.41554 12.5734 8.09127 12.5714 6.73005C12.5695 5.06358 11.9066 3.46592 10.7282 2.28755C9.54985 1.10918 7.95219 0.446302 6.28572 0.444336ZM6.28572 9.01577C5.83365 9.01577 5.39173 8.88171 5.01585 8.63055C4.63996 8.3794 4.347 8.02242 4.174 7.60476C4.001 7.1871 3.95573 6.72752 4.04393 6.28413C4.13212 5.84074 4.34981 5.43347 4.66948 5.11381C4.98914 4.79414 5.39642 4.57645 5.8398 4.48826C6.28319 4.40006 6.74277 4.44533 7.16043 4.61833C7.57809 4.79133 7.93507 5.08429 8.18622 5.46018C8.43738 5.83606 8.57144 6.27798 8.57144 6.73005C8.57068 7.33603 8.32962 7.91697 7.90113 8.34546C7.47264 8.77395 6.8917 9.01501 6.28572 9.01577Z" fill="#F0F0F0"/>
</svg>
