<svg width="267" height="61" viewBox="0 0 267 61" xmlns="http://www.w3.org/2000/svg">
<path d="M92.0896 38.1751H82.6476L81.0844 42.4454H76.332L84.8169 20.4531H90.0164L98.4698 42.4454H93.6527L92.0896 38.1751ZM90.5893 34.1263L87.3668 25.2976L84.113 34.1263H90.5893Z" />
<path d="M111.833 34.3183L117.607 42.4454H112.121L106.698 34.6045H106.315V42.4454H101.914V20.4531H109.602C110.666 20.4531 111.649 20.6346 112.552 20.9941C113.455 21.3554 114.243 21.8597 114.912 22.5089C115.583 23.1581 116.108 23.9225 116.491 24.8038C116.873 25.6851 117.066 26.6362 117.066 27.6571C117.066 28.4651 116.938 29.2295 116.683 29.9519C116.428 30.6744 116.072 31.3219 115.614 31.896C115.157 32.4702 114.605 32.9641 113.955 33.3777C113.305 33.7913 112.6 34.1054 111.833 34.3183ZM106.314 30.7791H109.503C110.374 30.7791 111.098 30.4877 111.672 29.9031C112.247 29.3185 112.533 28.5803 112.533 27.6885C112.533 26.7967 112.247 26.0585 111.672 25.4739C111.098 24.8893 110.374 24.5978 109.503 24.5978H106.314V30.7809V30.7791Z" />
<path d="M135.885 42.8278C134.801 42.8278 133.797 42.6533 132.871 42.3025C131.945 41.9517 131.137 41.4683 130.447 40.8523C129.755 40.2362 129.219 39.5085 128.836 38.6691C128.454 37.8297 128.262 36.9222 128.262 35.9432H132.791C132.791 36.7721 133.093 37.4737 133.701 38.0461C134.307 38.6202 135.056 38.9064 135.95 38.9064C136.844 38.9064 137.513 38.6673 138.088 38.1892C138.663 37.711 138.949 37.1211 138.949 36.4196C138.949 35.5907 138.551 34.9327 137.753 34.4441C136.954 33.9555 135.971 33.5628 134.803 33.2644C133.973 33.0515 133.187 32.7653 132.441 32.404C131.697 32.0428 131.037 31.5908 130.464 31.0498C129.89 30.5088 129.432 29.8596 129.093 29.1057C128.752 28.3518 128.583 27.4757 128.583 26.4758C128.583 25.5631 128.768 24.7184 129.142 23.9418C129.514 23.167 130.024 22.4916 130.674 21.9174C131.322 21.3433 132.088 20.893 132.97 20.5632C133.852 20.2334 134.804 20.0693 135.826 20.0693C136.848 20.0693 137.836 20.2334 138.729 20.5632C139.621 20.893 140.399 21.3555 141.057 21.9489C141.716 22.544 142.233 23.2455 142.605 24.0518C142.977 24.8598 143.163 25.7306 143.163 26.666H138.635C138.635 25.9016 138.369 25.2629 137.836 24.7533C137.305 24.2437 136.635 23.9889 135.826 23.9889C135.061 23.9889 134.417 24.2071 133.896 24.6416C133.376 25.0779 133.115 25.6241 133.115 26.2838C133.115 27.0918 133.461 27.734 134.153 28.2122C134.845 28.6904 135.774 29.0778 136.944 29.3762C137.815 29.5891 138.645 29.8701 139.433 30.2208C140.219 30.5716 140.91 31.0079 141.506 31.528C142.102 32.0498 142.58 32.6867 142.942 33.4406C143.303 34.1945 143.483 35.1038 143.483 36.1666C143.483 37.1229 143.291 38.0042 142.908 38.8122C142.526 39.6202 141.993 40.3217 141.314 40.9151C140.633 41.5102 139.831 41.9779 138.905 42.3182C137.98 42.6585 136.975 42.8278 135.891 42.8278H135.885Z" />
<path d="M156.84 25.8072C157.967 25.8072 159.015 26.0253 159.982 26.4598C160.95 26.8961 161.785 27.4912 162.487 28.2451C163.189 28.999 163.741 29.8978 164.146 30.9379C164.55 31.9797 164.752 33.1054 164.752 34.3165C164.752 35.5276 164.55 36.655 164.146 37.6951C163.743 38.7369 163.189 39.6339 162.487 40.3878C161.785 41.1418 160.95 41.7368 159.982 42.1731C159.015 42.6077 157.967 42.8258 156.84 42.8258C155.714 42.8258 154.736 42.6024 153.842 42.1557C152.949 41.7089 152.182 41.0929 151.545 40.3076V48.4993H147.398V26.1876H151.545V28.3237C152.182 27.5383 152.949 26.9206 153.842 26.4756C154.734 26.0288 155.735 25.8054 156.84 25.8054V25.8072ZM156.013 38.812C156.65 38.812 157.246 38.6951 157.799 38.4612C158.353 38.2274 158.824 37.915 159.219 37.5206C159.612 37.1279 159.921 36.655 160.145 36.1018C160.368 35.5503 160.48 34.9535 160.48 34.3165C160.48 33.6795 160.368 33.0844 160.145 32.5312C159.921 31.9797 159.614 31.5068 159.219 31.1124C158.826 30.7197 158.353 30.4056 157.799 30.1718C157.246 29.9379 156.652 29.821 156.013 29.821C155.373 29.821 154.785 29.9379 154.241 30.1718C153.7 30.4056 153.225 30.7197 152.822 31.1124C152.418 31.5051 152.104 31.978 151.88 32.5312C151.657 33.0844 151.545 33.6795 151.545 34.3165C151.545 34.9535 151.657 35.5486 151.88 36.1018C152.104 36.655 152.416 37.1279 152.822 37.5206C153.225 37.9132 153.698 38.2274 154.241 38.4612C154.785 38.6951 155.373 38.812 156.013 38.812Z" />
<path d="M185.135 26.1895V42.4455H180.989V40.3095C180.351 41.0965 179.585 41.7126 178.692 42.1576C177.8 42.6044 176.799 42.8277 175.693 42.8277C174.588 42.8277 173.519 42.6096 172.551 42.175C171.584 41.7405 170.744 41.1454 170.031 40.3898C169.318 39.6359 168.76 38.7371 168.356 37.697C167.953 36.6569 167.75 35.5295 167.75 34.3184C167.75 33.1073 167.953 31.9817 168.356 30.9398C168.76 29.8997 169.318 29.001 170.031 28.247C170.744 27.4931 171.584 26.8981 172.551 26.4618C173.519 26.0272 174.565 25.8091 175.693 25.8091C176.822 25.8091 177.798 26.0325 178.692 26.4792C179.585 26.926 180.351 27.542 180.989 28.3273V26.1913H185.135V26.1895ZM176.492 38.8122C177.129 38.8122 177.725 38.6952 178.278 38.4614C178.83 38.2275 179.309 37.9152 179.714 37.5207C180.117 37.1281 180.432 36.6552 180.655 36.1019C180.879 35.5505 180.991 34.9536 180.991 34.3167C180.991 33.6797 180.879 33.0846 180.655 32.5314C180.432 31.9799 180.117 31.507 179.714 31.1126C179.311 30.7199 178.832 30.4058 178.278 30.1719C177.725 29.9381 177.129 29.8212 176.492 29.8212C175.854 29.8212 175.264 29.9381 174.721 30.1719C174.179 30.4058 173.704 30.7199 173.301 31.1126C172.897 31.5052 172.583 31.9782 172.359 32.5314C172.136 33.0846 172.024 33.6797 172.024 34.3167C172.024 34.9536 172.136 35.5487 172.359 36.1019C172.583 36.6552 172.895 37.1281 173.301 37.5207C173.704 37.9134 174.177 38.2275 174.721 38.4614C175.262 38.6952 175.852 38.8122 176.492 38.8122Z" />
<path d="M199.331 29.9833H196.046V42.4454H191.9V29.9833H188.773V26.1911H191.9V21.3466L196.046 20.4548V26.1929H199.331V29.9851V29.9833Z" />
<path d="M204.88 23.8003C204.136 23.8003 203.514 23.556 203.015 23.0674C202.515 22.5787 202.266 21.9627 202.266 21.2193C202.266 20.4758 202.515 19.8598 203.015 19.3711C203.514 18.8825 204.136 18.6382 204.88 18.6382C205.624 18.6382 206.246 18.8825 206.746 19.3711C207.245 19.8598 207.495 20.4758 207.495 21.2193C207.495 21.9627 207.245 22.5787 206.746 23.0674C206.246 23.556 205.624 23.8003 204.88 23.8003ZM202.807 26.1894H206.953V42.4454H202.807V26.1894Z" />
<path d="M228.233 26.1895V42.4455H224.087V40.3095C223.449 41.0965 222.682 41.7126 221.79 42.1576C220.897 42.6044 219.897 42.8277 218.791 42.8277C217.685 42.8277 216.617 42.6096 215.649 42.175C214.681 41.7405 213.841 41.1454 213.129 40.3898C212.416 39.6359 211.857 38.7371 211.454 37.697C211.05 36.6569 210.848 35.5295 210.848 34.3184C210.848 33.1073 211.05 31.9817 211.454 30.9398C211.857 29.8997 212.416 29.001 213.129 28.247C213.841 27.4931 214.681 26.8981 215.649 26.4618C216.617 26.0272 217.663 25.8091 218.791 25.8091C219.919 25.8091 220.896 26.0325 221.79 26.4792C222.682 26.926 223.449 27.542 224.087 28.3273V26.1913H228.233V26.1895ZM219.587 38.8122C220.225 38.8122 220.821 38.6952 221.374 38.4614C221.926 38.2275 222.405 37.9152 222.81 37.5207C223.213 37.1281 223.528 36.6552 223.751 36.1019C223.975 35.5505 224.087 34.9536 224.087 34.3167C224.087 33.6797 223.975 33.0846 223.751 32.5314C223.528 31.9799 223.213 31.507 222.81 31.1126C222.406 30.7199 221.928 30.4058 221.374 30.1719C220.821 29.9381 220.225 29.8212 219.587 29.8212C218.95 29.8212 218.36 29.9381 217.816 30.1719C217.275 30.4058 216.8 30.7199 216.397 31.1126C215.993 31.5052 215.679 31.9782 215.455 32.5314C215.232 33.0846 215.12 33.6797 215.12 34.3167C215.12 34.9536 215.232 35.5487 215.455 36.1019C215.679 36.6552 215.991 37.1281 216.397 37.5207C216.8 37.9134 217.273 38.2275 217.816 38.4614C218.358 38.6952 218.948 38.8122 219.587 38.8122Z" />
<path d="M233.047 19.4968H237.193V42.4455H233.047V19.4968Z" />
<path d="M242.012 19.4968H246.158V42.4455H242.012V19.4968Z" />
<path d="M266.991 26.1895L257.708 48.5011H253.242L255.858 42.2867L249.191 26.1912H253.53L258.123 37.2519L262.589 26.1912H266.991V26.1895Z" />
<path d="M64.8862 55.0909C62.916 58.6824 58.3907 59.9354 54.8609 57.8988C54.0435 57.4276 53.3536 56.8221 52.7999 56.1258L52.7964 56.1223L46.4599 48.6094C44.8565 46.7107 43.0768 44.9725 41.1486 43.4194C39.8579 42.381 38.0519 42.21 36.6302 43.0633C36.5708 43.1 36.5097 43.1349 36.4486 43.1698C34.8505 44.0668 34.1291 45.9812 34.6758 47.7299C34.7788 48.0614 34.8906 48.3895 35.0094 48.7159L37.0756 54.4277C37.2799 54.9495 37.3917 55.5167 37.3882 56.1083C37.3725 58.5253 35.4111 60.5183 32.9939 60.5724C30.4613 60.63 28.3916 58.5951 28.3916 56.0786C28.3916 55.4958 28.5034 54.9391 28.7043 54.4295L30.7705 48.7159C30.8892 48.3895 30.9993 48.0597 31.1041 47.7299C31.6507 45.9812 30.9294 44.0668 29.3313 43.1698C29.2702 43.1349 29.209 43.1 29.1497 43.0633C27.728 42.21 25.922 42.381 24.6313 43.4211C22.7013 44.9743 20.9233 46.7124 19.32 48.6112L12.9834 56.124L12.9799 56.1275C12.4175 56.8343 11.7137 57.4486 10.8788 57.9233C7.47651 59.8586 3.09437 58.7243 1.06137 55.3823C-1.06595 51.8816 0.111234 47.339 3.6393 45.3024C4.45669 44.8312 5.32823 44.5363 6.20675 44.4054H6.21025L15.8897 42.6759C18.3733 42.2327 20.8028 41.5486 23.1432 40.6376C24.6592 40.0477 25.6391 38.5679 25.6129 36.9414C25.6129 36.903 25.6129 36.8646 25.6129 36.8262V36.7965C25.6198 34.9432 24.3606 33.3272 22.5494 32.9206C22.2105 32.8438 21.8682 32.7757 21.5259 32.7146L15.5422 31.6466H15.5404C14.9867 31.5646 14.4418 31.3761 13.9283 31.0777C11.8412 29.8543 11.0936 27.1616 12.2569 25.0412C13.4742 22.8214 16.2722 22.0466 18.4537 23.3048C18.9602 23.5963 19.3863 23.9715 19.7287 24.4008L23.6462 29.0463C23.8698 29.3116 24.1003 29.5734 24.3361 29.8282C25.5867 31.1859 27.6144 31.4895 29.2073 30.5542C29.2475 30.5315 29.2859 30.5088 29.3261 30.4861C30.753 29.6833 31.5704 28.1022 31.3224 26.4845C30.9416 24.0029 30.3199 21.5597 29.4623 19.1898L26.1194 9.94923V9.94574C25.7875 9.10632 25.6059 8.19012 25.6129 7.23029C25.6338 3.31419 28.8056 0.0891601 32.7196 0.00190282C36.8171 -0.0905898 40.1653 3.20075 40.1653 7.27218C40.1653 8.21455 39.9854 9.11505 39.6588 9.94225V9.94574L36.3158 19.1863C35.46 21.5562 34.8382 23.9994 34.4575 26.481C34.2095 28.0987 35.0269 29.6798 36.4538 30.4826C36.494 30.5053 36.5341 30.528 36.5743 30.5507C38.1654 31.4861 40.1932 31.1824 41.4437 29.8247C41.6795 29.5699 41.9083 29.3081 42.1336 29.0429L46.0512 24.399H46.0529C46.4005 23.961 46.8354 23.5806 47.3524 23.2874C49.4553 22.0919 52.1624 22.7917 53.42 24.858C54.7351 27.022 54.0068 29.8299 51.8253 31.0882C51.3206 31.3796 50.7826 31.5611 50.2395 31.6431H50.236L44.254 32.7112C43.9099 32.7722 43.5693 32.842 43.2305 32.9171C41.4193 33.3237 40.16 34.938 40.167 36.793V36.8227C40.167 36.8611 40.167 36.8995 40.167 36.9379C40.1408 38.5626 41.1224 40.0425 42.6367 40.6341C44.9788 41.5468 47.4083 42.2309 49.8919 42.6724L59.5714 44.4001H59.5749C60.4674 44.5345 61.3529 44.8364 62.1807 45.3216C65.5586 47.2988 66.7672 51.6564 64.8862 55.0874" fill="#00BDFF"/>
</svg>
