<svg width="24" height="19" viewBox="0 0 24 19" xmlns="http://www.w3.org/2000/svg">
<path d="M20.0993 2.29312C18.5404 1.57874 16.8946 1.07193 15.2041 0.785645C14.9728 1.19957 14.7635 1.62544 14.5771 2.06149C12.7764 1.78988 10.9452 1.78988 9.1445 2.06149C8.95799 1.62549 8.74868 1.19962 8.51745 0.785645C6.82587 1.07435 5.17907 1.58236 3.6186 2.29685C0.52066 6.88465 -0.319143 11.3585 0.100758 15.7688C1.91499 17.1105 3.94563 18.1309 6.10441 18.7856C6.59051 18.1312 7.02064 17.437 7.39025 16.7103C6.68823 16.4479 6.01067 16.1241 5.36539 15.7427C5.53521 15.6194 5.70131 15.4924 5.8618 15.3691C7.73941 16.2529 9.78872 16.7112 11.8636 16.7112C13.9385 16.7112 15.9878 16.2529 17.8654 15.3691C18.0277 15.5017 18.1938 15.6287 18.3618 15.7427C17.7153 16.1247 17.0365 16.4491 16.3332 16.7122C16.7024 17.4385 17.1325 18.1322 17.619 18.7856C19.7797 18.1336 21.8119 17.1136 23.6264 15.7707C24.1191 10.6561 22.7848 6.22338 20.0993 2.29312ZM7.92212 13.0565C6.752 13.0565 5.78529 11.9936 5.78529 10.686C5.78529 9.37842 6.7184 8.30619 7.91839 8.30619C9.11837 8.30619 10.0776 9.37842 10.0571 10.686C10.0366 11.9936 9.11464 13.0565 7.92212 13.0565ZM15.8051 13.0565C14.6331 13.0565 13.6701 11.9936 13.6701 10.686C13.6701 9.37842 14.6032 8.30619 15.8051 8.30619C17.0069 8.30619 17.9587 9.37842 17.9382 10.686C17.9176 11.9936 16.9976 13.0565 15.8051 13.0565Z" />
</svg>
