<svg width="21" height="20" viewBox="0 0 21 20" xmlns="http://www.w3.org/2000/svg">
<path d="M5.91372 0.00398995C4.85465 0.0857135 3.89899 0.42595 3.07341 1.01636C2.78154 1.22484 2.64645 1.34159 2.36125 1.62679C1.89926 2.08878 1.58904 2.51574 1.31052 3.07446C0.986958 3.72491 0.806833 4.37537 0.743455 5.12923C0.720105 5.39941 0.721773 14.5975 0.743455 14.881C0.873546 16.4871 1.67744 17.9381 2.97334 18.9088C3.75388 19.4926 4.68787 19.8578 5.6969 19.9762C5.98044 20.0079 15.4871 20.0079 15.7706 19.9762C17.0998 19.8211 18.2773 19.2424 19.188 18.2967C19.9485 17.5045 20.4522 16.5238 20.6473 15.4531C20.7357 14.9627 20.7324 15.2046 20.7324 9.99928C20.7324 4.79399 20.7357 5.03583 20.6473 4.54549C20.4855 3.6632 20.1169 2.84597 19.5466 2.11046C19.3731 1.88697 18.8761 1.38162 18.6759 1.22651C17.7987 0.544366 16.9581 0.187451 15.8623 0.0306752C15.6772 0.00398995 15.3019 0.00232213 10.8255 0.000654297C8.16529 -0.00101353 5.95542 0.000654297 5.91372 0.00398995ZM17.6869 2.25389C17.8887 2.30726 18.1239 2.45236 18.244 2.59746C18.5592 2.98273 18.6026 3.48808 18.3541 3.90671C18.2807 4.02679 18.1039 4.20358 17.9838 4.27697C17.5385 4.54215 16.9864 4.47377 16.6228 4.11018C16.2392 3.72825 16.1859 3.15619 16.4911 2.70087C16.7479 2.31727 17.2316 2.13714 17.6869 2.25389ZM11.4593 4.48544C11.8946 4.54882 12.2932 4.64722 12.6718 4.78899C14.4513 5.45112 15.7773 6.98719 16.1692 8.84181C16.2626 9.28212 16.2776 9.4439 16.2776 9.99928C16.2776 10.5297 16.2626 10.7064 16.1859 11.0817C15.9457 12.2542 15.3586 13.2999 14.4947 14.0905C14.0911 14.4591 13.6758 14.7409 13.1771 14.9861C12.3832 15.3764 11.621 15.5532 10.7337 15.5532C9.84646 15.5532 9.08426 15.3764 8.29038 14.9861C7.9368 14.8126 7.68996 14.6625 7.39142 14.4374C6.20059 13.5418 5.43005 12.2258 5.22157 10.7315C5.17988 10.4346 5.16987 9.74911 5.20323 9.43222C5.44173 7.16731 7.01115 5.29101 9.19934 4.65389C9.43951 4.58551 9.84479 4.50546 10.0916 4.47877C10.1934 4.46877 10.2901 4.45709 10.3084 4.45376C10.4035 4.43708 11.2925 4.46209 11.4593 4.48544Z" />
<path d="M10.3185 6.69031C9.74639 6.75869 9.16599 6.99886 8.69066 7.36245C8.54889 7.46919 8.26369 7.74938 8.14361 7.89782C7.32637 8.90852 7.1696 10.2995 7.73999 11.462C8.73402 13.4867 11.4042 13.9654 13.032 12.411C13.7759 11.6988 14.1528 10.6931 14.0527 9.68073C13.9877 9.03028 13.7325 8.40317 13.3239 7.89782C13.2055 7.75272 12.9219 7.47419 12.7768 7.36245C12.078 6.82541 11.1957 6.58357 10.3185 6.69031Z" />
</svg>
