<svg width="18" height="19" viewBox="0 0 18 19" xmlns="http://www.w3.org/2000/svg">
<path d="M14.3293 18.7856H17.944V11.3678C17.944 7.70435 15.7643 6.45482 13.7474 6.45482C11.8823 6.45482 10.6154 7.71534 10.2656 8.45372V6.79192H6.78933V18.7856H10.404V12.283C10.404 10.5492 11.4554 9.70603 12.528 9.70603C13.5425 9.70603 14.3293 10.3021 14.3293 12.2349V18.7856Z" />
<path d="M0.726562 2.9537C0.726562 4.20585 1.65958 5.12089 2.81049 5.12089C3.96156 5.12089 4.89458 4.20585 4.89458 2.9537C4.89458 1.70173 3.96156 0.785645 2.81049 0.785645C1.65958 0.785645 0.726562 1.70173 0.726562 2.9537Z" />
<path d="M1.00323 18.7764H4.61774V6.78268H1.00323V18.7764Z" />
</svg>
