<svg width="21" height="20" viewBox="0 0 21 20" xmlns="http://www.w3.org/2000/svg">
<path fill-rule="evenodd" clip-rule="evenodd" d="M10.1602 20C15.683 20 20.1602 15.5228 20.1602 10C20.1602 4.47715 15.683 0 10.1602 0C4.63731 0 0.160156 4.47715 0.160156 10C0.160156 15.5228 4.63731 20 10.1602 20ZM7.80167 15.2594V15.059L6.46912 13.4316L6.41016 13.0896V8.60849L9.4644 15.2594H9.82997L12.4597 8.60849V14.0566L11.4219 15.059V15.2594H15.9974V15.059L14.9951 14.0566V7.1934C15.337 6.87107 16.0234 6.21698 16.0328 6.17924C16.0422 6.14151 16.0367 6.02201 16.0328 5.96698H12.8017L10.4786 11.6863L7.84884 5.96698H4.47619L4.45261 6.14387L5.69082 7.67689V13.0896L5.65544 13.4316L4.29931 15.059V15.2594H7.80167Z" />
</svg>
