<svg width="19" height="22" viewBox="0 0 19 22" xmlns="http://www.w3.org/2000/svg">
<path fill-rule="evenodd" clip-rule="evenodd" d="M7.78684 8.95332V8.11595C7.49523 8.0748 7.20119 8.05343 6.90665 8.05204C3.3051 8.05204 0.375 10.9728 0.375 14.5622C0.375 16.7641 1.47915 18.7132 3.16351 19.8918C2.03569 18.6897 1.40868 17.1052 1.40959 15.4596C1.40959 11.9212 4.2563 9.03593 7.78684 8.95332Z" />
<path fill-rule="evenodd" clip-rule="evenodd" d="M7.94025 18.4324C9.54714 18.4324 10.858 17.1584 10.9177 15.5707L10.9231 1.39736H13.5212C13.4657 1.10143 13.4377 0.801048 13.4373 0.5H9.88907L9.88314 14.6739C9.82395 16.2611 8.51257 17.5346 6.90617 17.5346C6.42387 17.5348 5.94884 17.4177 5.52228 17.1934C5.79769 17.5763 6.16066 17.8885 6.58112 18.1039C7.00158 18.3194 7.46746 18.432 7.94025 18.4324ZM18.375 6.20814V5.42042C17.4202 5.42131 16.4859 5.1445 15.6866 4.62387C16.3874 5.42798 17.3303 5.98384 18.375 6.20814Z" />
<path fill-rule="evenodd" clip-rule="evenodd" d="M13.4372 14.5617V7.37453C14.8754 8.40539 16.6027 8.95897 18.3743 8.95682L18.375 6.20814C17.3303 5.98384 16.3874 5.42798 15.6866 4.62387C15.1256 4.26018 14.6437 3.78634 14.2716 3.2319C13.8995 2.67746 13.6443 2.05302 13.5212 1.39736H10.9231L10.9177 15.5707C10.858 17.1584 9.54714 18.4324 7.94025 18.4324C7.46746 18.432 7.00158 18.3194 6.58112 18.1039C6.16066 17.8885 5.79769 17.5763 5.52228 17.1934C5.04042 16.9416 4.63661 16.5634 4.35477 16.0996C4.07294 15.6358 3.92368 15.104 3.92314 14.5617C3.92404 13.7736 4.23859 13.018 4.79781 12.4607C5.35699 11.9033 6.1152 11.5898 6.90603 11.5889C7.21291 11.5889 7.50744 11.6391 7.78618 11.7266L7.78684 8.95332C4.2563 9.03593 1.40959 11.9212 1.40959 15.4596C1.40959 17.1707 2.07662 18.7285 3.16351 19.8918C4.25921 20.6606 5.56607 21.0726 6.90603 21.0714C10.5076 21.0714 13.4372 18.1512 13.4372 14.5617Z" />
</svg>
