<svg width="33" height="33" viewBox="0 0 33 33" fill="none" xmlns="http://www.w3.org/2000/svg">
<path fill-rule="evenodd" clip-rule="evenodd" d="M16.5008 14.9971C20.3659 14.9971 23.4986 11.8644 23.4986 7.99928C23.4986 4.13416 20.3659 1 16.5008 1C12.6357 1 9.50151 4.13416 9.50151 7.99928C9.48845 11.8514 12.5994 14.9841 16.4515 14.9971C16.4689 14.9971 16.4848 14.9971 16.5008 14.9971Z" stroke="white" stroke-width="1.72855" stroke-linecap="round" stroke-linejoin="round"/>
<path opacity="0.5" fill-rule="evenodd" clip-rule="evenodd" d="M16.4998 31.2526C10.6101 31.2526 5.58032 30.3361 5.58032 26.6655C5.58032 22.9949 10.5782 19.6064 16.4998 19.6064C22.3896 19.6064 27.4194 22.9621 27.4194 26.6326C27.4194 30.3017 22.4215 31.2526 16.4998 31.2526Z" stroke="white" stroke-width="1.72855" stroke-linecap="round" stroke-linejoin="round"/>
</svg>
