<svg width="25" height="28" viewBox="0 0 25 28" fill="none" xmlns="http://www.w3.org/2000/svg">
<path d="M7.70166 8.07361C7.71619 5.46358 7.83193 4.05008 8.75399 3.12802C9.80841 2.07361 11.5055 2.07361 14.8996 2.07361H16.0996C19.4937 2.07361 21.1907 2.07361 22.2452 3.12802C23.2996 4.18244 23.2996 5.8795 23.2996 9.27361V18.8736C23.2996 22.2677 23.2996 23.9648 22.2452 25.0192C21.1907 26.0736 19.4937 26.0736 16.0996 26.0736H14.8996C11.5055 26.0736 9.80841 26.0736 8.75399 25.0192C7.83193 24.0971 7.71619 22.6836 7.70166 20.0736" stroke="#C4C4C4" stroke-width="2.25" stroke-linecap="round"/>
<path opacity="0.5" d="M7.7002 23.0736C4.87177 23.0736 3.45755 23.0736 2.57888 22.1949C1.7002 21.3162 1.7002 19.902 1.7002 17.0736V11.0736C1.7002 8.24518 1.7002 6.83097 2.57888 5.95229C3.45755 5.07361 4.87177 5.07361 7.7002 5.07361" stroke="#C4C4C4" stroke-width="2.25"/>
<path d="M16.0996 14.0737L5.29956 14.0737M5.29956 14.0737L7.69956 16.4737M5.29956 14.0737L7.69956 11.6737" stroke="#C4C4C4" stroke-width="2.25" stroke-linecap="round" stroke-linejoin="round"/>
</svg>
