<?xml version="1.0" encoding="UTF-8"?>
<svg id="_Слой_1" data-name="Слой 1" xmlns="http://www.w3.org/2000/svg" version="1.1" viewBox="0 0 2000 2000">
  <defs>
    <style>
      .cls-1 {
        fill: #58c8c2;
      }

      .cls-1, .cls-2, .cls-3 {
        stroke-width: 0px;
      }

      .cls-2 {
        display: none;
        fill: #00bdff;
      }

      .cls-3 {
        fill: #fff;
      }
    </style>
  </defs>
  <path class="cls-2" d="M1682.06,1529.06c-41.97,76.6-138.44,103.32-213.67,59.9-17.41-10.06-32.13-22.97-43.92-37.8l-.07-.07-135.06-160.24c-34.17-40.51-72.08-77.58-113.21-110.72-27.5-22.16-66.01-25.8-96.29-7.61-1.28.78-2.58,1.52-3.89,2.26-34.06,19.13-49.45,59.97-37.78,97.25,2.21,7.05,4.57,14.07,7.09,21.04l44.02,121.82.02.05c4.36,11.08,6.74,23.16,6.66,35.81-.33,51.57-42.12,94.08-93.67,95.23-53.97,1.22-98.1-42.17-98.1-95.85,0-12.43,2.38-24.3,6.68-35.19v-.05s44.02-121.82,44.02-121.82c2.52-6.97,4.89-13.99,7.09-21.04,11.67-37.28-3.73-78.13-37.78-97.25-1.31-.74-2.61-1.49-3.89-2.26-30.29-18.19-68.8-14.56-96.3,7.61-41.12,33.14-79.03,70.2-113.19,110.71l-135.06,160.24-.07.07c-11.98,15.06-26.99,28.17-44.77,38.29-72.51,41.27-165.91,17.09-209.25-54.2-45.35-74.66-20.26-171.55,54.95-215,17.41-10.05,35.98-16.34,54.72-19.13l.09-.02,206.29-36.86c52.92-9.45,104.69-24.04,154.59-43.49,32.3-12.59,53.19-44.16,52.65-78.83-.01-.83-.02-1.65-.02-2.48v-.64c.16-39.55-26.71-74.01-65.3-82.67-7.23-1.62-14.5-3.09-21.81-4.4l-127.51-22.78h-.05c-11.78-1.75-23.42-5.76-34.35-12.13-44.49-26.08-60.4-83.54-35.64-128.76,25.95-47.34,85.57-63.87,132.05-37.03,10.78,6.23,19.87,14.21,27.16,23.36l.03.05,83.48,99.04c4.78,5.67,9.68,11.22,14.7,16.68,26.66,28.95,69.88,35.44,103.8,15.48.85-.5,1.69-.98,2.55-1.47,30.42-17.14,47.83-50.84,42.54-85.35-8.11-52.94-21.37-105.06-39.62-155.61l-71.23-197.08-.02-.08c-7.06-17.92-10.91-37.46-10.78-57.92.53-83.45,68.15-152.25,151.57-154.1,87.32-1.97,158.7,68.23,158.7,155.09,0,20.11-3.83,39.31-10.78,56.94l-.02.08-71.24,197.08c-18.25,50.54-31.51,102.67-39.62,155.6-5.29,34.52,12.12,68.22,42.55,85.36.86.48,1.71.97,2.55,1.47,33.92,19.96,77.14,13.47,103.79-15.48,5.02-5.45,9.91-11,14.69-16.67l83.49-99.04.05-.05c7.4-9.3,16.68-17.41,27.68-23.66,44.82-25.5,102.53-10.57,129.31,33.5,28.02,46.14,12.51,106.04-33.97,132.88-10.76,6.2-22.23,10.1-33.79,11.83h-.07s-127.49,22.78-127.49,22.78c-7.32,1.31-14.59,2.78-21.83,4.4-38.59,8.66-65.45,43.12-65.3,82.67v.63c0,.83,0,1.65-.02,2.48-.54,34.66,20.34,66.23,52.64,78.83,49.9,19.45,101.68,34.04,154.62,43.49l206.29,36.86.09.02c19.03,2.85,37.88,9.28,55.55,19.64,72,42.16,97.76,135.13,57.67,208.3"/>
  <g>
    <path class="cls-1" d="M244.3,961l225.95-225.95,264.94,264.94-264.94,264.94-225.95-225.95c-21.54-21.54-21.54-56.45,0-77.99Z"/>
    <path class="cls-1" d="M1264.8,1000l264.96-265.02,225.94,226.02c21.53,21.54,21.53,56.45,0,77.99l-225.98,226.03-264.93-265.01Z"/>
    <path class="cls-3" d="M1452.82,655.42l-264.93,264.93-72.78-72.78-112.52-112.52-.43.43-187.1,187.1-264.93-264.93,50.05-50.05,137.45-137.51,117.96-117.96c30.32-30.32,67.64-49.28,106.77-56.99,1.41-.24,2.78-.49,4.16-.73,64.49-11.32,133.23,7.95,183.06,57.73l117.96,117.96,185.26,185.33Z"/>
    <path class="cls-3" d="M1452.82,1342.33l-69.87,69.9-117.63,117.66-117.96,117.99c-29.06,29.06-64.58,47.69-101.9,55.95-1.04.22-2.05.43-3.09.64-66.17,13.58-137.63-5.26-189-56.6l-117.96-117.99-185.26-185.29,264.96-264.93,185.26,185.26,187.53-187.53,264.93,264.93Z"/>
  </g>
</svg>