<svg width="151" height="40" viewBox="0 0 151 40" fill="none" xmlns="http://www.w3.org/2000/svg">
<path d="M123.004 8.99628L123.003 8.99662C122.181 9.81934 121.765 10.8212 121.765 11.9892C121.765 13.1739 122.18 14.1862 123.003 15.0089L123.004 15.009C123.827 15.8308 124.831 16.2446 126.001 16.2446H138.715C140.88 16.2446 142.846 16.7749 144.622 17.8336C146.4 18.8962 147.821 20.3182 148.884 22.1032C149.945 23.8837 150.477 25.8514 150.477 28.0118C150.477 30.1721 149.945 32.1346 148.884 33.9048L149.099 34.0333L148.884 33.9049C147.821 35.6811 146.4 37.0993 144.621 38.1611C142.846 39.2197 140.88 39.75 138.715 39.75H110.775V32.2392H138.715C139.885 32.2392 140.889 31.8254 141.712 31.0036L141.713 31.0035C142.535 30.1817 142.951 29.1797 142.951 28.0118C142.951 26.8439 142.536 25.8375 141.714 25.0062L141.713 25.006C140.89 24.175 139.886 23.7554 138.715 23.7554H126.001C123.836 23.7554 121.869 23.2251 120.096 22.1664L120.095 22.1664C118.315 21.1047 116.895 19.6865 115.832 17.9112L115.617 18.0397L115.831 17.9112C114.77 16.1403 114.239 14.169 114.239 11.9892C114.239 9.82881 114.77 7.86639 115.831 6.09522L115.617 5.9667L115.832 6.09518C116.895 4.31986 118.315 2.90169 120.095 1.84L120.096 1.83994C121.869 0.781255 123.836 0.25 126.001 0.25H141.914V7.76177H126.001C124.831 7.76177 123.828 8.17561 123.004 8.99628ZM78.3462 33.9049L78.3462 33.9048C77.2857 32.1346 76.7545 30.1722 76.7545 28.0118V20V11.9892C76.7545 9.82883 77.2857 7.86639 78.3462 6.09518C79.4098 4.3199 80.8309 2.9017 82.6102 1.83997C84.3845 0.781244 86.3511 0.25 88.5166 0.25H111V7.76177H88.5166C87.346 7.76177 86.3432 8.17563 85.5194 8.99628L85.5191 8.99651C84.6952 9.81938 84.2812 10.8214 84.2812 11.9892V15.9946V16.2446H84.5312H102.176V23.7554H84.5312H84.2812V24.0054V28.0118C84.2812 29.1796 84.6952 30.1817 85.5193 31.0036C86.3431 31.8253 87.346 32.2392 88.5166 32.2392H105.482V39.75H88.5166C86.351 39.75 84.3845 39.2197 82.6102 38.161C80.8309 37.0993 79.4098 35.6811 78.3462 33.9049ZM65.9887 24.0054V23.7554H65.7387H57.3159V16.2446H69.7521C70.7892 16.2446 71.6701 16.6099 72.4103 17.3482C73.1493 18.0854 73.5154 18.9651 73.5154 20V32.5339H65.9887V24.0054ZM18.9075 39.75H0.25V32.2392H18.9075C21.5561 32.2392 23.8223 31.3027 25.6939 29.4351L25.694 29.4351C27.5646 27.5675 28.5034 25.3042 28.5034 22.6613V17.3387C28.5034 14.6958 27.5646 12.4335 25.694 10.5659L25.6939 10.5659C23.8223 8.69831 21.5561 7.76177 18.9075 7.76177H6.26343V0.25H18.9075C23.4782 0.25 27.5042 1.91138 30.9963 5.2473C34.3573 8.7507 36.0301 12.7786 36.0301 17.3387V22.6613C36.0301 27.2224 34.3573 31.2493 30.9963 34.7527C27.5042 38.0886 23.4783 39.75 18.9075 39.75ZM49.2135 10.173C47.6041 11.7793 46.7969 13.7245 46.7969 15.9946V24.0054C46.7969 26.2755 47.6041 28.2207 49.2135 29.827C50.8219 31.4333 52.771 32.2392 55.0457 32.2392H65.0834V39.75H55.0457C50.83 39.75 47.1131 38.2202 43.8833 35.1456C40.8027 31.9226 39.2692 28.2118 39.2692 24.0054V15.9946C39.2692 11.7882 40.8027 8.07839 43.8833 4.85543C47.1131 1.78073 50.83 0.25 55.0457 0.25H72.1683V7.76177H55.0457C52.771 7.76177 50.8219 8.56774 49.2135 10.173Z" fill="#ECF2F5" stroke="#1B1B1B" stroke-width="0.5"/>
<rect x="67.3516" y="33.6753" width="6.01343" height="6.01343" fill="#40C9C1"/>
</svg>
