<svg width="32" height="33" viewBox="0 0 32 33" fill="none" xmlns="http://www.w3.org/2000/svg">
<path d="M21.3665 3.57297L24.3665 5.14732C27.594 6.84105 29.2078 7.68792 30.1039 9.2097C31 10.7315 31 12.6251 31 16.4124V16.5879C31 20.3752 31 22.2689 30.1039 23.7906C29.2078 25.3124 27.594 26.1593 24.3665 27.853L21.3665 29.4274C18.733 30.8093 17.4163 31.5003 15.9998 31.5003C14.5834 31.5003 13.2667 30.8093 10.6332 29.4274L7.63319 27.853C4.40565 26.1593 2.79188 25.3124 1.89578 23.7906C0.999672 22.2689 0.999672 20.3752 0.999672 16.5879V16.4124C0.999672 12.6251 0.999672 10.7315 1.89578 9.2097C2.79188 7.68792 4.40565 6.84105 7.63319 5.14732L10.6332 3.57297C13.2667 2.19099 14.5834 1.5 15.9998 1.5C17.4163 1.5 18.733 2.19099 21.3665 3.57297Z" stroke="white" stroke-width="1.5" stroke-linecap="round"/>
<path opacity="0.5" d="M29.4999 9.75024L15.9997 16.5003M15.9997 16.5003L2.49957 9.75024M15.9997 16.5003V30.7505" stroke="white" stroke-width="1.5" stroke-linecap="round"/>
</svg>
