<svg width="26" height="26" viewBox="0 0 26 26" fill="none" xmlns="http://www.w3.org/2000/svg">
<path d="M13 25.387C11.9678 25.387 11.1075 25.0537 10.4194 24.387C9.73119 23.7203 9.3871 22.9139 9.3871 21.9677C9.3871 21.4301 9.49464 20.9461 9.70969 20.516C9.92474 20.0859 10.3011 19.6127 10.8387 19.0967C11.3979 18.5805 11.8387 18.0967 12.1613 17.6451C12.5054 17.172 12.6774 16.7633 12.6774 16.4192V15.2579C12.2043 15.1504 11.785 14.9354 11.4194 14.6128C11.0753 14.2687 10.8495 13.8601 10.7419 13.387H9.58065C9.21506 13.387 8.78496 13.559 8.29034 13.9032C7.79571 14.2471 7.3226 14.6666 6.87098 15.1612C6.41937 15.6558 5.96776 16.0214 5.51614 16.2579C5.08603 16.4945 4.59142 16.6128 4.03227 16.6128C3.06453 16.6128 2.24732 16.2687 1.58066 15.5805C0.935496 14.8924 0.612915 14.0321 0.612915 12.9999C0.612915 11.9676 0.935496 11.1074 1.58066 10.4192C2.24732 9.73107 3.06453 9.38698 4.03227 9.38698C4.93549 9.38698 5.70969 9.70957 6.35486 10.3547C7.00001 10.9999 7.58066 11.5483 8.09679 11.9999C8.61291 12.4515 9.10754 12.6773 9.58065 12.6773H10.7419C10.8495 12.1827 11.0753 11.7741 11.4194 11.4515C11.785 11.1074 12.2043 10.8924 12.6774 10.8063V9.64506C12.6774 9.08591 12.2473 8.37623 11.3871 7.51602L10.7097 6.8386C9.82797 5.95688 9.3871 5.0214 9.3871 4.03215C9.3871 3.06441 9.73119 2.25795 10.4194 1.61279C11.129 0.946126 11.9893 0.612793 13 0.612793C14.0322 0.612793 14.8925 0.946126 15.5806 1.61279C16.2688 2.27946 16.613 3.08591 16.613 4.03215C16.613 5.12892 16.0752 6.16118 15 7.12893C13.9247 8.11817 13.3871 8.95688 13.3871 9.64506V10.8063C13.8817 10.8924 14.2904 11.1074 14.6129 11.4515C14.9571 11.7741 15.1721 12.1827 15.2581 12.6773H16.4193C17.1506 12.6773 17.9893 12.1289 18.9355 11.0322C19.9032 9.93537 20.914 9.38698 21.9678 9.38698C22.9355 9.38698 23.742 9.74182 24.3871 10.4515C25.0538 11.1397 25.3871 11.9891 25.3871 12.9999C25.3871 14.0321 25.0538 14.8924 24.3871 15.5805C23.7204 16.2687 22.914 16.6128 21.9678 16.6128C21.0645 16.6128 20.3011 16.3009 19.6774 15.6774C19.0538 15.0537 18.4731 14.5161 17.9355 14.0644C17.3978 13.6128 16.8925 13.387 16.4193 13.387H15.2581C15.086 14.4192 14.4624 15.0429 13.3871 15.2579V16.4192C13.3871 17.0643 13.9247 17.8924 15 18.9031C16.0752 19.9139 16.613 20.9353 16.613 21.9677C16.613 22.9353 16.2581 23.7419 15.5484 24.387C14.8602 25.0537 14.0108 25.387 13 25.387Z" fill="white"/>
</svg>
