<svg width="32" height="33" viewBox="0 0 32 33" fill="none" xmlns="http://www.w3.org/2000/svg">
<path d="M8.66709 16.5C5.05305 16.5 3.24604 16.5 2.1233 15.4862C1.00056 14.4723 1.00056 12.8405 1.00056 9.577L1.00056 9.42316C1.00056 6.15963 1.00056 4.52786 2.1233 3.51401C3.24604 2.50017 5.05305 2.50017 8.66709 2.50016L23.3335 2.50016C26.9475 2.50016 28.7545 2.50016 29.8773 3.51401C31 4.52786 31 6.15963 31 9.42316L31 9.577C31 12.8405 31 14.4723 29.8773 15.4861C28.7545 16.5 26.9475 16.5 23.3335 16.5L8.66709 16.5Z" stroke="white" stroke-width="1.74997"/>
<ellipse opacity="0.5" cx="2.22218" cy="1.99998" rx="2.22218" ry="1.99998" transform="matrix(-1 0 0 1 8.7778 5.5)" stroke="white" stroke-width="1.74997"/>
<path d="M8.66709 30.4998C5.05305 30.4998 3.24604 30.4998 2.1233 29.4859C1.00056 28.4721 1.00056 26.8403 1.00056 23.5768L1.00056 23.4229C1.00056 20.1594 1.00056 18.5276 2.1233 17.5138C3.24604 16.4999 5.05305 16.4999 8.66709 16.4999L23.3335 16.4999C26.9475 16.4999 28.7545 16.4999 29.8773 17.5138C31 18.5276 31 20.1594 31 23.4229L31 23.5768C31 26.8403 31 28.4721 29.8773 29.4859C28.7545 30.4998 26.9475 30.4998 23.3335 30.4998L8.66709 30.4998Z" stroke="white" stroke-width="1.74997"/>
<ellipse opacity="0.5" cx="2.22218" cy="1.99998" rx="2.22218" ry="1.99998" transform="matrix(-1 0 0 1 8.7778 19.4998)" stroke="white" stroke-width="1.74997"/>
</svg>
