<svg width="32" height="33" viewBox="0 0 32 33" fill="none" xmlns="http://www.w3.org/2000/svg">
<path opacity="0.5" d="M26.6403 5.64581C17.0417 10.2549 23.8755 17.0877 31.1812 17.26C31.1936 17.0083 31.2 16.7549 31.2 16.5C31.2 8.10532 24.3947 1.30005 16 1.30005M16 1.30005C7.60527 1.30005 0.799999 8.10532 0.799999 16.5C0.799999 17.804 0.964201 19.0697 1.27306 20.2774M16 1.30005L15.3418 7.55262C15.2459 8.46371 15.198 8.91925 15.0239 9.31451C14.8698 9.66427 14.6448 9.97828 14.3632 10.2367C14.045 10.5287 13.6291 10.7206 12.7973 11.1046L12.4579 11.2612C11.2607 11.8138 10.6621 12.09 10.2751 12.5316C9.93386 12.9209 9.70884 13.3982 9.62566 13.9091C9.5313 14.4887 9.69908 15.1263 10.0346 16.4014L10.6077 18.579C10.6311 18.668 10.6428 18.7125 10.6501 18.7447C10.9386 20.0259 9.83228 21.189 8.53824 20.9649C8.50573 20.9592 8.46071 20.9498 8.37067 20.9308V20.9308C8.26519 20.9086 8.21245 20.8975 8.1598 20.8867C6.2334 20.4888 4.27202 20.2848 2.30499 20.2776C2.25122 20.2774 2.19733 20.2774 2.08954 20.2774H1.27306M16.76 31.6814C16.5082 31.6938 16.2548 31.7 16 31.7C8.90926 31.7 2.95253 26.8448 1.27306 20.2774" stroke="white" stroke-width="1.5" stroke-linecap="round" stroke-linejoin="round"/>
<path d="M18.4184 18.9182L23.2319 31.6084L24.3082 28.9158C24.7407 27.8339 24.9569 27.2929 25.2853 26.8361C25.5765 26.4312 25.9314 26.0763 26.3363 25.7851C26.7931 25.4567 27.3341 25.2405 28.416 24.808L31.1086 23.7317L18.4184 18.9182Z" stroke="white" stroke-width="1.5" stroke-linecap="round" stroke-linejoin="round"/>
</svg>
