<svg width="67" height="93" viewBox="0 0 67 93" fill="none" xmlns="http://www.w3.org/2000/svg">
<path d="M28.7188 47.2813V36.1813C28.7188 35.3413 28.7188 34.9212 28.8822 34.6004C29.0261 34.3181 29.2555 34.0886 29.5378 33.9448C29.8586 33.7813 30.2787 33.7813 31.1187 33.7813H35.3187C36.1588 33.7813 36.5789 33.7813 36.8997 33.9448C37.182 34.0886 37.4114 34.3181 37.5553 34.6004C37.7187 34.9212 37.7188 35.3413 37.7188 36.1813V47.2813M31.7453 19.9274L21.5718 27.8401C20.8918 28.369 20.5518 28.6335 20.3068 28.9647C20.0898 29.258 19.9282 29.5885 19.8298 29.9399C19.7188 30.3367 19.7188 30.7674 19.7188 31.629V42.4813C19.7188 44.1615 19.7188 45.0016 20.0457 45.6433C20.3334 46.2078 20.7923 46.6667 21.3568 46.9544C21.9985 47.2813 22.8386 47.2813 24.5187 47.2813H41.9188C43.5989 47.2813 44.439 47.2813 45.0807 46.9544C45.6452 46.6667 46.1041 46.2078 46.3918 45.6433C46.7187 45.0016 46.7188 44.1615 46.7188 42.4813V31.629C46.7188 30.7674 46.7187 30.3367 46.6077 29.9399C46.5093 29.5885 46.3477 29.258 46.1307 28.9647C45.8857 28.6335 45.5457 28.369 44.8657 27.8401L34.6922 19.9274C34.1652 19.5175 33.9017 19.3126 33.6108 19.2338C33.354 19.1643 33.0835 19.1643 32.8267 19.2338C32.5358 19.3126 32.2723 19.5175 31.7453 19.9274Z" stroke="white" stroke-width="3" stroke-linecap="round" stroke-linejoin="round"/>
<path d="M33.2188 59.7812V77.5M33.2188 77.5L42.0781 68.6406M33.2188 77.5L24.3594 68.6406" stroke="white" stroke-width="3" stroke-linecap="round" stroke-linejoin="round"/>
</svg>
