<svg width="205" height="41" viewBox="0 0 205 41" fill="none" xmlns="http://www.w3.org/2000/svg">
<path d="M204.5 1.5C204.776 1.5 205 1.27614 205 1C205 0.723858 204.776 0.5 204.5 0.5V1.5ZM38.0355 2.46447L38.3891 2.81802L38.0355 2.46447ZM4.35355 36.8536L38.3891 2.81802L37.682 2.11091L3.64645 36.1464L4.35355 36.8536ZM41.5711 1.5H204.5V0.5H41.5711V1.5ZM38.3891 2.81802C39.233 1.97411 40.3776 1.5 41.5711 1.5V0.5C40.1124 0.5 38.7134 1.07946 37.682 2.11091L38.3891 2.81802Z" fill="#A4A4A4"/>
<rect y="35.5" width="5" height="5" rx="2.5" fill="white"/>
</svg>
