<svg width="1728" height="1110" viewBox="0 0 1728 1110" fill="none" xmlns="http://www.w3.org/2000/svg">
<g opacity="0.1">
<g filter="url(#filter0_bf_312_5582)">
<path d="M1838 438.416C1838 508.786 1512.05 529.428 1232.75 529.428C953.46 529.428 610 792.404 610 722.034C610 651.664 1053 311 1332.29 311C1611.59 311 1838 368.046 1838 438.416Z" fill="url(#paint0_linear_312_5582)"/>
</g>
<g filter="url(#filter1_df_312_5582)">
<path d="M919.171 810.672C923.422 852.633 1248.66 826.113 1526.27 792.843C1803.89 759.574 2161.17 875.469 2156.92 833.509C2152.67 791.548 1691.75 641.186 1414.14 674.455C1136.52 707.725 914.92 768.711 919.171 810.672Z" fill="url(#paint1_linear_312_5582)" fill-opacity="0.5" shape-rendering="crispEdges"/>
</g>
<g filter="url(#filter2_bf_312_5582)">
<path d="M1177.68 885.215C1027.73 967.639 560.169 941.68 360.87 747.053C161.57 552.426 121.562 327.832 271.509 245.408C651.194 113.89 552.314 294.472 751.613 489.1C950.912 683.727 1327.62 802.792 1177.68 885.215Z" fill="url(#paint2_linear_312_5582)" fill-opacity="0.6"/>
</g>
</g>
<defs>
<filter id="filter0_bf_312_5582" x="490" y="191" width="1468" height="663" filterUnits="userSpaceOnUse" color-interpolation-filters="sRGB">
<feFlood flood-opacity="0" result="BackgroundImageFix"/>
<feGaussianBlur in="BackgroundImageFix" stdDeviation="40"/>
<feComposite in2="SourceAlpha" operator="in" result="effect1_backgroundBlur_312_5582"/>
<feBlend mode="normal" in="SourceGraphic" in2="effect1_backgroundBlur_312_5582" result="shape"/>
<feGaussianBlur stdDeviation="60" result="effect2_foregroundBlur_312_5582"/>
</filter>
<filter id="filter1_df_312_5582" x="851.109" y="601.69" width="1397.84" height="333.097" filterUnits="userSpaceOnUse" color-interpolation-filters="sRGB">
<feFlood flood-opacity="0" result="BackgroundImageFix"/>
<feColorMatrix in="SourceAlpha" type="matrix" values="0 0 0 0 0 0 0 0 0 0 0 0 0 0 0 0 0 0 127 0" result="hardAlpha"/>
<feOffset dx="12" dy="12"/>
<feGaussianBlur stdDeviation="40"/>
<feComposite in2="hardAlpha" operator="out"/>
<feColorMatrix type="matrix" values="0 0 0 0 1 0 0 0 0 0.967904 0 0 0 0 0.967904 0 0 0 0.25 0"/>
<feBlend mode="normal" in2="BackgroundImageFix" result="effect1_dropShadow_312_5582"/>
<feBlend mode="normal" in="SourceGraphic" in2="effect1_dropShadow_312_5582" result="shape"/>
<feGaussianBlur stdDeviation="10" result="effect2_foregroundBlur_312_5582"/>
</filter>
<filter id="filter2_bf_312_5582" x="-19.2461" y="0.521973" width="1431.33" height="1128.83" filterUnits="userSpaceOnUse" color-interpolation-filters="sRGB">
<feFlood flood-opacity="0" result="BackgroundImageFix"/>
<feGaussianBlur in="BackgroundImageFix" stdDeviation="40"/>
<feComposite in2="SourceAlpha" operator="in" result="effect1_backgroundBlur_312_5582"/>
<feBlend mode="normal" in="SourceGraphic" in2="effect1_backgroundBlur_312_5582" result="shape"/>
<feGaussianBlur stdDeviation="100" result="effect2_foregroundBlur_312_5582"/>
</filter>
<linearGradient id="paint0_linear_312_5582" x1="826.588" y1="438.416" x2="1838" y2="438.416" gradientUnits="userSpaceOnUse">
<stop offset="0.104167" stop-color="#F8F8F8" stop-opacity="0"/>
<stop offset="0.786458" stop-color="#FAF4F5"/>
</linearGradient>
<linearGradient id="paint1_linear_312_5582" x1="1924.5" y1="690.192" x2="917.302" y2="792.232" gradientUnits="userSpaceOnUse">
<stop offset="0.104167" stop-color="#F8F8F8" stop-opacity="0"/>
<stop offset="0.786458" stop-color="#7C7C7C"/>
</linearGradient>
<linearGradient id="paint2_linear_312_5582" x1="271.509" y1="245.408" x2="736.503" y2="1091.34" gradientUnits="userSpaceOnUse">
<stop offset="0.375" stop-color="white"/>
<stop offset="0.995" stop-color="white"/>
</linearGradient>
</defs>
</svg>
