<svg width="165" height="344" viewBox="0 0 165 344" fill="none" xmlns="http://www.w3.org/2000/svg">
<path d="M2.06897 82.2979H1.03808C0.464767 82.2979 0 81.8316 0 81.2596V70.5844C0 70.0105 0.464767 69.5461 1.03808 69.5461H2.06897V82.2979Z" fill="#ffffff"/>
<path d="M2.06896 119.878H1.03796C0.464711 119.878 0 119.413 0 118.84V96.0863C0 95.5116 0.464711 95.0467 1.03796 95.0467H2.06896V119.878Z" fill="#ffffff"/>
<path d="M164.169 152.535H162.707V112.961H164.169C164.629 112.961 165 113.332 165 113.792V151.704C165 152.164 164.629 152.535 164.169 152.535Z" fill="#ffffff"/>
<rect x="1.88281" y="0.500275" width="160.552" height="342.816" rx="25.5" stroke="#ffffff"/>
<rect x="4.64062" y="3.26172" width="155.029" height="336.603" rx="25.5" stroke="#ffffff"/>
</svg>
