<svg width="18" height="16" viewBox="0 0 18 16" fill="none" xmlns="http://www.w3.org/2000/svg">
<path d="M2.19555 12.9705L2.86792 14.116L8.78634 11.1443L14.7048 14.116L15.3772 12.9705L9.45878 9.99884V2.99296H8.12231V9.99884L2.19555 12.9705ZM0.0954589 14.1575C0.0954589 14.4979 0.236572 14.7469 0.5354 14.9129L2.19555 15.8841C2.41138 16.0169 2.56079 16.0418 2.85132 15.8757L4.46997 14.9378C4.7688 14.7718 4.82691 14.6307 4.8186 14.3567L4.82691 12.4309C4.82691 12.0989 4.67749 11.8582 4.39526 11.6922L2.7268 10.721C2.51099 10.6048 2.32837 10.5632 2.04614 10.721L0.402588 11.6756C0.120361 11.8333 0.0788574 11.9993 0.0788574 12.2317L0.0954589 14.1575ZM12.7043 14.365C12.6961 14.639 12.7541 14.7801 13.053 14.9461L14.6717 15.8841C14.9622 16.0501 15.1115 16.0252 15.3274 15.8924L16.9876 14.9212C17.2863 14.7552 17.4275 14.5061 17.4275 14.1658L17.4441 12.24C17.4441 12.0076 17.4026 11.8416 17.1203 11.6839L15.4768 10.7293C15.1946 10.5716 15.012 10.6131 14.7962 10.7293L13.1277 11.7005C12.8454 11.8665 12.6961 12.1072 12.6961 12.4393L12.7043 14.365ZM6.66968 4.4124L8.34643 5.37529C8.62867 5.53301 8.90262 5.53301 9.18482 5.37529L10.8615 4.4124C11.094 4.27959 11.1936 4.15507 11.1936 3.81474V1.93877C11.1936 1.60673 11.094 1.49053 10.8782 1.36601L9.2014 0.411422C8.90262 0.245407 8.62034 0.245407 8.32983 0.411422L6.65308 1.36601C6.44555 1.48222 6.32935 1.60673 6.32935 1.93877V3.81474C6.32935 4.15507 6.45386 4.28789 6.66968 4.4124Z" fill="white"/>
</svg>
