<svg width="11" height="12" viewBox="0 0 11 12" fill="none" xmlns="http://www.w3.org/2000/svg">
<path d="M9.48626 11.8881C9.19305 11.8881 8.87109 11.8051 8.56063 11.6337L5.755 10.1353C5.58827 10.0468 5.26056 10.0468 5.09383 10.1353L2.2882 11.6337C1.71903 11.9378 1.13835 11.971 0.695659 11.7167C0.252967 11.4678 0 10.9647 0 10.3399V2.54902C0 1.14457 1.19009 0 2.6504 0H8.19843C9.65874 0 10.8488 1.14457 10.8488 2.54902V10.3399C10.8488 10.9647 10.5959 11.4678 10.1532 11.7167C9.95195 11.8328 9.72198 11.8881 9.48626 11.8881ZM5.42154 9.23951C5.69176 9.23951 5.95622 9.29481 6.16894 9.41092L8.97458 10.9094C9.26779 11.0697 9.538 11.1029 9.71048 11.0034C9.88296 10.9038 9.98069 10.6661 9.98069 10.3399V2.54902C9.98069 1.60351 9.1758 0.8294 8.19268 0.8294H2.6504C1.66728 0.8294 0.862387 1.60351 0.862387 2.54902V10.3399C0.862387 10.6661 0.960124 10.9094 1.1326 11.0034C1.30508 11.0974 1.57529 11.0697 1.86851 10.9094L4.67414 9.41092C4.88686 9.29481 5.15133 9.23951 5.42154 9.23951Z" fill="#20AEFF"/>
</svg>
