<svg width="27" height="29" viewBox="0 0 27 29" fill="none" xmlns="http://www.w3.org/2000/svg">
<path d="M25.6868 9.62404C25.5449 9.70203 22.1674 11.348 22.1674 14.9974C22.3266 19.1593 26.4296 20.6188 26.5 20.6188C26.4296 20.6968 25.8806 22.6071 24.2541 24.6096C22.9633 26.3345 21.5307 28.0736 19.3552 28.0736C17.2858 28.0736 16.5429 26.924 14.1552 26.924C11.5909 26.924 10.8654 28.0736 8.90208 28.0736C6.72657 28.0736 5.18779 26.2413 3.82665 24.5326C2.05832 22.2962 0.555302 18.7865 0.50224 15.4167C0.466482 13.631 0.856367 11.8757 1.84608 10.3847C3.24297 8.30324 5.73686 6.89028 8.46029 6.84369C10.547 6.7819 12.4041 8.10168 13.6776 8.10168C14.898 8.10168 17.1797 6.84369 19.7612 6.84369C20.8755 6.8447 23.8469 7.13945 25.6868 9.62404ZM13.5011 6.48715C13.1297 4.85642 14.1552 3.22568 15.1103 2.18546C16.3307 0.927465 18.2582 0.0736084 19.9204 0.0736084C20.0265 1.70434 19.354 3.30368 18.1521 4.46849C17.0735 5.72648 15.2164 6.67352 13.5011 6.48715Z" fill="white"/>
</svg>
