<svg width="33" height="33" viewBox="0 0 33 33" fill="none" xmlns="http://www.w3.org/2000/svg">
<path d="M30.5014 16.384C30.5014 15.2329 30.4061 14.3929 30.1998 13.5219H16.7871V18.7173H24.6601C24.5014 20.0085 23.6442 21.9529 21.7394 23.2595L21.7127 23.4335L25.9536 26.6531L26.2474 26.6818C28.9458 24.2396 30.5014 20.6462 30.5014 16.384Z" fill="#4285F4"/>
<path d="M16.7863 30.0736C20.6434 30.0736 23.8814 28.8291 26.2466 26.6825L21.7386 23.2601C20.5323 24.0846 18.9132 24.6602 16.7863 24.6602C13.0086 24.6602 9.80225 22.218 8.65929 18.8424L8.49176 18.8563L4.08208 22.2008L4.02441 22.3579C6.37359 26.9313 11.199 30.0736 16.7863 30.0736Z" fill="#34A853"/>
<path d="M8.65964 18.8426C8.35806 17.9715 8.18352 17.0381 8.18352 16.0737C8.18352 15.1092 8.35806 14.1759 8.64377 13.3048L8.63578 13.1192L4.17083 9.72107L4.02475 9.78917C3.05654 11.687 2.50098 13.8181 2.50098 16.0737C2.50098 18.3292 3.05654 20.4603 4.02475 22.3581L8.65964 18.8426Z" fill="#FBBC05"/>
<path d="M16.7864 7.4869C19.4689 7.4869 21.2784 8.62245 22.3102 9.57141L26.3419 5.71361C23.8658 3.45806 20.6435 2.07361 16.7864 2.07361C11.199 2.07361 6.3736 5.21581 4.02441 9.7891L8.64345 13.3047C9.80229 9.92916 13.0086 7.4869 16.7864 7.4869Z" fill="#EB4335"/>
</svg>
