<svg width="107" height="26" viewBox="0 0 107 26" fill="none" xmlns="http://www.w3.org/2000/svg">
<path d="M15.1594 4.20215C16.126 3.13524 16.6668 1.67053 16.5813 0.176758C15.2443 0.176758 13.6941 0.958696 12.7127 2.11109C11.9444 3.064 11.1197 4.55778 11.4184 6.05099C12.7982 6.22196 14.2919 5.35454 15.1594 4.20215Z" fill="#B2B2B2"/>
<path d="M21.1964 8.93597C20.9271 9.09661 18.3855 10.6128 18.3855 13.8462C18.3918 14.0468 18.4123 14.2372 18.4357 14.4247H18.4345C18.8557 17.7912 21.8153 18.9949 21.8689 18.9949C21.8589 19.0077 21.8367 19.0734 21.7996 19.1832C21.6281 19.6913 21.1383 21.1423 20.0628 22.6504C19.025 24.2302 17.8726 25.8232 16.1229 25.8232C15.3206 25.8232 14.7663 25.5784 14.1921 25.3249C13.5753 25.0525 12.9355 24.77 11.9408 24.77C10.8408 24.77 10.1616 25.0695 9.52766 25.3491C8.97296 25.5938 8.45292 25.8232 7.71592 25.8232C5.96625 25.8232 4.72894 24.1447 3.63411 22.5797C2.24178 20.5742 1.06147 17.4515 0.971985 14.4247C0.971165 14.3938 0.968763 14.3626 0.966368 14.3315C0.963771 14.2977 0.961173 14.2638 0.96058 14.2303C0.931513 12.5946 1.24497 10.9869 2.04116 9.62134C3.16448 7.71494 5.17062 6.42064 7.36085 6.37789C8.31894 6.34568 9.21686 6.72574 10.0016 7.05789C10.5916 7.30763 11.1177 7.53028 11.5572 7.53028C11.9571 7.53028 12.4986 7.339 13.1404 7.1123C14.074 6.78256 15.2197 6.37789 16.45 6.37789C17.346 6.37846 19.7362 6.64861 21.2157 8.92432C21.212 8.92667 21.2055 8.93055 21.1964 8.93597Z" fill="#B2B2B2"/>
<path d="M29.9587 19.6494L34.8965 6.38943H37.3747L42.2755 19.6494H39.9083L38.7617 16.5055H33.4171L32.3167 19.6494H29.9587ZM34.0088 14.6376H38.1607L36.3483 9.37616C36.299 9.24054 36.2558 9.12033 36.2188 9.01553C36.188 8.90457 36.151 8.76895 36.1079 8.60867H36.0616C36.0123 8.75662 35.9723 8.88608 35.9414 8.99704C35.9106 9.108 35.8705 9.23437 35.8212 9.37616L34.0088 14.6376Z" fill="white"/>
<path d="M44.7825 18.66H44.7455V24.0046H42.591V10.1806H44.7455V11.5307H44.7825C45.1585 11.0067 45.6147 10.6152 46.151 10.3563C46.6935 10.0912 47.3007 9.95871 47.9727 9.95871C49.2302 9.95871 50.2104 10.3748 50.9132 11.207C51.6159 12.0392 51.9673 13.1982 51.9673 14.6838C51.9673 16.2373 51.5728 17.4918 50.7837 18.4473C50.0008 19.3966 48.9528 19.8713 47.6398 19.8713C47.0295 19.8713 46.4839 19.7696 46.0031 19.5662C45.5284 19.3627 45.1216 19.0607 44.7825 18.66ZM44.7178 14.5081V15.6732C44.7178 16.3698 44.9489 16.9524 45.4113 17.4209C45.8798 17.8894 46.4685 18.1237 47.1774 18.1237C47.9788 18.1237 48.6076 17.8185 49.0638 17.2082C49.5261 16.5979 49.7573 15.775 49.7573 14.7393C49.7573 13.7345 49.5446 12.9793 49.1193 12.4738C48.7001 11.9622 48.1206 11.7064 47.3809 11.7064C46.598 11.7064 45.9569 11.9684 45.4575 12.4923C44.9644 13.0163 44.7178 13.6883 44.7178 14.5081Z" fill="white"/>
<path d="M55.0198 18.66H54.9829V24.0046H52.8284V10.1806H54.9829V11.5307H55.0198C55.3959 11.0067 55.8521 10.6152 56.3884 10.3563C56.9309 10.0912 57.5381 9.95871 58.21 9.95871C59.4676 9.95871 60.4477 10.3748 61.1505 11.207C61.8533 12.0392 62.2046 13.1982 62.2046 14.6838C62.2046 16.2373 61.8101 17.4918 61.021 18.4473C60.2381 19.3966 59.1902 19.8713 57.8771 19.8713C57.2668 19.8713 56.7213 19.7696 56.2404 19.5662C55.7658 19.3627 55.3589 19.0607 55.0198 18.66ZM54.9551 14.5081V15.6732C54.9551 16.3698 55.1863 16.9524 55.6486 17.4209C56.1171 17.8894 56.7059 18.1237 57.4148 18.1237C58.2162 18.1237 58.845 17.8185 59.3011 17.2082C59.7635 16.5979 59.9946 15.775 59.9946 14.7393C59.9946 13.7345 59.782 12.9793 59.3566 12.4738C58.9374 11.9622 58.358 11.7064 57.6182 11.7064C56.8353 11.7064 56.1942 11.9684 55.6949 12.4923C55.2017 13.0163 54.9551 13.6883 54.9551 14.5081Z" fill="white"/>
<path d="M65.9703 17.1435L67.8844 16.1818C68.1618 16.7798 68.5378 17.2267 69.0125 17.5226C69.4933 17.8185 70.0543 17.9665 70.6954 17.9665C71.4598 17.9665 72.0485 17.8 72.4616 17.4671C72.8808 17.1342 73.0904 16.6688 73.0904 16.0709C73.0904 15.4914 72.8838 15.029 72.4708 14.6838C72.0578 14.3386 71.4229 14.0643 70.566 13.8609C69.1728 13.5341 68.1649 13.0718 67.5423 12.4738C66.9196 11.8697 66.6083 11.0591 66.6083 10.0419C66.6083 8.82751 67.0306 7.88126 67.8752 7.20316C68.7259 6.51889 69.7738 6.17676 71.0191 6.17676C71.9561 6.17676 72.7821 6.38327 73.4972 6.79629C74.2123 7.20316 74.7856 7.81036 75.2171 8.61792L73.3585 9.52411C73.0749 9.00012 72.739 8.62408 72.3506 8.396C71.9622 8.16791 71.4907 8.05386 70.9358 8.05386C70.2454 8.05386 69.7091 8.21106 69.3269 8.52545C68.9447 8.83368 68.7536 9.2467 68.7536 9.76452C68.7536 10.2823 68.9293 10.6892 69.2807 10.9851C69.632 11.281 70.2639 11.5338 71.1763 11.7433C72.5818 12.0577 73.6082 12.5417 74.2555 13.1951C74.9089 13.8485 75.2356 14.727 75.2356 15.8304C75.2356 17.0079 74.8442 17.9757 74.0613 18.7339C73.2784 19.4922 72.1626 19.8713 70.7139 19.8713C69.5981 19.8713 68.6241 19.634 67.7919 19.1593C66.9659 18.6846 66.3587 18.0127 65.9703 17.1435Z" fill="white"/>
<path d="M81.1177 19.0113C80.8341 19.2826 80.5043 19.4922 80.1283 19.6401C79.7523 19.7881 79.33 19.8621 78.8615 19.8621C77.9615 19.8621 77.2803 19.637 76.8179 19.187C76.3618 18.7309 76.1337 18.0651 76.1337 17.1897V11.8636H74.5432V10.1806H76.1337V7.85968L78.2789 7.48056V10.1806H80.6924V11.8636H78.2789V17.1157C78.2789 17.4918 78.3529 17.7692 78.5009 17.948C78.655 18.1267 78.8861 18.2161 79.1944 18.2161C79.3547 18.2161 79.5119 18.1853 79.666 18.1237C79.8201 18.062 79.9834 17.9418 80.156 17.763L81.1177 19.0113Z" fill="white"/>
<path d="M85.9272 19.8713C84.4292 19.8713 83.2394 19.4305 82.3579 18.549C81.4764 17.6675 81.0356 16.4808 81.0356 14.989C81.0418 13.4787 81.5103 12.2642 82.4411 11.3457C83.372 10.421 84.5802 9.95871 86.0659 9.95871C87.5577 9.95871 88.7351 10.4118 89.5982 11.318C90.4612 12.2242 90.8927 13.3954 90.8927 14.8318C90.8927 16.2989 90.4365 17.5072 89.5242 18.4565C88.618 19.3997 87.419 19.8713 85.9272 19.8713ZM86.0104 18.1237C86.8611 18.1237 87.5207 17.8339 87.9892 17.2545C88.4577 16.6688 88.692 15.8798 88.692 14.8873C88.692 13.9318 88.4546 13.1643 87.98 12.5848C87.5115 11.9992 86.8549 11.7064 86.0104 11.7064C85.1659 11.7064 84.4908 12.0084 83.9853 12.6125C83.4798 13.2105 83.2271 13.9872 83.2271 14.9427C83.2271 15.9352 83.4768 16.7151 83.9761 17.2822C84.4754 17.8432 85.1535 18.1237 86.0104 18.1237Z" fill="white"/>
<path d="M97.1539 12.1132C96.9813 12.0454 96.8025 11.993 96.6176 11.956C96.4388 11.9129 96.2477 11.8913 96.0443 11.8913C95.4094 11.8913 94.8946 12.1749 94.5001 12.742C94.1056 13.3091 93.9083 14.0489 93.9083 14.9612V19.6494H91.7538V10.1806H93.9083V11.8913H93.9453C94.1672 11.2872 94.4939 10.8248 94.9254 10.5043C95.357 10.1775 95.8563 10.0142 96.4234 10.0142C96.6638 10.0142 96.8858 10.0327 97.0892 10.0697C97.2926 10.1067 97.5115 10.1775 97.7457 10.2823L97.1539 12.1132Z" fill="white"/>
<path d="M106.041 15.4421H99.5037C99.5222 16.3544 99.7688 17.0418 100.243 17.5041C100.724 17.9603 101.313 18.1884 102.01 18.1884C102.503 18.1884 102.94 18.0743 103.323 17.8462C103.705 17.612 104.029 17.2668 104.294 16.8106L105.949 17.7075C105.517 18.398 104.966 18.9312 104.294 19.3072C103.628 19.6833 102.842 19.8713 101.936 19.8713C100.542 19.8713 99.4267 19.4521 98.5883 18.6137C97.7499 17.7754 97.3307 16.5702 97.3307 14.9982C97.3307 13.5002 97.7592 12.2858 98.616 11.355C99.4791 10.4241 100.558 9.95871 101.852 9.95871C103.184 9.95871 104.213 10.3563 104.941 11.1515C105.674 11.9468 106.041 13.0995 106.041 14.6099V15.4421ZM103.961 13.9071C103.961 13.1674 103.776 12.5941 103.406 12.1872C103.036 11.7803 102.531 11.5769 101.889 11.5769C101.217 11.5769 100.672 11.8019 100.253 12.2519C99.8335 12.6958 99.5808 13.2475 99.4945 13.9071H103.961Z" fill="white"/>
</svg>
