<svg width="113" height="24" viewBox="0 0 113 24" fill="none" xmlns="http://www.w3.org/2000/svg">
<path d="M4.48997 1.08458L17.0671 8.31617L14.3713 11.012L4.48997 1.08458ZM1.88426 0.5L13.4293 12L1.88522 23.5C1.29776 23.2403 0.895264 22.6624 0.895264 21.9906C0.895264 21.9686 0.895264 21.9465 0.896222 21.9255V21.9283V2.07263C0.895264 2.05442 0.895264 2.03237 0.895264 2.01033C0.895264 1.33854 1.29776 0.760667 1.87468 0.504792L1.88522 0.500958L1.88426 0.5ZM20.9762 10.6526C21.3729 10.9468 21.6269 11.4145 21.6269 11.9406C21.6269 11.9617 21.6269 11.9818 21.6259 12.0029V12C21.6298 12.0412 21.6326 12.0901 21.6326 12.139C21.6326 12.6335 21.3931 13.0724 21.0231 13.3445L21.0193 13.3474L18.3235 14.874L15.4044 12L18.3245 9.07996L20.9762 10.6526ZM4.48997 22.9154L14.3723 12.988L17.0681 15.6838L4.48997 22.9154Z" fill="#B2B2B2"/>
<path d="M40.482 15.0826C39.8948 15.5172 39.2145 15.87 38.441 16.1409C37.6675 16.4062 36.8629 16.5389 36.0273 16.5389C34.1586 16.5389 32.6765 15.9885 31.5812 14.8878C30.4859 13.7872 29.9382 12.3055 29.9382 10.4428C29.9382 8.52928 30.4859 6.97703 31.5812 5.78604C32.6765 4.58939 34.0993 3.99107 35.8495 3.99107C36.99 3.99107 37.9498 4.21686 38.7289 4.66842C39.5081 5.11434 40.0981 5.72395 40.4989 6.49725L38.8136 7.31006C38.5144 6.78512 38.122 6.39565 37.6364 6.14164C37.1509 5.88764 36.5891 5.76064 35.9511 5.76064C34.805 5.76064 33.8706 6.16986 33.1479 6.98832C32.4309 7.80678 32.0724 8.90746 32.0724 10.2904C32.0724 11.7072 32.4309 12.8078 33.1479 13.5924C33.8706 14.377 34.8219 14.7693 36.0019 14.7693C36.4593 14.7693 36.9025 14.7129 37.3316 14.6C37.7606 14.4814 38.1389 14.3093 38.4664 14.0835V11.5689H35.7733V9.83317H40.482V15.0826Z" fill="white"/>
<path d="M45.6405 16.5389C44.2686 16.5389 43.1789 16.1353 42.3715 15.3281C41.5642 14.521 41.1605 13.4344 41.1605 12.0684C41.1661 10.6855 41.5952 9.57352 42.4478 8.73248C43.3003 7.8858 44.4069 7.46246 45.7676 7.46246C47.1339 7.46246 48.2122 7.87734 49.0027 8.70708C49.7931 9.53683 50.1883 10.6093 50.1883 11.9245C50.1883 13.2679 49.7705 14.3742 48.9349 15.2435C48.105 16.1071 47.0068 16.5389 45.6405 16.5389ZM45.7168 14.9386C46.4959 14.9386 47.1 14.6734 47.5291 14.1428C47.9582 13.6065 48.1727 12.884 48.1727 11.9753C48.1727 11.1004 47.9554 10.3976 47.5206 9.86703C47.0915 9.3308 46.4902 9.06269 45.7168 9.06269C44.9433 9.06269 44.325 9.33927 43.8621 9.89243C43.3991 10.44 43.1676 11.1512 43.1676 12.0261C43.1676 12.9348 43.3963 13.6489 43.8536 14.1682C44.3109 14.6818 44.932 14.9386 45.7168 14.9386Z" fill="white"/>
<path d="M54.898 16.5389C53.5261 16.5389 52.4364 16.1353 51.629 15.3281C50.8217 14.521 50.418 13.4344 50.418 12.0684C50.4236 10.6855 50.8527 9.57352 51.7053 8.73248C52.5578 7.8858 53.6644 7.46246 55.0251 7.46246C56.3914 7.46246 57.4697 7.87734 58.2602 8.70708C59.0506 9.53683 59.4458 10.6093 59.4458 11.9245C59.4458 13.2679 59.028 14.3742 58.1924 15.2435C57.3625 16.1071 56.2643 16.5389 54.898 16.5389ZM54.9742 14.9386C55.7534 14.9386 56.3575 14.6734 56.7866 14.1428C57.2157 13.6065 57.4302 12.884 57.4302 11.9753C57.4302 11.1004 57.2128 10.3976 56.7781 9.86703C56.349 9.3308 55.7477 9.06269 54.9742 9.06269C54.2008 9.06269 53.5825 9.33927 53.1196 9.89243C52.6566 10.44 52.4251 11.1512 52.4251 12.0261C52.4251 12.9348 52.6538 13.6489 53.1111 14.1682C53.5684 14.6818 54.1895 14.9386 54.9742 14.9386Z" fill="white"/>
<path d="M68.2714 15.8361C68.2714 17.2981 67.8733 18.427 67.0773 19.2228C66.2868 20.0187 65.1887 20.4167 63.7829 20.4167C62.8852 20.4167 62.1032 20.2558 61.437 19.9341C60.7708 19.618 60.2118 19.1636 59.7602 18.5709L61.1914 17.5041C61.5189 17.9613 61.8887 18.3028 62.3008 18.5286C62.7186 18.7544 63.2211 18.8672 63.8083 18.8672C64.5931 18.8672 65.2028 18.6415 65.6376 18.1899C66.0779 17.7383 66.2981 17.0666 66.2981 16.1748V15.1757H66.2643C65.9481 15.6216 65.5613 15.9603 65.104 16.1917C64.6524 16.4232 64.0906 16.5389 63.4187 16.5389C62.2895 16.5389 61.3834 16.1607 60.7002 15.4043C60.0171 14.6423 59.6755 13.5811 59.6755 12.2208C59.6755 10.7306 60.065 9.56505 60.8442 8.72402C61.629 7.88298 62.6114 7.46246 63.7914 7.46246C64.3051 7.46246 64.7794 7.55842 65.2141 7.75033C65.6489 7.94225 65.9989 8.21883 66.2643 8.58008H66.2981V7.66567H68.2714V15.8361ZM66.3151 12.3055V11.2979C66.3151 10.677 66.1062 10.1493 65.6884 9.71463C65.2706 9.28 64.7314 9.06269 64.0708 9.06269C63.3369 9.06269 62.7553 9.32798 62.3262 9.85857C61.8971 10.3892 61.6826 11.1455 61.6826 12.1277C61.6826 13.0026 61.8802 13.6912 62.2754 14.1936C62.6763 14.6903 63.2296 14.9386 63.9353 14.9386C64.6411 14.9386 65.2141 14.6959 65.6545 14.2105C66.0949 13.7251 66.3151 13.0901 66.3151 12.3055Z" fill="white"/>
<path d="M69.6105 16.3357V3.5H71.5837V16.3357H69.6105Z" fill="white"/>
<path d="M80.3585 12.4833H74.371C74.3879 13.3187 74.6138 13.948 75.0485 14.3714C75.4889 14.7891 76.0281 14.9979 76.6661 14.9979C77.1177 14.9979 77.5186 14.8935 77.8686 14.6846C78.2187 14.4701 78.5151 14.1541 78.7579 13.7364L80.2738 14.5576C79.8786 15.1898 79.3733 15.6781 78.7579 16.0224C78.1481 16.3667 77.4283 16.5389 76.5983 16.5389C75.3223 16.5389 74.3004 16.155 73.5326 15.3874C72.7647 14.6197 72.3808 13.5162 72.3808 12.0769C72.3808 10.7052 72.7732 9.59327 73.558 8.74095C74.3484 7.88862 75.3364 7.46246 76.5221 7.46246C77.7416 7.46246 78.6845 7.82653 79.3507 8.55468C80.0226 9.28282 80.3585 10.3384 80.3585 11.7213V12.4833ZM78.453 11.0778C78.453 10.4004 78.2836 9.8755 77.9449 9.50296C77.6061 9.13042 77.1431 8.94415 76.556 8.94415C75.9406 8.94415 75.4409 9.15018 75.057 9.56223C74.6731 9.96863 74.4416 10.4738 74.3625 11.0778H78.453Z" fill="white"/>
<path d="M86.3734 12.1107V16.3357H84.3578V4.19428H88.1011C89.4956 4.19428 90.5655 4.52166 91.3108 5.17643C92.0617 5.82555 92.4371 6.76254 92.4371 7.9874C92.4371 9.23485 92.0193 10.2339 91.1837 10.9847C90.3481 11.7354 89.2218 12.1107 87.8047 12.1107H86.3734ZM86.3734 5.8453V10.4512H87.7115C88.5527 10.4512 89.1964 10.2452 89.6424 9.83317C90.0941 9.41547 90.3199 8.82844 90.3199 8.07207C90.3199 7.34393 90.1082 6.79076 89.6847 6.41258C89.2669 6.0344 88.6459 5.8453 87.8216 5.8453H86.3734Z" fill="white"/>
<path d="M93.0733 16.3357V3.5H95.0466V16.3357H93.0733Z" fill="white"/>
<path d="M103.025 16.3357H101.12V15.2604H101.086C100.781 15.6781 100.408 15.997 99.968 16.2171C99.5276 16.4316 99.0364 16.5389 98.4944 16.5389C97.6927 16.5389 97.0349 16.3103 96.5212 15.8531C96.013 15.3959 95.759 14.7975 95.759 14.0581C95.759 13.2622 96.013 12.6244 96.5212 12.1446C97.0349 11.6592 97.7689 11.3628 98.7231 11.2556L101.128 10.9847V10.5698C101.128 10.0335 100.979 9.63279 100.679 9.36749C100.38 9.09655 99.9877 8.96109 99.5022 8.96109C99.0223 8.96109 98.6186 9.06833 98.2912 9.28282C97.9637 9.49732 97.6927 9.80494 97.4781 10.2057L96.0046 9.45216C96.2981 8.87077 96.7611 8.39381 97.3934 8.02127C98.0258 7.64873 98.7767 7.46246 99.6462 7.46246C100.741 7.46246 101.577 7.75033 102.153 8.32608C102.734 8.89617 103.025 9.72592 103.025 10.8153V16.3357ZM101.128 12.8135V12.3393L99.0364 12.5679C98.5565 12.6187 98.2065 12.7514 97.9863 12.9659C97.7661 13.1804 97.656 13.4682 97.656 13.8295C97.656 14.1964 97.7802 14.4956 98.0286 14.727C98.2827 14.9528 98.6101 15.0656 99.011 15.0656C99.6433 15.0656 100.154 14.854 100.544 14.4306C100.933 14.0017 101.128 13.4626 101.128 12.8135Z" fill="white"/>
<path d="M112.105 7.66567L108.074 18.0629C107.774 18.8362 107.371 19.4204 106.863 19.8155C106.36 20.2163 105.748 20.4167 105.025 20.4167C104.675 20.4167 104.345 20.3772 104.034 20.2981C103.729 20.2248 103.438 20.1062 103.162 19.9425L104.017 18.554C104.192 18.6556 104.35 18.7261 104.491 18.7656C104.633 18.8108 104.779 18.8334 104.932 18.8334C105.197 18.8334 105.423 18.7656 105.609 18.6302C105.801 18.5003 105.973 18.2605 106.126 17.9105L106.761 16.4373L103.357 7.66567H105.508L107.498 13.4146C107.56 13.5896 107.608 13.7448 107.642 13.8803C107.676 14.0158 107.715 14.1823 107.76 14.3798H107.803C107.842 14.1823 107.882 14.0186 107.921 13.8888C107.966 13.7589 108.017 13.6065 108.074 13.4316L110.081 7.66567H112.105Z" fill="white"/>
</svg>
