<svg width="220" height="35" viewBox="0 0 220 35" fill="none" xmlns="http://www.w3.org/2000/svg">
<path d="M66.1748 21.8213H71.3562C71.4552 22.5674 71.866 23.1756 72.5885 23.6458C73.3209 24.116 74.1969 24.3511 75.2163 24.3511C76.2655 24.3511 77.1117 24.1364 77.7551 23.7071C78.3984 23.2676 78.7201 22.7105 78.7201 22.0359C78.7201 21.4227 78.4677 20.9474 77.9629 20.6101C77.468 20.2625 76.6069 19.9559 75.3796 19.6901L72.5736 19.1228C70.604 18.7344 69.1144 18.0036 68.1048 16.9304C67.0953 15.8469 66.5905 14.4619 66.5905 12.7754C66.5905 10.6493 67.3823 8.94238 68.9659 7.65449C70.5595 6.3666 72.6083 5.72266 75.1124 5.72266C77.765 5.72266 79.8484 6.34105 81.3628 7.57783C82.887 8.80439 83.664 10.4654 83.6937 12.5607H78.6755C78.6261 11.7635 78.2796 11.1349 77.6363 10.6749C76.9929 10.2149 76.1714 9.98496 75.1718 9.98496C74.2216 9.98496 73.4545 10.1894 72.8706 10.5982C72.2965 11.0071 72.0095 11.5488 72.0095 12.2234C72.0095 12.8163 72.2569 13.2967 72.7518 13.6646C73.2566 14.0224 74.0731 14.3188 75.2015 14.5539L77.9778 15.0905C80.086 15.5096 81.6349 16.2302 82.6247 17.2523C83.6145 18.2745 84.1094 19.6595 84.1094 21.4073C84.1094 23.6049 83.2928 25.3579 81.6597 26.6662C80.0266 27.9643 77.8293 28.6134 75.0678 28.6134C72.3262 28.6134 70.1636 28.0154 68.5799 26.8195C67.0062 25.6236 66.2045 23.9575 66.1748 21.8213Z" fill="white"/>
<path d="M86.5109 6.10596H95.79C98.0961 6.10596 99.9569 6.82145 101.372 8.25244C102.798 9.67321 103.51 11.5693 103.51 13.9406C103.51 16.2915 102.768 18.1825 101.283 19.6135C99.7985 21.0342 97.8586 21.7446 95.4634 21.7446H91.9596V28.2301H86.5109V6.10596ZM91.9596 10.4143V17.513H94.3202C95.4881 17.513 96.3937 17.2063 97.0371 16.5931C97.6804 15.9798 98.0021 15.1007 98.0021 13.956C98.0021 12.8112 97.6804 11.9372 97.0371 11.3342C96.4036 10.7209 95.5079 10.4143 94.3499 10.4143H91.9596Z" fill="white"/>
<path d="M117.67 28.2301L116.319 23.3698H109.312L107.946 28.2301H102.393L109.594 6.10596H116.26L123.46 28.2301H117.67ZM112.756 10.7976L110.366 19.3222H115.25L112.875 10.7976H112.756Z" fill="white"/>
<path d="M132.929 28.2301H127.495V10.6442H121.586V6.10596H138.838V10.6442H132.929V28.2301Z" fill="white"/>
<path d="M146.435 28.2301H140.987V6.10596H146.435V28.2301Z" fill="white"/>
<path d="M163.624 28.2301L162.273 23.3698H155.266L153.9 28.2301H148.347L155.548 6.10596H162.214L169.414 28.2301H163.624ZM158.71 10.7976L156.32 19.3222H161.204L158.829 10.7976H158.71Z" fill="white"/>
<path d="M185.638 23.6918V28.2301H171.326V6.10596H176.775V23.6918H185.638Z" fill="white"/>
<path d="M202.292 23.6918V28.2301H187.98V6.10596H193.429V23.6918H202.292Z" fill="white"/>
<path d="M212.622 28.2301H207.173V20.6254L199.794 6.10596H205.644L209.905 15.3052H210.009L214.255 6.10596H220L212.622 20.6254V28.2301Z" fill="white"/>
<path d="M35.3814 0C35.542 0 35.6222 0.0432234 35.6222 0.12967C36.8819 0.0432234 37.8081 0 38.4009 0H47.1814C50.3676 0 52.504 0.290214 53.5908 0.870642C54.3441 1.09293 54.8072 1.3461 54.9801 1.63014C54.8937 1.77833 54.8505 1.94505 54.8505 2.13029C56.1595 2.76012 57.2895 4.14327 58.2404 6.27974C58.8332 8.05807 59.1296 9.39799 59.1296 10.2995C59.1296 10.6082 59.0061 11.6147 58.7591 13.319C59.2531 13.319 59.5 13.4054 59.5 13.5783C58.5491 16.1841 57.0425 18.1106 54.9801 19.3579L53.0906 20.0989V20.2285C53.2882 20.4138 53.7513 21.0868 54.48 22.2477C54.2083 22.4082 53.9983 22.4885 53.8501 22.4885L53.9798 22.7478V22.8775C52.4608 22.9516 51.4543 22.9886 50.9604 22.9886V23.1183C50.985 23.2912 51.0715 23.3777 51.2197 23.3777H54.3503L55.4803 24.7485C56.3077 24.7485 56.8511 25.1683 57.1104 26.0081V26.1378C56.6905 26.1378 56.4806 26.2242 56.4806 26.3971C59.0863 30.139 60.3892 32.0656 60.3892 32.1767C60.0558 32.2384 59.8891 32.3187 59.8891 32.4175C60.4695 33.2943 60.7597 33.8007 60.7597 33.9365L60.5189 34.0477H54.2206C53.5167 34.0477 52.3867 34.0106 50.8307 33.9365C50.1638 32.9856 49.8304 32.4793 49.8304 32.4175C49.9662 32.3311 50.1762 32.2878 50.4602 32.2878V32.1767C48.0273 28.4842 46.8109 26.4712 46.8109 26.1378H47.3111V25.8784C47.0517 25.051 46.5516 24.6373 45.8106 24.6373C45.1561 23.7975 44.6497 23.3777 44.2916 23.3777H42.0316V24.0075C42.0316 24.0816 41.9946 24.1186 41.9205 24.1186L42.0316 24.378V30.1576H43.421C43.5939 30.1823 43.6803 30.2687 43.6803 30.4169C43.6803 30.5774 43.5939 30.6577 43.421 30.6577H42.0316C42.0316 31.0776 41.9946 31.2875 41.9205 31.2875L42.0316 31.5469V33.0473C42.0316 33.2326 41.9946 33.3993 41.9205 33.5475C41.9946 33.708 42.0316 33.8377 42.0316 33.9365L41.7908 34.0477H36.6411C35.8013 34.0477 34.5416 34.0106 32.8621 33.9365V30.917C32.8868 30.7442 32.9733 30.6577 33.1215 30.6577H34.4923V30.2872H33.1215C32.9486 30.2872 32.8621 30.2008 32.8621 30.0279V23.5073L32.2323 23.3777H29.7315C29.5586 23.3777 29.4722 23.2912 29.4722 23.1183L29.7315 22.9886C31.8186 22.9516 32.8621 22.8713 32.8621 22.7478C32.8621 22.4885 32.9486 22.3588 33.1215 22.3588C33.282 22.4453 33.4055 22.4885 33.4919 22.4885L33.6216 22.2477V13.6895C33.6463 13.5289 33.7266 13.4486 33.8624 13.4486H34.4923L34.6219 12.6891C34.4614 12.6027 34.3379 12.5595 34.2514 12.5595C33.5105 12.6459 33.0906 12.6891 32.9918 12.6891C32.9918 12.0223 32.6583 11.6888 31.9915 11.6888V11.059L32.8621 10.5588V2.13029L33.6216 1.63014V0.370486C33.6463 0.209942 33.7266 0.12967 33.8624 0.12967H34.7516C35.0356 0.12967 35.2456 0.0864467 35.3814 0ZM42.0316 6.66875C42.0316 6.74284 41.9946 6.77989 41.9205 6.77989C41.9946 7.61966 42.0316 8.24949 42.0316 8.66937V9.42887C42.0316 9.51531 41.9946 9.55854 41.9205 9.55854L42.0316 9.79935V9.92902C42.0316 10.6823 41.6982 11.059 41.0313 11.059V11.8185C41.6982 11.8679 42.0316 11.9914 42.0316 12.189H41.9205C41.9946 12.3495 42.0316 12.473 42.0316 12.5595H45.0511V12.8188H43.9211L43.421 13.4486H42.7911V14.7083H46.6812C48.3731 14.7083 49.5093 14.2884 50.0897 13.4486C50.9171 13.4486 51.3308 13.1522 51.3308 12.5595H50.2009L49.96 12.4483C50.1206 11.8679 50.2009 11.3616 50.2009 10.9293V9.92902C50.2009 9.05221 49.4475 8.08894 47.9409 7.03923C47.7556 6.86634 46.9221 6.74284 45.4401 6.66875L45.1808 6.77989L44.9214 6.66875C44.8473 6.66875 44.8103 6.70579 44.8103 6.77989C44.5139 6.70579 44.341 6.66875 44.2916 6.66875C43.563 6.74284 43.1493 6.77989 43.0505 6.77989C42.5812 6.70579 42.2416 6.66875 42.0316 6.66875ZM34.8813 12.6891V12.8188H35.1221V12.6891H34.8813ZM35.5111 12.6891V12.8188H35.7519V12.6891H35.5111ZM59.2592 12.5595H59.6297V12.8188H59.2592V12.5595ZM60.1299 12.5595H60.5189V12.8188H60.1299V12.5595ZM60.7597 12.5595H61.8897V12.8188H60.7597V12.5595ZM42.4206 22.4885L42.1613 22.3588C42.1613 22.5317 42.081 22.6182 41.9205 22.6182C41.9946 22.7787 42.0316 22.9022 42.0316 22.9886C42.8714 22.9146 43.5012 22.8775 43.9211 22.8775H44.0508L44.2916 22.9886L44.8103 22.118C44.4768 21.3647 44.2669 20.988 44.1805 20.988H43.0505C42.8776 20.988 42.7479 21.4882 42.6615 22.4885H42.4206ZM38.6417 22.9886V23.1183C38.6664 23.2912 38.7528 23.3777 38.901 23.3777H41.161C41.3215 23.3777 41.4018 23.2912 41.4018 23.1183V22.9886H38.6417ZM48.7004 32.4175H48.9412C48.9412 32.5534 49.0276 32.7201 49.2005 32.9177V33.177C49.0894 33.1647 48.9227 32.9547 48.7004 32.5472V32.4175ZM49.571 33.6772H49.7007V33.9365H49.571V33.6772Z" fill="white"/>
<path d="M16.8201 0.0187988H24.2113C24.3594 0.0434979 25.0325 1.79713 26.2304 5.2797L26.6009 5.52051H27.8605C28.0828 5.69341 29.0831 8.37326 30.8615 13.5601L31.7506 16.0608L31.4913 16.1905H28.6015V16.3202C28.6015 16.7648 28.8547 17.0118 29.361 17.0611L30.1205 16.95H30.2316C30.5898 17.1352 31.763 20.3091 33.7513 26.4715L33.4919 26.6012C33.2079 26.5147 33.0412 26.4715 32.9918 26.4715C32.9177 26.4715 32.8806 26.5147 32.8806 26.6012L31.9915 26.4715H31.3616C31.2011 26.4962 31.1208 26.5826 31.1208 26.7308C31.5654 28.0646 31.8556 28.7315 31.9915 28.7315H34.5108C34.6713 28.7562 34.7516 28.8426 34.7516 28.9908V29.1019C34.7516 29.2748 34.6713 29.3613 34.5108 29.3613H31.7506C31.553 29.3613 31.3863 29.3181 31.2505 29.2316C31.1023 29.3181 30.9294 29.3613 30.7318 29.3613H28.1014L27.2307 29.2316L27.101 29.491C27.1257 29.6515 27.2122 29.7318 27.3604 29.7318H34.8812C35.1282 29.7318 35.6716 31.1149 36.5114 33.8812V34.0109H27.101C26.9652 34.0109 26.465 32.5845 25.6006 29.7318H18.9504C18.7651 29.7318 18.5984 29.6947 18.4502 29.6206C18.302 29.6947 18.1353 29.7318 17.95 29.7318C17.7771 29.7318 17.6907 29.6515 17.6907 29.491C17.7771 29.491 17.8204 29.4477 17.8204 29.3613C19.3641 29.2748 20.494 29.2316 21.2103 29.2316H25.2301C25.3906 29.2316 25.4709 29.1513 25.4709 28.9908L25.1004 28.7315H22.5811C22.4823 28.7315 22.2353 28.3548 21.8401 27.6015H20.8398V27.7311C20.8398 27.8052 20.8769 28.1387 20.951 28.7315H19.821C19.7345 28.7315 19.4443 28.3548 18.9504 27.6015H11.6703C11.1887 27.6015 10.8985 27.9349 10.7997 28.6018L11.0405 28.7315H13.1708C13.3437 28.7562 13.4301 28.8426 13.4301 28.9908V29.1019L11.8 34.0109H2.25996V33.8812L4.01977 28.8611L0.25934 28.7315C0.0864467 28.7315 0 28.6512 0 28.4906C0.419884 27.1445 0.716273 26.4715 0.889166 26.4715H4.27911C4.88424 26.4715 5.29795 25.7614 5.52024 24.3412C5.66843 24.3288 6.08832 23.2853 6.77989 21.2106L8.16921 17.1908V17.0611H6.90956C6.73667 16.2831 6.70579 16.0114 6.81694 16.2461C6.70579 16.1226 7.82343 16.0608 10.1698 16.0608C10.2933 16.0361 10.9602 14.3257 12.1705 10.9296L13.9303 5.77985V5.65018H13.3004V5.52051C13.9303 3.38405 14.6033 1.58719 15.3196 0.129945L16.8201 0.0187988ZM20.8398 10.9296C19.9383 14.4369 19.3085 16.1905 18.9504 16.1905H16.0606C15.9 16.1905 15.7765 16.4437 15.6901 16.95H16.4496C16.9436 16.9994 17.1905 17.1229 17.1905 17.3205C16.3508 19.9015 15.9309 21.2415 15.9309 21.3403L16.5607 21.4514L17.4499 21.3403C17.6104 21.4144 17.7339 21.4514 17.8204 21.4514L18.5799 21.3403C18.654 21.3403 18.691 21.3773 18.691 21.4514L19.3208 21.3403H21.4511C21.5376 21.3403 21.5808 21.3773 21.5808 21.4514C22.4206 21.3773 22.8405 21.2538 22.8405 21.0809V20.9513C22.5317 20.3955 22.1551 19.3088 21.7105 17.691C21.7105 17.2587 21.3338 17.0118 20.5805 16.95C20.5805 16.7401 20.494 16.5301 20.3211 16.3202C20.3582 16.1473 20.4446 16.0608 20.5805 16.0608H22.7108C22.2909 14.5295 21.7475 12.8191 21.0806 10.9296H20.8398Z" fill="white"/>
</svg>
