<svg width="66" height="61" viewBox="0 0 66 61" fill="none" xmlns="http://www.w3.org/2000/svg">
<path d="M64.8862 55.0909C62.916 58.6824 58.3907 59.9354 54.8609 57.8988C54.0435 57.4276 53.3536 56.8221 52.7999 56.1258L52.7964 56.1223L46.4599 48.6094C44.8565 46.7107 43.0768 44.9725 41.1486 43.4194C39.8579 42.381 38.0519 42.21 36.6302 43.0633C36.5708 43.1 36.5097 43.1349 36.4486 43.1698C34.8505 44.0668 34.1291 45.9812 34.6758 47.7299C34.7788 48.0614 34.8906 48.3895 35.0094 48.7159L37.0756 54.4277C37.2799 54.9495 37.3917 55.5167 37.3882 56.1083C37.3725 58.5253 35.4111 60.5183 32.9939 60.5724C30.4613 60.63 28.3916 58.5951 28.3916 56.0786C28.3916 55.4958 28.5034 54.9391 28.7043 54.4295L30.7705 48.7159C30.8892 48.3895 30.9993 48.0597 31.1041 47.7299C31.6507 45.9812 30.9294 44.0668 29.3313 43.1698C29.2702 43.1349 29.209 43.1 29.1497 43.0633C27.728 42.21 25.922 42.381 24.6313 43.4211C22.7013 44.9743 20.9233 46.7124 19.32 48.6112L12.9834 56.124L12.9799 56.1275C12.4175 56.8343 11.7137 57.4486 10.8788 57.9233C7.47651 59.8586 3.09437 58.7243 1.06137 55.3823C-1.06595 51.8816 0.111234 47.339 3.6393 45.3024C4.45669 44.8312 5.32823 44.5363 6.20675 44.4054H6.21025L15.8897 42.6759C18.3733 42.2327 20.8028 41.5486 23.1432 40.6376C24.6592 40.0477 25.6391 38.5679 25.6129 36.9414C25.6129 36.903 25.6129 36.8646 25.6129 36.8262V36.7965C25.6198 34.9432 24.3606 33.3272 22.5494 32.9206C22.2105 32.8438 21.8682 32.7757 21.5259 32.7146L15.5422 31.6466H15.5404C14.9867 31.5646 14.4418 31.3761 13.9283 31.0777C11.8412 29.8543 11.0936 27.1616 12.2569 25.0412C13.4742 22.8214 16.2722 22.0466 18.4537 23.3048C18.9602 23.5963 19.3863 23.9715 19.7287 24.4008L23.6462 29.0463C23.8698 29.3116 24.1003 29.5734 24.3361 29.8282C25.5867 31.1859 27.6144 31.4895 29.2073 30.5542C29.2475 30.5315 29.2859 30.5088 29.3261 30.4861C30.753 29.6833 31.5704 28.1022 31.3224 26.4845C30.9416 24.0029 30.3199 21.5597 29.4623 19.1898L26.1194 9.94923V9.94574C25.7875 9.10632 25.6059 8.19012 25.6129 7.23029C25.6338 3.31419 28.8056 0.0891601 32.7196 0.00190282C36.8171 -0.0905898 40.1653 3.20075 40.1653 7.27218C40.1653 8.21455 39.9854 9.11505 39.6588 9.94225V9.94574L36.3158 19.1863C35.46 21.5562 34.8382 23.9994 34.4575 26.481C34.2095 28.0987 35.0269 29.6798 36.4538 30.4826C36.494 30.5053 36.5341 30.528 36.5743 30.5507C38.1654 31.4861 40.1932 31.1824 41.4437 29.8247C41.6795 29.5699 41.9083 29.3081 42.1336 29.0429L46.0512 24.399H46.0529C46.4005 23.961 46.8354 23.5806 47.3524 23.2874C49.4553 22.0919 52.1624 22.7917 53.42 24.858C54.7351 27.022 54.0068 29.8299 51.8253 31.0882C51.3206 31.3796 50.7826 31.5611 50.2395 31.6431H50.236L44.254 32.7112C43.9099 32.7722 43.5693 32.842 43.2305 32.9171C41.4193 33.3237 40.16 34.938 40.167 36.793V36.8227C40.167 36.8611 40.167 36.8995 40.167 36.9379C40.1408 38.5626 41.1224 40.0425 42.6367 40.6341C44.9788 41.5468 47.4083 42.2309 49.8919 42.6724L59.5714 44.4001H59.5749C60.4674 44.5345 61.3529 44.8364 62.1807 45.3216C65.5586 47.2988 66.7672 51.6564 64.8862 55.0874" fill="#00BDFF"/>
</svg>
