<svg width="22" height="20" viewBox="0 0 22 20" fill="none" xmlns="http://www.w3.org/2000/svg">
<g clip-path="url(#clip0_1544_6841)">
<path d="M3.0625 15.6592L3.85352 17.0068L10.8164 13.5107L17.7793 17.0068L18.5703 15.6592L11.6075 12.1631V3.92089H10.0352V12.1631L3.0625 15.6592ZM0.591797 17.0557C0.591797 17.4561 0.757813 17.749 1.10937 17.9443L3.0625 19.0869C3.31641 19.2432 3.49219 19.2725 3.83399 19.0771L5.73829 17.9736C6.08985 17.7783 6.15821 17.6123 6.14844 17.29L6.15821 15.0244C6.15821 14.6338 5.98243 14.3506 5.65039 14.1553L3.6875 13.0127C3.4336 12.876 3.21875 12.8271 2.88672 13.0127L0.953125 14.1357C0.621094 14.3213 0.572266 14.5166 0.572266 14.79L0.591797 17.0557ZM15.4258 17.2998C15.4161 17.6221 15.4844 17.7881 15.836 17.9834L17.7403 19.0869C18.0821 19.2822 18.2578 19.2529 18.5118 19.0967L20.4649 17.9541C20.8164 17.7588 20.9825 17.4658 20.9825 17.0654L21.002 14.7998C21.002 14.5264 20.9532 14.3311 20.6211 14.1455L18.6875 13.0225C18.3555 12.8369 18.1407 12.8857 17.8868 13.0225L15.9239 14.165C15.5918 14.3603 15.4161 14.6435 15.4161 15.0342L15.4258 17.2998ZM8.32618 5.59082L10.2988 6.72363C10.6309 6.90918 10.9532 6.90918 11.2852 6.72363L13.2578 5.59082C13.5313 5.43457 13.6485 5.28808 13.6485 4.88769V2.68066C13.6485 2.29003 13.5313 2.15332 13.2774 2.00683L11.3047 0.883789C10.9532 0.688477 10.6211 0.688477 10.2793 0.883789L8.30665 2.00683C8.0625 2.14355 7.92579 2.29003 7.92579 2.68066V4.88769C7.92579 5.28808 8.07227 5.44433 8.32618 5.59082Z" fill="white"/>
</g>
<defs>
<clipPath id="clip0_1544_6841">
<rect width="20.791" height="18.5254" fill="white" transform="translate(0.572266 0.737305)"/>
</clipPath>
</defs>
</svg>
