<svg width="15" height="18" viewBox="0 0 15 18" fill="none" xmlns="http://www.w3.org/2000/svg">
<path d="M1.2002 17.25H14.0002" stroke="white" stroke-width="1.5" stroke-linecap="round"/>
<path d="M9.11064 2.58034L9.70384 1.98714C10.6867 1.00429 12.2802 1.00429 13.2631 1.98714C14.2459 2.96999 14.2459 4.5635 13.2631 5.54636L12.6699 6.13956M9.11064 2.58034C9.11064 2.58034 9.18479 3.8409 10.297 4.95315C11.4093 6.06541 12.6699 6.13956 12.6699 6.13956M9.11064 2.58034L3.65704 8.03393C3.28766 8.40332 3.10297 8.58801 2.94413 8.79165C2.75676 9.03188 2.59612 9.2918 2.46505 9.56682C2.35394 9.79995 2.27135 10.0477 2.10615 10.5433L1.40615 12.6433M12.6699 6.13956L7.21626 11.5932C6.84688 11.9625 6.66218 12.1472 6.45854 12.3061C6.21832 12.4934 5.9584 12.6541 5.68338 12.7851C5.45024 12.8962 5.20245 12.9788 4.70687 13.144L2.60686 13.844M2.60686 13.844L2.09353 14.0152C1.84965 14.0964 1.58078 14.033 1.399 13.8512C1.21722 13.6694 1.15375 13.4005 1.23504 13.1567L1.40615 12.6433M2.60686 13.844L1.40615 12.6433" stroke="white" stroke-width="1.5"/>
</svg>
