<svg width="18" height="16" viewBox="0 0 18 16" fill="none" xmlns="http://www.w3.org/2000/svg">
<path d="M6.56939 13.6145L7.0337 13.0255L6.56939 13.6145ZM9 2.88635L8.45963 3.40645C8.60102 3.55334 8.79612 3.63635 9 3.63635C9.20388 3.63635 9.39898 3.55334 9.54037 3.40645L9 2.88635ZM11.4306 13.6145L11.8949 14.2035L11.4306 13.6145ZM7.0337 13.0255C5.81227 12.0627 4.50304 11.1414 3.46279 9.97005C2.44825 8.82765 1.75 7.50662 1.75 5.79552H0.25C0.25 7.97476 1.15953 9.63546 2.34122 10.9661C3.4972 12.2678 4.97265 13.3108 6.10507 14.2035L7.0337 13.0255ZM1.75 5.79552C1.75 4.13094 2.69036 2.74282 3.96185 2.16162C5.18605 1.60203 6.85165 1.73581 8.45963 3.40645L9.54037 2.36624C7.54848 0.296751 5.21408 -0.0600598 3.33825 0.797385C1.5097 1.63322 0.25 3.56974 0.25 5.79552H1.75ZM6.10507 14.2035C6.51348 14.5255 6.96146 14.8766 7.41778 15.1433C7.87386 15.4098 8.4096 15.6358 9 15.6358V14.1358C8.7904 14.1358 8.52614 14.0536 8.17457 13.8482C7.82323 13.6429 7.4559 13.3584 7.0337 13.0255L6.10507 14.2035ZM11.8949 14.2035C13.0273 13.3108 14.5028 12.2678 15.6588 10.9661C16.8405 9.63546 17.75 7.97476 17.75 5.79552H16.25C16.25 7.50662 15.5518 8.82765 14.5372 9.97005C13.497 11.1414 12.1877 12.0627 10.9663 13.0255L11.8949 14.2035ZM17.75 5.79552C17.75 3.56974 16.4903 1.63322 14.6617 0.797385C12.7859 -0.0600598 10.4515 0.296751 8.45963 2.36624L9.54037 3.40645C11.1484 1.73581 12.8139 1.60203 14.0382 2.16162C15.3096 2.74282 16.25 4.13094 16.25 5.79552H17.75ZM10.9663 13.0255C10.5441 13.3584 10.1768 13.6429 9.82543 13.8482C9.47386 14.0536 9.2096 14.1358 9 14.1358V15.6358C9.5904 15.6358 10.1261 15.4098 10.5822 15.1433C11.0385 14.8766 11.4865 14.5255 11.8949 14.2035L10.9663 13.0255Z" />
<path opacity="0.5" d="M10.0698 5.01608C10.3627 5.30892 10.8376 5.30883 11.1304 5.01589C11.4233 4.72294 11.4232 4.24807 11.1302 3.95523L10.0698 5.01608ZM8.46977 3.41666L10.0698 5.01608L11.1302 3.95523L9.53023 2.3558L8.46977 3.41666Z" />
</svg>
