<svg width="23" height="19" viewBox="0 0 23 19" fill="none" xmlns="http://www.w3.org/2000/svg">
<path d="M1.26885 9.15843C3.46106 7.9337 5.90816 6.91153 8.19461 5.88412C12.1282 4.20132 16.0774 2.54768 20.0665 1.00817C20.8426 0.745849 22.2371 0.489315 22.3739 1.65588C22.299 3.30714 21.991 4.94873 21.7797 6.59032C21.2435 10.2003 20.6237 13.798 20.0193 17.3961C19.8111 18.5946 18.3307 19.2151 17.3836 18.4481C15.1073 16.8886 12.8135 15.3443 10.5662 13.7487C9.83011 12.99 10.5127 11.9006 11.1702 11.3588C13.045 9.48486 15.0333 7.89272 16.8101 5.92193C17.2894 4.74799 15.8732 5.73735 15.4061 6.04048C12.8395 7.8344 10.3357 9.73783 7.6296 11.3144C6.24735 12.0862 4.63632 11.4267 3.25469 10.996C2.01589 10.4758 0.200712 9.95165 1.26885 9.15843Z" fill="#9E9C9C"/>
</svg>
