<svg width="30" height="33" viewBox="0 0 30 33" fill="none" xmlns="http://www.w3.org/2000/svg">
<path d="M18.5908 12.0458L15.0758 13.8033M15.0758 13.8033L11.5608 12.0458M15.0758 13.8033V18.205M29.1517 6.7575L25.6367 8.515M29.1517 6.7575L25.6367 5M29.1517 6.7575V11.1592M1 6.7575L4.515 5M1 6.7575L4.515 8.515M1 6.7575V11.1592M15.0758 31.3942L11.5608 29.6367M15.0758 31.3942L18.5908 29.6367M15.0758 31.3942V26.9925" stroke="white" stroke-width="1.5" stroke-linecap="round" stroke-linejoin="round"/>
<path d="M18.5127 2.92425L14.9977 1.16675L11.4827 2.92425M25.5585 27.5609L29.0735 25.8034V21.4017M4.43688 27.5609L0.921875 25.8034V21.4017" stroke="white" stroke-opacity="0.5" stroke-width="1.5" stroke-linecap="round" stroke-linejoin="round"/>
</svg>
