<svg viewBox="0 0 74 54" fill="none" xmlns="http://www.w3.org/2000/svg">
<path d="M33.834 11C31.0726 11 28.834 8.7614 28.834 5.99998C28.834 3.23857 31.0726 1 33.834 1C36.5954 1 38.834 3.23857 38.834 5.99998C38.834 8.7614 36.5954 11 33.834 11Z" stroke="white" stroke-width="1.5"/>
<path d="M23 31.0002C20.2386 31.0002 18 28.7616 18 26.0002C18 23.2388 20.2386 21.0002 23 21.0002C25.7614 21.0002 28 23.2388 28 26.0002C28 28.7616 25.7614 31.0002 23 31.0002Z" stroke="white" stroke-width="1.5"/>
<path d="M44.666 31.0002C41.9046 31.0002 39.6661 28.7616 39.6661 26.0002C39.6661 23.2388 41.9046 21.0002 44.666 21.0002C47.4274 21.0002 49.666 23.2388 49.666 26.0002C49.666 28.7616 47.4274 31.0002 44.666 31.0002Z" stroke="white" stroke-width="1.5"/>
<path opacity="0.5" d="M47.1666 17.6668C47.1666 13.6844 45.4207 10.1099 42.6526 7.66675M20.5 17.6668C20.5 13.6844 22.2459 10.1099 25.014 7.66675M30.5 30.58C31.5654 30.8542 32.6823 31 33.8333 31C34.9843 31 36.1012 30.8542 37.1666 30.58" stroke="white" stroke-width="1.5" stroke-linecap="round"/>
</svg>
