<svg width="32" height="32" viewBox="0 0 32 32" fill="none" xmlns="http://www.w3.org/2000/svg">
<path d="M14.5 23.5H10C5.75736 23.5 3.63604 23.5 2.31802 22.182C1 20.864 1 18.7426 1 14.5V13C1 7.34315 1 4.51472 2.75736 2.75736C4.51472 1 7.34315 1 13 1H21.25C24.7519 1 26.5029 1 27.8284 1.70847C28.8749 2.26787 29.7321 3.12505 30.2915 4.17162C31 5.49708 31 7.24805 31 10.75" stroke="white" stroke-width="1.5" stroke-linecap="round"/>
<path opacity="0.5" d="M19 20.5C19 17.6716 19 16.2574 19.8787 15.3787C20.7574 14.5 22.1716 14.5 25 14.5C27.8284 14.5 29.2426 14.5 30.1213 15.3787C31 16.2574 31 17.6716 31 20.5V25C31 27.8284 31 29.2426 30.1213 30.1213C29.2426 31 27.8284 31 25 31C22.1716 31 20.7574 31 19.8787 30.1213C19 29.2426 19 27.8284 19 25V20.5Z" stroke="white" stroke-width="1.5"/>
<path d="M26.5 28H23.5" stroke="white" stroke-width="1.5" stroke-linecap="round"/>
<path d="M14.5 31H10" stroke="white" stroke-width="1.5" stroke-linecap="round"/>
<path d="M14.5 31V23.5" stroke="white" stroke-width="1.5" stroke-linecap="round"/>
<path opacity="0.5" d="M14.5 17.5H1" stroke="white" stroke-width="1.5" stroke-linecap="round"/>
</svg>
