<svg width="30" height="30" viewBox="0 0 30 30" fill="none" xmlns="http://www.w3.org/2000/svg">
<path d="M10 7.1875C9.4875 7.1875 9.0625 6.7625 9.0625 6.25V2.5C9.0625 1.9875 9.4875 1.5625 10 1.5625C10.5125 1.5625 10.9375 1.9875 10.9375 2.5V6.25C10.9375 6.7625 10.5125 7.1875 10 7.1875Z" fill="white" fill-opacity="0.5"/>
<path d="M20 7.1875C19.4875 7.1875 19.0625 6.7625 19.0625 6.25V2.5C19.0625 1.9875 19.4875 1.5625 20 1.5625C20.5125 1.5625 20.9375 1.9875 20.9375 2.5V6.25C20.9375 6.7625 20.5125 7.1875 20 7.1875Z" fill="white" fill-opacity="0.5"/>
<path d="M22.1484 27.0198C21.7984 27.0198 21.4784 26.9398 21.1884 26.7698C20.5284 26.3898 20.1484 25.6198 20.1484 24.6598V22.3498C20.1484 21.3898 20.5284 20.6198 21.1884 20.2398C21.8484 19.8598 22.6984 19.9198 23.5284 20.3898L25.5284 21.5498C26.3584 22.0298 26.8384 22.7398 26.8384 23.4998C26.8384 24.2598 26.3584 24.9698 25.5284 25.4498L23.5284 26.6098C23.0684 26.8798 22.5984 27.0198 22.1484 27.0198ZM22.1584 21.4798C22.0784 21.4798 21.9984 21.4998 21.9384 21.5298C21.7584 21.6298 21.6484 21.9398 21.6484 22.3398V24.6498C21.6484 25.0498 21.7584 25.3598 21.9384 25.4598C22.1184 25.5598 22.4384 25.5098 22.7784 25.3098L24.7784 24.1498C25.1284 23.9498 25.3384 23.6998 25.3384 23.4998C25.3384 23.2998 25.1284 23.0498 24.7784 22.8498L22.7784 21.6898C22.5484 21.5498 22.3284 21.4798 22.1584 21.4798Z" fill="white" fill-opacity="0.5"/>
<path d="M10.625 18.1246C10.4625 18.1246 10.3 18.0871 10.15 18.0246C9.98749 17.9621 9.84999 17.8746 9.73749 17.7621C9.68749 17.6996 9.625 17.6371 9.5875 17.5746C9.5375 17.4996 9.5 17.4246 9.475 17.3496C9.4375 17.2746 9.41251 17.1996 9.40001 17.1246C9.38751 17.0371 9.375 16.9496 9.375 16.8746C9.375 16.5496 9.51249 16.2246 9.73749 15.9871C9.84999 15.8746 9.98749 15.7871 10.15 15.7246C10.6 15.5246 11.1625 15.6371 11.5125 15.9871C11.7375 16.2246 11.875 16.5496 11.875 16.8746C11.875 16.9496 11.8625 17.0371 11.85 17.1246C11.8375 17.1996 11.8125 17.2746 11.775 17.3496C11.75 17.4246 11.7125 17.4996 11.6625 17.5746C11.6125 17.6371 11.5625 17.6996 11.5125 17.7621C11.275 17.9871 10.95 18.1246 10.625 18.1246Z" fill="white" fill-opacity="0.5"/>
<path d="M10.3423 17.5631L10.3424 17.5629L10.3295 17.5579C10.2347 17.5215 10.1626 17.4756 10.1061 17.4231C10.0956 17.4104 10.0856 17.3988 10.0769 17.3886C10.0705 17.3813 10.0652 17.3752 10.0605 17.3697C10.0526 17.3607 10.0462 17.3532 10.0388 17.3445C10.0207 17.3232 10.015 17.3151 10.0149 17.3152L10.0101 17.3071L10.0035 17.2972C9.97479 17.2542 9.95849 17.2189 9.94934 17.1915L9.93811 17.1578L9.92222 17.126C9.90584 17.0932 9.89776 17.067 9.89392 17.0465C9.88072 16.9537 9.875 16.906 9.875 16.8746C9.875 16.6881 9.95564 16.4865 10.0957 16.3361C10.1536 16.2794 10.2288 16.23 10.3295 16.1913L10.3414 16.1867L10.3531 16.1815C10.6056 16.0692 10.945 16.1309 11.1542 16.336C11.2943 16.4864 11.375 16.688 11.375 16.8746C11.375 16.906 11.3693 16.9537 11.3561 17.0465C11.3522 17.067 11.3442 17.0932 11.3278 17.126L11.3119 17.1578L11.3007 17.1915C11.2926 17.2155 11.2791 17.2455 11.2566 17.2816L11.1971 17.356L11.1462 17.4196C10.9978 17.55 10.8044 17.6246 10.625 17.6246C10.5383 17.6246 10.4411 17.6043 10.3423 17.5631Z" stroke="white" stroke-opacity="0.5"/>
<path d="M15 18.1247C14.675 18.1247 14.35 17.9872 14.1125 17.7622C13.8875 17.5247 13.75 17.2122 13.75 16.8747C13.75 16.7122 13.7875 16.5497 13.85 16.3997C13.9125 16.2497 14 16.1123 14.1125 15.9873C14.575 15.5248 15.4125 15.5248 15.8875 15.9873C16.1125 16.2248 16.25 16.5497 16.25 16.8747C16.25 16.9497 16.2375 17.0373 16.225 17.1248C16.2125 17.1998 16.1875 17.2748 16.15 17.3498C16.125 17.4248 16.0875 17.4997 16.0375 17.5747C15.9875 17.6372 15.9375 17.6997 15.8875 17.7622C15.65 17.9872 15.325 18.1247 15 18.1247Z" fill="white" fill-opacity="0.5"/>
<path d="M15.7028 17.1261L15.6869 17.1579L15.6757 17.1916C15.6676 17.2157 15.6541 17.2457 15.6316 17.2817L15.5721 17.3561L15.5212 17.4197C15.3728 17.5501 15.1794 17.6247 15 17.6247C14.8154 17.6247 14.6161 17.5458 14.4662 17.4084C14.3272 17.2571 14.25 17.069 14.25 16.8747C14.25 16.7881 14.2704 16.6909 14.3115 16.592C14.3499 16.4999 14.4035 16.4136 14.4749 16.3322C14.74 16.0782 15.2497 16.0726 15.5316 16.3387C15.6702 16.4888 15.75 16.6892 15.75 16.8747C15.75 16.9061 15.7443 16.9538 15.7311 17.0466C15.7272 17.0671 15.7192 17.0934 15.7028 17.1261Z" stroke="white" stroke-opacity="0.5"/>
<path d="M10.625 22.5C10.3 22.5 9.97499 22.3625 9.73749 22.1375C9.51249 21.9 9.375 21.575 9.375 21.25C9.375 21.0875 9.4125 20.925 9.475 20.775C9.5375 20.6125 9.62499 20.475 9.73749 20.3625C10.2 19.9 11.05 19.9 11.5125 20.3625C11.7375 20.6 11.875 20.925 11.875 21.25C11.875 21.575 11.7375 21.9 11.5125 22.1375C11.275 22.3625 10.95 22.5 10.625 22.5Z" fill="white" fill-opacity="0.5"/>
<path d="M9.93654 20.9673L9.93672 20.9674L9.94168 20.9545C9.98145 20.8511 10.0325 20.7746 10.091 20.7161C10.2142 20.5929 10.4077 20.5156 10.625 20.5156C10.8396 20.5156 11.031 20.591 11.1543 20.7115C11.2944 20.8619 11.375 21.0635 11.375 21.25C11.375 21.4345 11.2961 21.6338 11.1587 21.7837C11.0089 21.921 10.8095 22 10.625 22C10.4405 22 10.2411 21.921 10.0913 21.7837C9.95394 21.6338 9.875 21.4345 9.875 21.25C9.875 21.1633 9.89535 21.0661 9.93654 20.9673Z" stroke="white" stroke-opacity="0.5"/>
<path d="M25.625 12.2998H4.375C3.8625 12.2998 3.4375 11.8748 3.4375 11.3623C3.4375 10.8498 3.8625 10.4248 4.375 10.4248H25.625C26.1375 10.4248 26.5625 10.8498 26.5625 11.3623C26.5625 11.8748 26.1375 12.2998 25.625 12.2998Z" fill="white" fill-opacity="0.5"/>
<path d="M25.625 11.7998H4.375C4.13864 11.7998 3.9375 11.5987 3.9375 11.3623C3.9375 11.1259 4.13864 10.9248 4.375 10.9248H25.625C25.8614 10.9248 26.0625 11.1259 26.0625 11.3623C26.0625 11.5987 25.8614 11.7998 25.625 11.7998Z" stroke="white" stroke-opacity="0.5"/>
<path d="M16.7125 28.4375H10C5.4375 28.4375 2.8125 25.8125 2.8125 21.25V10.625C2.8125 6.0625 5.4375 3.4375 10 3.4375H20C24.5625 3.4375 27.1875 6.0625 27.1875 10.625V16.25C27.1875 16.7625 26.7625 17.1875 26.25 17.1875C25.7375 17.1875 25.3125 16.7625 25.3125 16.25V10.625C25.3125 7.05 23.575 5.3125 20 5.3125H10C6.425 5.3125 4.6875 7.05 4.6875 10.625V21.25C4.6875 24.825 6.425 26.5625 10 26.5625H16.7125C17.225 26.5625 17.65 26.9875 17.65 27.5C17.65 28.0125 17.225 28.4375 16.7125 28.4375Z" fill="white"/>
</svg>
