<svg width="32" height="32" viewBox="0 0 32 32" fill="none" xmlns="http://www.w3.org/2000/svg">
<path d="M1 16.3059C1 12.8732 1 11.1569 1.7788 9.73411C2.5576 8.31131 3.98042 7.42827 6.82605 5.66219L9.82605 3.80031C12.8341 1.93344 14.3381 1 16 1C17.6619 1 19.1659 1.93343 22.1739 3.8003L25.1739 5.66219C28.0196 7.42827 29.4424 8.31131 30.2212 9.73411C31 11.1569 31 12.8732 31 16.3059V18.5874C31 24.4388 31 27.3644 29.2426 29.1822C27.4853 31 24.6569 31 19 31H13C7.34315 31 4.51472 31 2.75736 29.1822C1 27.3644 1 24.4388 1 18.5874V16.3059Z" stroke="white" stroke-width="1.5"/>
<path d="M20.5 26H11.5" stroke="white" stroke-width="1.5" stroke-linecap="round"/>
<path opacity="0.5" d="M13 25V21.7273C13 20.7077 13 20.1979 13.2412 19.8182C13.3991 19.5694 13.6264 19.3629 13.9 19.2192C14.3177 19 14.8785 19 16 19C17.1215 19 17.6823 19 18.1 19.2192C18.3736 19.3629 18.6009 19.5694 18.7588 19.8182C19 20.1979 19 20.7077 19 21.7273V25" stroke="white" stroke-width="1.5" stroke-linecap="round"/>
</svg>
