<svg viewBox="0 0 40 56" fill="none" xmlns="http://www.w3.org/2000/svg">
<path d="M5 16.3059C5 12.8732 5 11.1569 5.7788 9.73411C6.5576 8.31131 7.98042 7.42827 10.8261 5.66219L13.826 3.80031C16.8341 1.93344 18.3381 1 20 1C21.6619 1 23.1659 1.93343 26.1739 3.8003L29.1739 5.66219C32.0196 7.42827 33.4424 8.31131 34.2212 9.73411C35 11.1569 35 12.8732 35 16.3059V18.5874C35 24.4388 35 27.3644 33.2426 29.1822C31.4853 31 28.6569 31 23 31H17C11.3431 31 8.51472 31 6.75736 29.1822C5 27.3644 5 24.4388 5 18.5874V16.3059Z" stroke="white" stroke-width="1.5"/>
<path d="M24.5 26H15.5" stroke="white" stroke-width="1.5" stroke-linecap="round"/>
<path opacity="0.5" d="M17 25V21.7273C17 20.7077 17 20.1979 17.2412 19.8182C17.3991 19.5694 17.6264 19.3629 17.9 19.2192C18.3177 19 18.8785 19 20 19C21.1215 19 21.6823 19 22.1 19.2192C22.3736 19.3629 22.6009 19.5694 22.7588 19.8182C23 20.1979 23 20.7077 23 21.7273V25" stroke="white" stroke-width="1.5" stroke-linecap="round"/>
</svg>
