<svg width="32" height="35" viewBox="0 0 32 35" fill="none" xmlns="http://www.w3.org/2000/svg">
<path opacity="0.5" d="M26 11L27.5811 11.527C29.2312 12.0771 30.0562 12.3521 30.5281 13.0068C31 13.6615 31 14.5312 31 16.2705V25.715C31 27.8665 31 28.9422 30.4338 29.6333C30.2415 29.868 30.0081 30.0657 29.745 30.2168C28.9702 30.6617 27.9091 30.4849 25.7869 30.1311C23.6928 29.7821 22.6458 29.6076 21.6081 29.6945C21.2439 29.725 20.8821 29.7794 20.525 29.8573C19.5076 30.0795 18.5499 30.5584 16.6344 31.5161C14.1348 32.7659 12.8851 33.3908 11.5547 33.5834C11.154 33.6414 10.7497 33.6702 10.3448 33.6694C9.00059 33.6669 7.68644 33.2288 5.05813 32.3527L4.41886 32.1396C2.76881 31.5896 1.94379 31.3146 1.47189 30.6599C1 30.0052 1 29.1355 1 27.3962V19.18C1 16.4152 1 15.0328 1.81402 14.2893C1.95646 14.1592 2.11348 14.046 2.28194 13.952C3.24469 13.4149 4.55616 13.8521 7.17909 14.7264" stroke="white" stroke-width="1.5"/>
<path d="M6 10.5005C6 5.25352 10.4772 1 16 1C21.5228 1 26 5.25352 26 10.5005C26 15.7064 22.8083 21.7811 17.8287 23.9535C16.6678 24.4599 15.3322 24.4599 14.1713 23.9535C9.19166 21.7811 6 15.7064 6 10.5005Z" stroke="white" stroke-width="1.5"/>
<circle cx="16.0013" cy="11.0001" r="3.33333" stroke="white" stroke-width="1.5"/>
</svg>
