<svg width="34" height="32" viewBox="0 0 34 32" fill="none" xmlns="http://www.w3.org/2000/svg">
<path d="M16.832 11C14.0706 11 11.8321 8.7614 11.8321 5.99998C11.8321 3.23857 14.0706 1 16.832 1C19.5935 1 21.832 3.23857 21.832 5.99998C21.832 8.7614 19.5935 11 16.832 11Z" stroke="white" stroke-width="1.5"/>
<path d="M6.00002 31.0002C3.2386 31.0002 1.00004 28.7616 1.00004 26.0002C1.00004 23.2388 3.2386 21.0002 6.00002 21.0002C8.76143 21.0002 11 23.2388 11 26.0002C11 28.7616 8.76143 31.0002 6.00002 31.0002Z" stroke="white" stroke-width="1.5"/>
<path d="M27.668 31.0002C24.9066 31.0002 22.668 28.7616 22.668 26.0002C22.668 23.2388 24.9066 21.0002 27.668 21.0002C30.4294 21.0002 32.668 23.2388 32.668 26.0002C32.668 28.7616 30.4294 31.0002 27.668 31.0002Z" stroke="white" stroke-width="1.5"/>
<path opacity="0.5" d="M30.1666 17.6668C30.1666 13.6844 28.4207 10.1099 25.6526 7.66675M3.5 17.6668C3.5 13.6844 5.24586 10.1099 8.01395 7.66675M13.5 30.58C14.5654 30.8542 15.6823 31 16.8333 31C17.9843 31 19.1012 30.8542 20.1666 30.58" stroke="white" stroke-width="1.5" stroke-linecap="round"/>
</svg>
