<svg width="32" height="32" viewBox="0 0 32 32" fill="none" xmlns="http://www.w3.org/2000/svg">
<path d="M7 10C7 5.75736 7 3.63604 8.31802 2.31802C9.63604 1 11.7574 1 16 1C20.2426 1 22.364 1 23.682 2.31802C25 3.63604 25 5.75736 25 10V22C25 26.2426 25 28.364 23.682 29.682C22.364 31 20.2426 31 16 31C11.7574 31 9.63604 31 8.31802 29.682C7 28.364 7 26.2426 7 22V10Z" stroke="white" stroke-width="1.5"/>
<path opacity="0.5" d="M25 27.25C27.1002 27.25 28.1503 27.25 28.9525 26.8413C29.6581 26.4817 30.2317 25.9081 30.5913 25.2025C31 24.4003 31 23.3502 31 21.25V10.75C31 8.6498 31 7.5997 30.5913 6.79754C30.2317 6.09193 29.6581 5.51825 28.9525 5.15873C28.1503 4.75 27.1002 4.75 25 4.75" stroke="white" stroke-width="1.5"/>
<path opacity="0.5" d="M7 27.25C4.8998 27.25 3.8497 27.25 3.04754 26.8413C2.34193 26.4817 1.76825 25.9081 1.40873 25.2025C1 24.4003 1 23.3502 1 21.25V10.75C1 8.6498 1 7.5997 1.40873 6.79754C1.76825 6.09193 2.34193 5.51825 3.04754 5.15873C3.8497 4.75 4.8998 4.75 7 4.75" stroke="white" stroke-width="1.5"/>
</svg>
